<?xml version="1.0" encoding="UTF-8" standalone="no"?>
<svg
   xmlns:dc="http://purl.org/dc/elements/1.1/"
   xmlns:cc="http://creativecommons.org/ns#"
   xmlns:rdf="http://www.w3.org/1999/02/22-rdf-syntax-ns#"
   xmlns:svg="http://www.w3.org/2000/svg"
   xmlns="http://www.w3.org/2000/svg"
   xmlns:sodipodi="http://sodipodi.sourceforge.net/DTD/sodipodi-0.dtd"
   xmlns:inkscape="http://www.inkscape.org/namespaces/inkscape"
   version="1.1"
   style="stroke:#ffffff;stroke-width:5px"
   id="svg"
   height="128"
   width="128"
   inkscape:version="0.91 r13725"
   sodipodi:docname="jsmoon_logo_128.svg">
  <sodipodi:namedview
     pagecolor="#ffffff"
     bordercolor="#666666"
     borderopacity="1"
     objecttolerance="10"
     gridtolerance="10"
     guidetolerance="10"
     inkscape:pageopacity="0"
     inkscape:pageshadow="2"
     inkscape:window-width="1093"
     inkscape:window-height="674"
     id="namedview11"
     showgrid="false"
     inkscape:zoom="1.39"
     inkscape:cx="28.561151"
     inkscape:cy="12.014388"
     inkscape:window-x="0"
     inkscape:window-y="0"
     inkscape:window-maximized="0"
     inkscape:current-layer="svg" />
  <metadata
     id="metadata4720">
    <rdf:RDF>
      <cc:Work
         rdf:about="">
        <dc:format>image/svg+xml</dc:format>
        <dc:type
           rdf:resource="http://purl.org/dc/dcmitype/StillImage" />
        <dc:title></dc:title>
      </cc:Work>
    </rdf:RDF>
  </metadata>
  <defs
     id="defs4718" />
  <g
     transform="matrix(0.38695702,0,0,0.82392122,1.8194404,-39.421173)"
     id="pathsWrapper">
    <path
       style="fill:#fffaab;stroke:none"
       id="menu1"
       class="paths"
       d="m 0,130.55534 1.6080402,0.079 1.6080402,0.0848 1.6080402,0.0909 1.6080402,0.0974 1.6080402,0.10415 1.6080402,0.11122 1.6080398,0.11855 1.608041,0.1262 1.60804,0.13414 1.60804,0.14235 1.60804,0.15085 1.60804,0.1596 1.608041,0.16863 1.60804,0.1779 1.60804,0.18738 1.60804,0.19707 1.60804,0.20699 1.608041,0.21708 1.60804,0.22733 1.60804,0.23771 1.60804,0.24822 1.60804,0.25882 1.608041,0.26952 1.60804,0.28024 1.60804,0.291 1.60804,0.30178 1.60804,0.31253 1.608041,0.32326 1.60804,0.33391 1.60804,0.34448 1.60804,0.35497 1.60804,0.36531 1.608041,0.37553 1.60804,0.3856 1.60804,0.39551 1.60804,0.40521 1.60804,0.41475 1.608041,0.42407 1.60804,0.43322 1.60804,0.44211 1.60804,0.45083 1.60804,0.45931 1.608041,0.4676 1.60804,0.47566 1.60804,0.4835 1.60804,0.49118 1.60804,0.49863 1.608041,0.5059 1.60804,0.51296 1.60804,0.51987 1.60804,0.52658 1.60804,0.53312 1.608041,0.53951 1.60804,0.5457 1.60804,0.55172 1.60804,0.55759 1.60804,0.56325 1.608041,0.56873 1.60804,0.57399 1.60804,0.57903 1.60804,0.58382 1.60804,0.58835 1.608038,0.59255 1.60804,0.59643 1.60804,0.59995 1.60804,0.60302 1.60804,0.60565 1.60804,0.60776 1.60804,0.60929 1.60804,0.61024 1.60804,0.61046 1.60804,0.60997 1.60804,0.60868 1.60804,0.60651 1.60805,0.60342 1.60804,0.59935 1.60804,0.59422 1.60804,0.58799 1.60804,0.58058 1.60804,0.57197 1.60804,0.56207 1.60804,0.55088 1.60804,0.53831 1.60804,0.52439 1.60804,0.50902 1.60804,0.49223 1.60804,0.47401 1.60804,0.4543 1.60804,0.43317 1.60804,0.41058 1.60804,0.38659 1.60804,0.3612 1.60804,0.33445 1.60804,0.30642 1.60804,0.27709 1.60804,0.2466 1.60804,0.21499 1.60804,0.18232 1.60804,0.14869 1.60804,0.1142 1.60804,0.079 1.60804,0.043 1.60804,0.007 1.60804,-0.0305 1.60804,-0.0677 1.60804,-0.10516 1.60804,-0.14274 1.60804,-0.18028 1.60804,-0.21767 1.60804,-0.25478 1.60804,-0.29152 1.60804,-0.32772 1.60804,-0.36331 1.60804,-0.39817 1.60804,-0.43215 1.60804,-0.4652 1.60804,-0.49718 1.60804,-0.52804 1.60804,-0.55764 1.60804,-0.58595 1.60804,-0.61287 1.60804,-0.63831 1.60804,-0.66227 1.60804,-0.68465 1.60805,-0.70542 1.60804,-0.72457 1.60804,-0.74202 1.60804,-0.7578 1.60804,-0.77185 1.60804,-0.78422 1.60804,-0.79486 1.60804,-0.80381 1.60804,-0.8111 1.60804,-0.8167 1.60804,-0.82069 1.60804,-0.82309 1.60804,-0.82392 1.60804,-0.82323 1.60804,-0.82111 1.60804,-0.81756 1.60804,-0.81268 1.60804,-0.80651 1.60804,-0.79908 1.60804,-0.79055 1.60804,-0.7809 1.60804,-0.77021 1.60804,-0.75861 1.60804,-0.74609 1.60804,-0.73279 1.60804,-0.71874 1.60804,-0.70403 1.60804,-0.68872 1.60804,-0.67288 1.60804,-0.65658 1.60804,-0.6399 1.60804,-0.62288 1.60804,-0.60558 1.60804,-0.58809 1.60804,-0.57044 1.60804,-0.5527 1.60804,-0.5349 1.60804,-0.51714 1.60804,-0.49941 1.60804,-0.48176 1.60804,-0.46428 1.60804,-0.44695 1.60804,-0.42985 1.60804,-0.41297 1.60804,-0.39637 1.60804,-0.38006 1.60804,-0.36409 1.60804,-0.34845 1.60804,-0.33315 1.60804,-0.31826 1.60805,-0.30373 1.60804,-0.28962 1.60804,-0.2759 1.60804,-0.26262 1.60804,-0.24974 1.60804,-0.2373 1.60804,-0.22527 1.60804,-0.21368 1.60804,-0.20252 1.60804,-0.19177 1.60804,-0.18144 1.60804,-0.17151 1.60804,-0.16202 1.60804,-0.15291 1.60804,-0.1442 1.60804,-0.13588 1.60804,-0.12793 1.60804,-0.12034 1.60804,-0.11311 1.60804,-0.10625 1.60804,-0.0997 1.60804,-0.0935 1.60804,-0.0876 1.60804,-0.0819 1.60804,-0.0767 0,0.13623 -1.60804,0.0899 -1.60804,0.0964 -1.60804,0.10324 -1.60804,0.11051 -1.60804,0.11817 -1.60804,0.12631 -1.60804,0.13488 -1.60804,0.14393 -1.60804,0.1535 -1.60804,0.16355 -1.60804,0.17415 -1.60804,0.1853 -1.60804,0.19701 -1.60804,0.20931 -1.60804,0.2222 -1.60804,0.23572 -1.60804,0.24988 -1.60804,0.26466 -1.60804,0.28014 -1.60804,0.29626 -1.60804,0.31308 -1.60804,0.3306 -1.60804,0.34881 -1.60804,0.36773 -1.60805,0.38735 -1.60804,0.40771 -1.60804,0.42874 -1.60804,0.45052 -1.60804,0.47296 -1.60804,0.49611 -1.60804,0.51991 -1.60804,0.54438 -1.60804,0.56947 -1.60804,0.59517 -1.60804,0.62145 -1.60804,0.64824 -1.60804,0.67556 -1.60804,0.70332 -1.60804,0.73146 -1.60804,0.75998 -1.60804,0.78877 -1.60804,0.81779 -1.60804,0.84695 -1.60804,0.87618 -1.60804,0.90543 -1.60804,0.93458 -1.60804,0.96353 -1.60804,0.99222 -1.60804,1.02053 -1.60804,1.04838 -1.60804,1.07563 -1.60804,1.1022 -1.60804,1.12795 -1.60804,1.15281 -1.60804,1.17661 -1.60804,1.19926 -1.60804,1.22066 -1.60804,1.24065 -1.60804,1.25916 -1.60804,1.27605 -1.60804,1.29121 -1.60804,1.30452 -1.60804,1.31592 -1.60804,1.32524 -1.60804,1.33245 -1.60804,1.33741 -1.60804,1.34008 -1.60804,1.34034 -1.60804,1.33817 -1.60804,1.33349 -1.60804,1.32625 -1.60804,1.3164 -1.60804,1.30393 -1.60804,1.28883 -1.60805,1.27106 -1.60804,1.25066 -1.60804,1.22761 -1.60804,1.20199 -1.60804,1.17377 -1.60804,1.14305 -1.60804,1.1099 -1.60804,1.07432 -1.60804,1.03649 -1.60804,0.99641 -1.60804,0.95425 -1.60804,0.91008 -1.60804,0.86405 -1.60804,0.81624 -1.60804,0.76681 -1.60804,0.71593 -1.60804,0.66368 -1.60804,0.61024 -1.60804,0.55577 -1.60804,0.5004 -1.60804,0.44427 -1.60804,0.38759 -1.60804,0.33045 -1.60804,0.27304 -1.60804,0.21549 -1.60804,0.15794 -1.60804,0.10055 -1.60804,0.0435 -1.60804,-0.0131 -1.60804,-0.0693 -1.60804,-0.12481 -1.60804,-0.17948 -1.60804,-0.23327 -1.60804,-0.28607 -1.60804,-0.33779 -1.60804,-0.38835 -1.60804,-0.43763 -1.60804,-0.48562 -1.60804,-0.53223 -1.60804,-0.57739 -1.60804,-0.62106 -1.60804,-0.66321 -1.60804,-0.70378 -1.60804,-0.74274 -1.60804,-0.78007 -1.60804,-0.81574 -1.60804,-0.84975 -1.60804,-0.88207 -1.60804,-0.91271 -1.60804,-0.94161 -1.60805,-0.96884 -1.60804,-0.99435 -1.60804,-1.01814 -1.60804,-1.04026 -1.60804,-1.06065 -1.60804,-1.07935 -1.60804,-1.09638 -1.60804,-1.11171 -1.60804,-1.12538 -1.60804,-1.13737 -1.60804,-1.14775 -1.60804,-1.15646 -1.608038,-1.16355 -1.60804,-1.16902 -1.60804,-1.17291 -1.60804,-1.17519 -1.60804,-1.17593 -1.608041,-1.1751 -1.60804,-1.17275 -1.60804,-1.16891 -1.60804,-1.16357 -1.60804,-1.15679 -1.608041,-1.14859 -1.60804,-1.139 -1.60804,-1.12806 -1.60804,-1.1158 -1.60804,-1.10228 -1.608041,-1.08753 -1.60804,-1.07159 -1.60804,-1.05455 -1.60804,-1.03641 -1.60804,-1.0173 -1.608041,-0.9972 -1.60804,-0.97624 -1.60804,-0.95444 -1.60804,-0.93189 -1.60804,-0.90866 -1.608041,-0.88482 -1.60804,-0.86043 -1.60804,-0.83558 -1.60804,-0.81035 -1.60804,-0.78478 -1.608041,-0.75899 -1.60804,-0.733 -1.60804,-0.70694 -1.60804,-0.68084 -1.60804,-0.65477 -1.608041,-0.62883 -1.60804,-0.60306 -1.60804,-0.5775 -1.60804,-0.55227 -1.60804,-0.52736 -1.608041,-0.50286 -1.60804,-0.47881 -1.60804,-0.45525 -1.60804,-0.43224 -1.60804,-0.40978 -1.608041,-0.38793 -1.60804,-0.36673 -1.60804,-0.34617 -1.60804,-0.32628 -1.60804,-0.30712 -1.608041,-0.28862 -1.60804,-0.27088 -1.60804,-0.25383 -1.60804,-0.23753 -1.60804,-0.22194 -1.608041,-0.20709 L 9.6482412,131.83659 8.040201,131.6571 6.4321608,131.49034 4.8241206,131.33566 3.2160804,131.19226 1.6080402,131.05974 0,130.93733 Z"
       inkscape:connector-curvature="0" />
    <path
       style="fill:#ab67ec;stroke:none;stroke-opacity:1"
       id="menu2"
       class="paths"
       d="m 0,124.97447 1.6080402,0.0703 1.6080402,0.0753 1.6080402,0.0805 1.6080402,0.0861 1.6080402,0.0917 1.6080402,0.0976 1.6080398,0.10372 1.608041,0.11003 1.60804,0.11649 1.60804,0.12313 1.60804,0.12992 1.60804,0.13682 1.608041,0.14383 1.60804,0.15094 1.60804,0.1581 1.60804,0.16527 1.60804,0.17249 1.608041,0.17964 1.60804,0.18674 1.60804,0.19373 1.60804,0.2006 1.60804,0.20728 1.608041,0.21375 1.60804,0.21998 1.60804,0.2259 1.60804,0.23147 1.60804,0.23667 1.608041,0.24146 1.60804,0.24576 1.60804,0.24956 1.60804,0.25283 1.60804,0.25548 1.608041,0.25753 1.60804,0.25891 1.60804,0.25961 1.60804,0.25956 1.60804,0.25879 1.608041,0.25725 1.60804,0.25488 1.60804,0.25173 1.60804,0.24776 1.60804,0.24295 1.608041,0.23732 1.60804,0.23088 1.60804,0.22361 1.60804,0.21552 1.60804,0.20667 1.608041,0.19706 1.60804,0.18671 1.60804,0.17568 1.60804,0.16397 1.60804,0.15169 1.608041,0.13881 1.60804,0.12547 1.60804,0.11166 1.60804,0.0975 1.60804,0.0829 1.608041,0.0682 1.60804,0.0534 1.60804,0.0383 1.60804,0.0235 1.60804,0.008 1.608038,-0.006 1.60804,-0.0209 1.60804,-0.0351 1.60804,-0.0489 1.60804,-0.0623 1.60804,-0.0749 1.60804,-0.0871 1.60804,-0.0986 1.60804,-0.10927 1.60804,-0.11909 1.60804,-0.12805 1.60804,-0.13602 1.60805,-0.14304 1.60804,-0.14899 1.60804,-0.15384 1.60804,-0.15762 1.60804,-0.16027 1.60804,-0.16175 1.60804,-0.16211 1.60804,-0.16131 1.60804,-0.15942 1.60804,-0.15636 1.60804,-0.15228 1.60804,-0.14711 1.60804,-0.14098 1.60804,-0.13387 1.60804,-0.1259 1.60804,-0.11712 1.60804,-0.1076 1.60804,-0.0974 1.60804,-0.0866 1.60804,-0.0755 1.60804,-0.0638 1.60804,-0.0519 1.60804,-0.04 1.60804,-0.0277 1.60804,-0.0158 1.60804,-0.005 1.60804,0.007 1.60804,0.0192 1.60804,0.03 1.60804,0.0405 1.60804,0.0502 1.60804,0.0589 1.60804,0.0672 1.60804,0.0744 1.60804,0.0806 1.60804,0.0858 1.60804,0.0901 1.60804,0.0931 1.60804,0.0951 1.60804,0.0959 1.60804,0.0955 1.60804,0.0939 1.60804,0.0912 1.60804,0.0873 1.60804,0.0822 1.60804,0.076 1.60804,0.0689 1.60804,0.0607 1.60804,0.0515 1.60804,0.0415 1.60805,0.0307 1.60804,0.019 1.60804,0.006 1.60804,-0.006 1.60804,-0.0193 1.60804,-0.0331 1.60804,-0.0469 1.60804,-0.0612 1.60804,-0.0756 1.60804,-0.09 1.60804,-0.10439 1.60804,-0.11864 1.60804,-0.13264 1.60804,-0.14638 1.60804,-0.15974 1.60804,-0.17268 1.60804,-0.18512 1.60804,-0.19699 1.60804,-0.20827 1.60804,-0.21889 1.60804,-0.22883 1.60804,-0.23802 1.60804,-0.24647 1.60804,-0.25412 1.60804,-0.26101 1.60804,-0.26706 1.60804,-0.27229 1.60804,-0.27674 1.60804,-0.28036 1.60804,-0.28321 1.60804,-0.28525 1.60804,-0.28654 1.60804,-0.28709 1.60804,-0.28693 1.60804,-0.28606 1.60804,-0.28456 1.60804,-0.28245 1.60804,-0.27972 1.60804,-0.27645 1.60804,-0.27269 1.60804,-0.26844 1.60804,-0.26378 1.60804,-0.25868 1.60804,-0.25326 1.60804,-0.24752 1.60804,-0.2415 1.60804,-0.23522 1.60804,-0.22877 1.60804,-0.22212 1.60804,-0.21535 1.60805,-0.20845 1.60804,-0.20151 1.60804,-0.1945 1.60804,-0.18747 1.60804,-0.18045 1.60804,-0.17347 1.60804,-0.16654 1.60804,-0.15963 1.60804,-0.15289 1.60804,-0.14619 1.60804,-0.13964 1.60804,-0.13323 1.60804,-0.12694 1.60804,-0.1208 1.60804,-0.11484 1.60804,-0.10905 1.60804,-0.10343 1.60804,-0.098 1.60804,-0.0928 1.60804,-0.0877 1.60804,-0.0829 1.60804,-0.078 1.60804,-0.0735 1.60804,-0.0693 1.60804,-0.0651 0,0.0526 -1.60804,0.072 -1.60804,0.077 -1.60804,0.0823 -1.60804,0.0878 -1.60804,0.0936 -1.60804,0.0998 -1.60804,0.10624 -1.60804,0.11301 -1.60804,0.12015 -1.60804,0.1276 -1.60804,0.13543 -1.60804,0.14361 -1.60804,0.15215 -1.60804,0.16109 -1.60804,0.1704 -1.60804,0.18009 -1.60804,0.19019 -1.60804,0.20068 -1.60804,0.21157 -1.60804,0.22285 -1.60804,0.23454 -1.60804,0.24665 -1.60804,0.2591 -1.60804,0.27199 -1.60805,0.28525 -1.60804,0.2989 -1.60804,0.31287 -1.60804,0.32724 -1.60804,0.34193 -1.60804,0.35694 -1.60804,0.37225 -1.60804,0.38784 -1.60804,0.40369 -1.60804,0.41976 -1.60804,0.43601 -1.60804,0.45245 -1.60804,0.46902 -1.60804,0.48567 -1.60804,0.50234 -1.60804,0.51907 -1.60804,0.53572 -1.60804,0.55231 -1.60804,0.56873 -1.60804,0.58497 -1.60804,0.60095 -1.60804,0.61662 -1.60804,0.63194 -1.60804,0.64681 -1.60804,0.66119 -1.60804,0.675 -1.60804,0.68819 -1.60804,0.70069 -1.60804,0.71244 -1.60804,0.72335 -1.60804,0.73338 -1.60804,0.74242 -1.60804,0.75047 -1.60804,0.75743 -1.60804,0.76321 -1.60804,0.76781 -1.60804,0.77114 -1.60804,0.77315 -1.60804,0.77377 -1.60804,0.773 -1.60804,0.77075 -1.60804,0.767 -1.60804,0.76174 -1.60804,0.75489 -1.60804,0.7465 -1.60804,0.73648 -1.60804,0.72489 -1.60804,0.71168 -1.60804,0.69687 -1.60804,0.68047 -1.60805,0.66249 -1.60804,0.64299 -1.60804,0.62196 -1.60804,0.59948 -1.60804,0.57556 -1.60804,0.55029 -1.60804,0.52372 -1.60804,0.4959 -1.60804,0.46692 -1.60804,0.4369 -1.60804,0.40585 -1.60804,0.37393 -1.60804,0.3412 -1.60804,0.30779 -1.60804,0.27377 -1.60804,0.23928 -1.60804,0.20442 -1.60804,0.16931 -1.60804,0.13405 -1.60804,0.0988 -1.60804,0.0634 -1.60804,0.0286 -1.60804,-0.006 -1.60804,-0.0404 -1.60804,-0.0742 -1.60804,-0.10726 -1.60804,-0.13965 -1.60804,-0.17121 -1.60804,-0.20191 -1.60804,-0.23158 -1.60804,-0.26023 -1.60804,-0.28778 -1.60804,-0.31411 -1.60804,-0.33921 -1.60804,-0.36306 -1.60804,-0.38561 -1.60804,-0.40679 -1.60804,-0.42667 -1.60804,-0.44514 -1.60804,-0.46228 -1.60804,-0.47805 -1.60804,-0.49248 -1.60804,-0.50554 -1.60804,-0.51737 -1.60804,-0.52786 -1.60804,-0.53716 -1.60804,-0.54525 -1.60804,-0.55222 -1.60804,-0.55805 -1.60804,-0.56287 -1.60805,-0.5667 -1.60804,-0.5696 -1.60804,-0.57165 -1.60804,-0.57284 -1.60804,-0.57331 -1.60804,-0.5731 -1.60804,-0.57223 -1.60804,-0.57078 -1.60804,-0.56877 -1.60804,-0.56634 -1.60804,-0.56342 -1.60804,-0.56015 -1.608038,-0.55648 -1.60804,-0.55255 -1.60804,-0.54829 -1.60804,-0.54379 -1.60804,-0.53908 -1.608041,-0.5341 -1.60804,-0.52898 -1.60804,-0.52365 -1.60804,-0.51816 -1.60804,-0.51249 -1.608041,-0.50667 -1.60804,-0.50068 -1.60804,-0.49454 -1.60804,-0.48822 -1.60804,-0.48175 -1.608041,-0.47511 -1.60804,-0.46829 -1.60804,-0.46127 -1.60804,-0.4541 -1.60804,-0.4467 -1.608041,-0.43915 -1.60804,-0.43136 -1.60804,-0.42339 -1.60804,-0.41521 -1.60804,-0.40685 -1.608041,-0.39827 -1.60804,-0.3895 -1.60804,-0.38056 -1.60804,-0.37143 -1.60804,-0.36214 -1.608041,-0.35268 -1.60804,-0.34308 -1.60804,-0.33337 -1.60804,-0.32353 -1.60804,-0.31358 -1.608041,-0.30358 -1.60804,-0.29352 -1.60804,-0.28341 -1.60804,-0.27329 -1.60804,-0.2632 -1.608041,-0.2531 -1.60804,-0.24307 -1.60804,-0.23312 -1.60804,-0.22325 -1.60804,-0.21348 -1.608041,-0.20388 -1.60804,-0.19439 -1.60804,-0.18508 -1.60804,-0.17598 -1.60804,-0.16708 -1.608041,-0.15836 -1.60804,-0.1499 -1.60804,-0.14166 -1.60804,-0.13368 -1.60804,-0.12598 -1.608041,-0.11791 -1.6080398,-0.11136 -1.6080402,-0.10443 -1.6080402,-0.0978 -1.6080402,-0.0914 -1.6080402,-0.0854 L 1.6080402,125.0772 0,125.00382 Z"
       inkscape:connector-curvature="0" />
    <path
       style="fill:#ff6f64;stroke:none"
       id="menu3"
       class="paths"
       d="m 0,122.01805 1.5800123,-0.009 1.5800123,-0.0102 1.5800123,-0.0109 1.5800123,-0.0119 1.5800123,-0.0128 1.5800123,-0.0139 1.5800122,-0.0149 1.580013,-0.016 1.580012,-0.0172 1.580012,-0.0185 1.580012,-0.0198 1.580012,-0.0214 1.580013,-0.0229 1.580012,-0.0246 1.580012,-0.0263 1.580013,-0.0283 1.580012,-0.0302 1.580013,-0.0323 1.580012,-0.0345 1.580012,-0.0369 1.580012,-0.0394 1.580012,-0.0419 1.580013,-0.0447 1.580012,-0.0475 1.580012,-0.0506 1.580012,-0.0537 1.580013,-0.0569 1.580013,-0.0604 1.580012,-0.0639 1.580012,-0.0675 1.580012,-0.0714 1.580012,-0.0753 1.580013,-0.0795 1.580012,-0.0836 1.580012,-0.088 1.580012,-0.0924 1.580012,-0.097 1.580014,-0.10166 1.580012,-0.10644 1.580012,-0.11131 1.580012,-0.11624 1.580012,-0.12127 1.580013,-0.12634 1.580012,-0.13145 1.580012,-0.1366 1.580012,-0.14176 1.580012,-0.14691 1.580014,-0.15208 1.580012,-0.15719 1.580012,-0.16225 1.580012,-0.16723 1.580012,-0.17213 1.580013,-0.17693 1.580012,-0.18156 1.580012,-0.18602 1.580012,-0.19034 1.580012,-0.19442 1.580013,-0.19825 1.580013,-0.20184 1.580012,-0.20512 1.580012,-0.20807 1.580012,-0.21068 1.58001,-0.21289 1.580008,-0.21471 1.58002,-0.21606 1.58001,-0.21695 1.58001,-0.21733 1.58001,-0.21717 1.58001,-0.21644 1.58002,-0.21513 1.58001,-0.21316 1.58001,-0.21057 1.58001,-0.20729 1.58002,-0.20329 1.58002,-0.19859 1.58001,-0.19313 1.58001,-0.18691 1.58001,-0.17992 1.58002,-0.17215 1.58001,-0.16358 1.58001,-0.15424 1.58001,-0.14408 1.58001,-0.13317 1.58002,-0.12148 1.58001,-0.10905 1.58001,-0.0959 1.58001,-0.082 1.58001,-0.0675 1.58002,-0.0524 1.58001,-0.0367 1.58001,-0.0205 1.58001,-0.004 1.58001,0.0131 1.58002,0.0305 1.58001,0.0481 1.58001,0.0658 1.58001,0.0837 1.58002,0.10147 1.58001,0.11921 1.58001,0.13675 1.58001,0.15403 1.58001,0.17095 1.58002,0.1874 1.58001,0.20329 1.58001,0.21858 1.58001,0.23311 1.58001,0.24685 1.58002,0.2597 1.58001,0.27161 1.58001,0.28249 1.58001,0.29228 1.58001,0.30096 1.58002,0.30844 1.58001,0.3147 1.58001,0.31972 1.58001,0.32345 1.58002,0.32592 1.58001,0.32709 1.58001,0.32697 1.58001,0.32558 1.58001,0.32294 1.58002,0.31909 1.58001,0.31407 1.58001,0.30787 1.58002,0.30062 1.58001,0.29233 1.58002,0.28305 1.58001,0.27293 1.58001,0.26194 1.58001,0.25023 1.58001,0.23784 1.58002,0.22488 1.58001,0.2114 1.58001,0.19751 1.58001,0.1833 1.58001,0.16885 1.58002,0.1542 1.58001,0.13952 1.58001,0.12478 1.58001,0.11013 1.58002,0.0956 1.58001,0.0813 1.58001,0.0673 1.58001,0.0536 1.58001,0.0403 1.58002,0.0274 1.58001,0.015 1.58001,0.004 1.58001,-0.008 1.58001,-0.019 1.58002,-0.0292 1.58001,-0.0387 1.58001,-0.0476 1.58001,-0.056 1.58001,-0.0635 1.58002,-0.0706 1.58001,-0.0769 1.58001,-0.0826 1.58001,-0.0877 1.58002,-0.0922 1.58001,-0.0961 1.58001,-0.0995 1.58001,-0.10228 1.58001,-0.10455 1.58002,-0.10634 1.58001,-0.10764 1.58001,-0.10849 1.58001,-0.10894 1.58001,-0.10897 1.58002,-0.10867 1.58001,-0.108 1.58001,-0.10704 1.58001,-0.1058 1.58001,-0.10428 1.58003,-0.10255 1.58001,-0.10061 1.58001,-0.0985 1.58001,-0.0962 1.58001,-0.0938 1.58002,-0.0913 1.58001,-0.0886 1.58001,-0.0859 1.58001,-0.0831 1.58002,-0.0804 1.58001,-0.0775 1.58001,-0.0746 1.58001,-0.0717 1.58001,-0.0689 1.58002,-0.0661 1.58001,-0.0632 1.58001,-0.0605 1.58001,-0.0577 1.58001,-0.055 1.58002,-0.0524 1.58001,-0.0498 1.58001,-0.0474 1.58001,-0.045 1.58001,-0.0426 1.58002,-0.0403 0,0.1162 -1.58002,0.0519 -1.58001,0.0552 -1.58001,0.0586 -1.58001,0.0622 -1.58001,0.066 -1.58002,0.0699 -1.58001,0.0739 -1.58001,0.0782 -1.58001,0.0825 -1.58001,0.087 -1.58002,0.0916 -1.58001,0.0963 -1.58001,0.10119 -1.58001,0.10621 -1.58001,0.11132 -1.58002,0.11655 -1.58001,0.12188 -1.58001,0.12728 -1.58001,0.13275 -1.58002,0.13829 -1.58001,0.14387 -1.58001,0.14945 -1.58001,0.15506 -1.58001,0.16064 -1.58003,0.16619 -1.58001,0.17166 -1.58001,0.17709 -1.58001,0.18236 -1.58001,0.18754 -1.58002,0.19253 -1.58001,0.19732 -1.58001,0.20191 -1.58001,0.20622 -1.58001,0.21028 -1.58002,0.21401 -1.58001,0.21739 -1.58001,0.2204 -1.58001,0.22299 -1.58001,0.22517 -1.58002,0.22685 -1.58001,0.22806 -1.58001,0.22874 -1.58001,0.22888 -1.58002,0.22843 -1.58001,0.2274 -1.58001,0.22577 -1.58001,0.22351 -1.58001,0.22062 -1.58002,0.21709 -1.58001,0.2129 -1.58001,0.20807 -1.58001,0.20259 -1.58001,0.19648 -1.58002,0.18976 -1.58001,0.18243 -1.58001,0.1745 -1.58001,0.16604 -1.58001,0.15704 -1.58002,0.14758 -1.58001,0.13765 -1.58001,0.12735 -1.58001,0.1167 -1.58002,0.10575 -1.58001,0.0946 -1.58001,0.0832 -1.58001,0.0718 -1.58001,0.0603 -1.58002,0.0488 -1.58001,0.0375 -1.58001,0.0262 -1.58001,0.0154 -1.58001,0.005 -1.58002,-0.005 -1.58001,-0.0151 -1.58002,-0.0244 -1.58001,-0.033 -1.58001,-0.0411 -1.58002,-0.0484 -1.58001,-0.055 -1.58001,-0.0607 -1.58001,-0.0656 -1.58001,-0.0695 -1.58002,-0.0727 -1.58001,-0.0749 -1.58001,-0.0761 -1.58001,-0.0764 -1.58002,-0.0759 -1.58001,-0.0743 -1.58001,-0.0718 -1.58001,-0.0685 -1.58001,-0.0643 -1.58002,-0.0593 -1.58001,-0.0536 -1.58001,-0.0471 -1.58001,-0.0399 -1.58001,-0.0323 -1.58002,-0.024 -1.58001,-0.0153 -1.58001,-0.006 -1.58001,0.004 -1.58001,0.0126 -1.58002,0.0221 -1.58001,0.0318 -1.58001,0.0415 -1.58001,0.0509 -1.58002,0.0602 -1.58001,0.0691 -1.58001,0.0776 -1.58001,0.0858 -1.58001,0.0934 -1.58002,0.10037 -1.58001,0.10673 -1.58001,0.11238 -1.58001,0.11729 -1.58001,0.12138 -1.58002,0.12467 -1.58001,0.12708 -1.58001,0.1286 -1.58001,0.12924 -1.58001,0.12896 -1.58002,0.12775 -1.58001,0.12566 -1.58001,0.12265 -1.58001,0.11878 -1.58002,0.11401 -1.58002,0.10846 -1.58001,0.10207 -1.58001,0.0949 -1.58001,0.0871 -1.58002,0.0785 -1.58001,0.0694 -1.58001,0.0597 -1.58001,0.0496 -1.58001,0.039 -1.58002,0.0279 -1.580008,0.0166 -1.58001,0.005 -1.580012,-0.006 -1.580012,-0.0186 -1.580012,-0.0307 -1.580013,-0.0426 -1.580013,-0.0545 -1.580012,-0.0661 -1.580012,-0.0777 -1.580012,-0.089 -1.580012,-0.10003 -1.580013,-0.11067 -1.580012,-0.12091 -1.580012,-0.13073 -1.580012,-0.14006 -1.580012,-0.14884 -1.580014,-0.1571 -1.580012,-0.16475 -1.580012,-0.17182 -1.580012,-0.17827 -1.580012,-0.18405 -1.580013,-0.18921 -1.580012,-0.19367 -1.580012,-0.19752 -1.580012,-0.20069 -1.580012,-0.20319 -1.580014,-0.20507 -1.580012,-0.20632 -1.580012,-0.20693 -1.580012,-0.20695 -1.580012,-0.20642 -1.580013,-0.20531 -1.580012,-0.20367 -1.580012,-0.20155 -1.580012,-0.19896 -1.580012,-0.19592 -1.580013,-0.19249 -1.580013,-0.18867 -1.580012,-0.18454 -1.580012,-0.1801 -1.580012,-0.17536 -1.580013,-0.17041 -1.580012,-0.16524 -1.580012,-0.15992 -1.580012,-0.15444 -1.580012,-0.14888 -1.580013,-0.14321 -1.580012,-0.1375 -1.580013,-0.13177 -1.580012,-0.12603 -1.580012,-0.12033 -1.580013,-0.11468 -1.580012,-0.10907 -1.580012,-0.10357 -1.580012,-0.0982 -1.580012,-0.0929 -1.580013,-0.0877 -1.5800122,-0.0827 -1.5800123,-0.0778 -1.5800123,-0.0731 -1.5800123,-0.0685 -1.5800123,-0.0642 -1.5800123,-0.06 L 0,122.75087 Z"
       inkscape:connector-curvature="0" />
    <path
       style="fill:#c4fa79;stroke:none"
       id="menu4"
       class="paths"
       d="m 0,118.81003 1.6080402,-0.0322 1.6080402,-0.0349 1.6080402,-0.0376 1.6080402,-0.0405 1.6080402,-0.0436 1.6080402,-0.047 1.6080398,-0.0505 1.608041,-0.0543 1.60804,-0.0583 1.60804,-0.0625 1.60804,-0.0669 1.60804,-0.0716 1.608041,-0.0765 1.60804,-0.0817 1.60804,-0.0871 1.60804,-0.0928 1.60804,-0.0989 1.608041,-0.10514 1.60804,-0.11171 1.60804,-0.11856 1.60804,-0.12572 1.60804,-0.13314 1.608041,-0.14088 1.60804,-0.1489 1.60804,-0.15722 1.60804,-0.16582 1.60804,-0.17472 1.608041,-0.18388 1.60804,-0.19332 1.60804,-0.20305 1.60804,-0.21302 1.60804,-0.22324 1.608041,-0.23369 1.60804,-0.24439 1.60804,-0.25529 1.60804,-0.2664 1.60804,-0.27767 1.608041,-0.28912 1.60804,-0.30073 1.60804,-0.31245 1.60804,-0.32428 1.60804,-0.3362 1.608041,-0.34819 1.60804,-0.36021 1.60804,-0.37224 1.60804,-0.38429 1.60804,-0.39628 1.608041,-0.40823 1.60804,-0.42008 1.60804,-0.43182 1.60804,-0.44342 1.60804,-0.45483 1.608041,-0.46607 1.60804,-0.47706 1.60804,-0.4878 1.60804,-0.49824 1.60804,-0.50837 1.608041,-0.51813 1.60804,-0.52753 1.60804,-0.5365 1.60804,-0.54502 1.60804,-0.55306 1.608038,-0.56058 1.60804,-0.56755 1.60804,-0.57394 1.60804,-0.5797 1.60804,-0.5848 1.60804,-0.589229 1.60804,-0.59291 1.60804,-0.595833 1.60804,-0.597954 1.60804,-0.599237 1.60804,-0.599647 1.60804,-0.599149 1.60805,-0.597706 1.60804,-0.595287 1.60804,-0.59186 1.60804,-0.587391 1.60804,-0.581857 1.60804,-0.575225 1.60804,-0.567478 1.60804,-0.55859 1.60804,-0.548549 1.60804,-0.537341 1.60804,-0.524954 1.60804,-0.511386 1.60804,-0.496639 1.60804,-0.480718 1.60804,-0.463634 1.60804,-0.445402 1.60804,-0.426051 1.60804,-0.405606 1.60804,-0.384101 1.60804,-0.36158 1.60804,-0.338089 1.60804,-0.313682 1.60804,-0.288417 1.60804,-0.262359 1.60804,-0.235578 1.60804,-0.208147 1.60804,-0.180146 1.60804,-0.151659 1.60804,-0.12277 1.60804,-0.09357 1.60804,-0.06414 1.60804,-0.0346 1.60804,-0.005 1.60804,0.0245 1.60804,0.05387 1.60804,0.08298 1.60804,0.111757 1.60804,0.140102 1.60804,0.167929 1.60804,0.195153 1.60804,0.221698 1.60804,0.247484 1.60804,0.272443 1.60804,0.296508 1.60804,0.319618 1.60804,0.341721 1.60804,0.362764 1.60804,0.382707 1.60804,0.401511 1.60804,0.419149 1.60805,0.435594 1.60804,0.450826 1.60804,0.464837 1.60804,0.477617 1.60804,0.489169 1.60804,0.499492 1.60804,0.508601 1.60804,0.516507 1.60804,0.523232 1.60804,0.528797 1.60804,0.53323 1.60804,0.536562 1.60804,0.538826 1.60804,0.540058 1.60804,0.540299 1.60804,0.539588 1.60804,0.537967 1.60804,0.535482 1.60804,0.532175 1.60804,0.528094 1.60804,0.523284 1.60804,0.517792 1.60804,0.511661 1.60804,0.504943 1.60804,0.49767 1.60804,0.48991 1.60804,0.48168 1.60804,0.47304 1.60804,0.46402 1.60804,0.45467 1.60804,0.44502 1.60804,0.43512 1.60804,0.42499 1.60804,0.41468 1.60804,0.40421 1.60804,0.39361 1.60804,0.38292 1.60804,0.37217 1.60804,0.36138 1.60804,0.35056 1.60804,0.33978 1.60804,0.329 1.60804,0.31829 1.60804,0.30765 1.60804,0.2971 1.60804,0.28665 1.60804,0.27633 1.60804,0.26615 1.60804,0.25611 1.60804,0.24624 1.60805,0.23654 1.60804,0.22702 1.60804,0.2177 1.60804,0.20858 1.60804,0.19966 1.60804,0.19096 1.60804,0.18247 1.60804,0.17421 1.60804,0.16617 1.60804,0.15838 1.60804,0.15079 1.60804,0.14346 1.60804,0.13637 1.60804,0.12948 1.60804,0.12285 1.60804,0.11646 1.60804,0.11029 1.60804,0.10434 1.60804,0.0987 1.60804,0.0932 1.60804,0.0879 1.60804,0.0829 1.60804,0.078 1.60804,0.0734 1.60804,0.0691 0,1.60528 -1.60804,0.051 -1.60804,0.0538 -1.60804,0.0568 -1.60804,0.0599 -1.60804,0.063 -1.60804,0.0663 -1.60804,0.0696 -1.60804,0.073 -1.60804,0.0765 -1.60804,0.08 -1.60804,0.0836 -1.60804,0.0872 -1.60804,0.0908 -1.60804,0.0944 -1.60804,0.098 -1.60804,0.10163 -1.60804,0.1052 -1.60804,0.10871 -1.60804,0.11213 -1.60804,0.11548 -1.60804,0.11867 -1.60804,0.12174 -1.60804,0.12463 -1.60804,0.12731 -1.60805,0.12977 -1.60804,0.13197 -1.60804,0.13387 -1.60804,0.13544 -1.60804,0.13667 -1.60804,0.1375 -1.60804,0.1379 -1.60804,0.13784 -1.60804,0.13729 -1.60804,0.1362 -1.60804,0.13455 -1.60804,0.1323 -1.60804,0.12942 -1.60804,0.12587 -1.60804,0.12164 -1.60804,0.11668 -1.60804,0.11098 -1.60804,0.10453 -1.60804,0.0973 -1.60804,0.0892 -1.60804,0.0804 -1.60804,0.0708 -1.60804,0.0602 -1.60804,0.049 -1.60804,0.0369 -1.60804,0.024 -1.60804,0.0104 -1.60804,-0.004 -1.60804,-0.019 -1.60804,-0.0347 -1.60804,-0.051 -1.60804,-0.0678 -1.60804,-0.0852 -1.60804,-0.10291 -1.60804,-0.12101 -1.60804,-0.13936 -1.60804,-0.1579 -1.60804,-0.17653 -1.60804,-0.19514 -1.60804,-0.21365 -1.60804,-0.23194 -1.60804,-0.24994 -1.60804,-0.2675 -1.60804,-0.28455 -1.60804,-0.30096 -1.60804,-0.31663 -1.60804,-0.33146 -1.60804,-0.34535 -1.60804,-0.35819 -1.60804,-0.3699 -1.60805,-0.38039 -1.60804,-0.38958 -1.60804,-0.39741 -1.60804,-0.40377 -1.60804,-0.40865 -1.60804,-0.41198 -1.60804,-0.41375 -1.60804,-0.41388 -1.60804,-0.41241 -1.60804,-0.4093 -1.60804,-0.40455 -1.60804,-0.39822 -1.60804,-0.3903 -1.60804,-0.38082 -1.60804,-0.36985 -1.60804,-0.35747 -1.60804,-0.34369 -1.60804,-0.32862 -1.60804,-0.31236 -1.60804,-0.29497 -1.60804,-0.27658 -1.60804,-0.25724 -1.60804,-0.23713 -1.60804,-0.21631 -1.60804,-0.19491 -1.60804,-0.17306 -1.60804,-0.15084 -1.60804,-0.1284 -1.60804,-0.10583 -1.60804,-0.0833 -1.60804,-0.0608 -1.60804,-0.0385 -1.60804,-0.0166 -1.60804,0.005 -1.60804,0.026 -1.60804,0.0465 -1.60804,0.0663 -1.60804,0.0855 -1.60804,0.10382 -1.60804,0.12134 -1.60804,0.13799 -1.60804,0.15372 -1.60804,0.16851 -1.60804,0.18232 -1.60804,0.19516 -1.60804,0.207 -1.60804,0.21783 -1.60804,0.22767 -1.60804,0.23652 -1.60804,0.24438 -1.60805,0.25128 -1.60804,0.25725 -1.60804,0.26229 -1.60804,0.26645 -1.60804,0.26974 -1.60804,0.27221 -1.60804,0.27388 -1.60804,0.2748 -1.60804,0.27501 -1.60804,0.27452 -1.60804,0.27341 -1.60804,0.27169 -1.608038,0.26939 -1.60804,0.26659 -1.60804,0.26329 -1.60804,0.25955 -1.60804,0.2554 -1.608041,0.25086 -1.60804,0.24601 -1.60804,0.24085 -1.60804,0.2354 -1.60804,0.22975 -1.608041,0.22386 -1.60804,0.21782 -1.60804,0.21162 -1.60804,0.2053 -1.60804,0.19891 -1.608041,0.19243 -1.60804,0.18591 -1.60804,0.17938 -1.60804,0.17285 -1.60804,0.16634 -1.608041,0.15986 -1.60804,0.15344 -1.60804,0.1471 -1.60804,0.14084 -1.60804,0.13469 -1.608041,0.12864 -1.60804,0.12273 -1.60804,0.11694 -1.60804,0.1113 -1.60804,0.10581 -1.608041,0.10048 -1.60804,0.0953 -1.60804,0.0903 -1.60804,0.0855 -1.60804,0.0808 -1.608041,0.0764 -1.60804,0.072 -1.60804,0.0679 -1.60804,0.064 -1.60804,0.0602 -1.608041,0.0566 -1.60804,0.0531 -1.60804,0.0498 -1.60804,0.0467 -1.60804,0.0437 -1.608041,0.0409 -1.60804,0.0382 -1.60804,0.0357 -1.60804,0.0334 -1.60804,0.0312 -1.608041,0.029 -1.60804,0.027 -1.60804,0.0251 -1.60804,0.0234 -1.60804,0.0218 -1.608041,0.0202 -1.6080398,0.0188 -1.6080402,0.0175 -1.6080402,0.0162 -1.6080402,0.015 -1.6080402,0.0139 -1.6080402,0.0129 L 0,119.0247 Z"
       inkscape:connector-curvature="0" />
    <path
       style="fill:#61c0e9;fill-opacity:1;stroke:none"
       id="menu5"
       class="paths"
       d="m 0,117.53511 1.6080402,-0.13774 1.6080402,-0.14887 1.6080402,-0.16068 1.6080402,-0.17315 1.6080402,-0.18633 1.6080402,-0.2002 1.6080398,-0.21479 1.608041,-0.23009 1.60804,-0.24611 1.60804,-0.26286 1.60804,-0.28032 1.60804,-0.29849 1.608041,-0.31735 1.60804,-0.3369 1.60804,-0.35711 1.60804,-0.37795 1.60804,-0.3994 1.608041,-0.42142 1.60804,-0.44398 1.60804,-0.46704 1.60804,-0.49053 1.60804,-0.51442 1.608041,-0.53865 1.60804,-0.56315 1.60804,-0.58787 1.60804,-0.61273 1.60804,-0.63766 1.608041,-0.66259 1.60804,-0.68745 1.60804,-0.71214 1.60804,-0.73659 1.60804,-0.76072 1.608041,-0.78445 1.60804,-0.80769 1.60804,-0.83036 1.60804,-0.85238 1.60804,-0.87366 1.608041,-0.894136 1.60804,-0.913723 1.60804,-0.932355 1.60804,-0.94996 1.60804,-0.966479 1.608041,-0.981849 1.60804,-0.996019 1.60804,-1.008941 1.60804,-1.020574 1.60804,-1.030881 1.608041,-1.039835 1.60804,-1.047412 1.60804,-1.053598 1.60804,-1.058383 1.60804,-1.061764 1.608041,-1.063745 1.60804,-1.064336 1.60804,-1.063553 1.60804,-1.061415 1.60804,-1.05795 1.608041,-1.053187 1.60804,-1.047157 1.60804,-1.039902 1.60804,-1.031456 1.60804,-1.021863 1.608038,-1.011165 1.60804,-0.999402 1.60804,-0.98662 1.60804,-0.972856 1.60804,-0.958153 1.60804,-0.942545 1.60804,-0.926069 1.60804,-0.908755 1.60804,-0.890631 1.60804,-0.87172 1.60804,-0.852042 1.60804,-0.831611 1.60805,-0.810439 1.60804,-0.788531 1.60804,-0.765888 1.60804,-0.742509 1.60804,-0.71839 1.60804,-0.693517 1.60804,-0.667884 1.60804,-0.641471 1.60804,-0.614268 1.60804,-0.586254 1.60804,-0.557415 1.60804,-0.527735 1.60804,-0.497198 1.60804,-0.465794 1.60804,-0.433512 1.60804,-0.400347 1.60804,-0.366298 1.60804,-0.33137 1.60804,-0.29557 1.60804,-0.258916 1.60804,-0.221432 1.60804,-0.183144 1.60804,-0.144093 1.60804,-0.104321 1.60804,-0.06388 1.60804,-0.02283 1.60804,0.01876 1.60804,0.06082 1.60804,0.103265 1.60804,0.14601 1.60804,0.18896 1.60804,0.232019 1.60804,0.275082 1.60804,0.318041 1.60804,0.360787 1.60804,0.403205 1.60804,0.44518 1.60804,0.486599 1.60804,0.527344 1.60804,0.5673 1.60804,0.606356 1.60804,0.644397 1.60804,0.68132 1.60804,0.717018 1.60804,0.751393 1.60804,0.784353 1.60804,0.815807 1.60804,0.845675 1.60804,0.873882 1.60804,0.900362 1.60805,0.925053 1.60804,0.947905 1.60804,0.968873 1.60804,0.987921 1.60804,1.005022 1.60804,1.020157 1.60804,1.033315 1.60804,1.044494 1.60804,1.053697 1.60804,1.060938 1.60804,1.066238 1.60804,1.069624 1.60804,1.07113 1.60804,1.070798 1.60804,1.068673 1.60804,1.064809 1.60804,1.059264 1.60804,1.052099 1.60804,1.043384 1.60804,1.033186 1.60804,1.021582 1.60804,1.008647 1.60804,0.994462 1.60804,0.979105 1.60804,0.962663 1.60804,0.945217 1.60804,0.926851 1.60804,0.907649 1.60804,0.887698 1.60804,0.867077 1.60804,0.84587 1.60804,0.82416 1.60804,0.802024 1.60804,0.779537 1.60804,0.756779 1.60804,0.733818 1.60804,0.710725 1.60804,0.687568 1.60804,0.664401 1.60804,0.64131 1.60804,0.61833 1.60804,0.5955 1.60804,0.57291 1.60804,0.55058 1.60804,0.52856 1.60804,0.50689 1.60804,0.4856 1.60804,0.46472 1.60804,0.4443 1.60804,0.42434 1.60805,0.40488 1.60804,0.38592 1.60804,0.36751 1.60804,0.34963 1.60804,0.33231 1.60804,0.31553 1.60804,0.29934 1.60804,0.28371 1.60804,0.26865 1.60804,0.25415 1.60804,0.24022 1.60804,0.22686 1.60804,0.21405 1.60804,0.20178 1.60804,0.19005 1.60804,0.17885 1.60804,0.16816 1.60804,0.15798 1.60804,0.14829 1.60804,0.13907 1.60804,0.13032 1.60804,0.12201 1.60804,0.11415 1.60804,0.10669 1.60804,0.0996 0,0.12794 -1.60804,-0.084 -1.60804,-0.0893 -1.60804,-0.0949 -1.60804,-0.10082 -1.60804,-0.10694 -1.60804,-0.11334 -1.60804,-0.12002 -1.60804,-0.12695 -1.60804,-0.13418 -1.60804,-0.14168 -1.60804,-0.14947 -1.60804,-0.15753 -1.60804,-0.1659 -1.60804,-0.17454 -1.60804,-0.18346 -1.60804,-0.19268 -1.60804,-0.20217 -1.60804,-0.21195 -1.60804,-0.222 -1.60804,-0.23232 -1.60804,-0.24291 -1.60804,-0.25376 -1.60804,-0.26486 -1.60804,-0.2762 -1.60805,-0.28778 -1.60804,-0.29958 -1.60804,-0.31159 -1.60804,-0.3238 -1.60804,-0.33619 -1.60804,-0.34875 -1.60804,-0.36146 -1.60804,-0.37429 -1.60804,-0.38724 -1.60804,-0.40027 -1.60804,-0.41338 -1.60804,-0.4265 -1.60804,-0.43966 -1.60804,-0.45279 -1.60804,-0.46588 -1.60804,-0.47887 -1.60804,-0.49177 -1.60804,-0.50451 -1.60804,-0.51705 -1.60804,-0.529371 -1.60804,-0.541425 -1.60804,-0.553162 -1.60804,-0.564537 -1.60804,-0.575508 -1.60804,-0.586022 -1.60804,-0.59603 -1.60804,-0.605482 -1.60804,-0.614323 -1.60804,-0.622499 -1.60804,-0.629957 -1.60804,-0.636639 -1.60804,-0.642491 -1.60804,-0.647456 -1.60804,-0.651479 -1.60804,-0.654503 -1.60804,-0.656474 -1.60804,-0.65734 -1.60804,-0.657047 -1.60804,-0.655547 -1.60804,-0.652794 -1.60804,-0.648739 -1.60804,-0.643347 -1.60804,-0.636575 -1.60804,-0.628394 -1.60804,-0.618775 -1.60804,-0.607694 -1.60804,-0.595133 -1.60804,-0.58108 -1.60804,-0.565531 -1.60804,-0.548485 -1.60805,-0.529953 -1.60804,-0.509946 -1.60804,-0.488488 -1.60804,-0.465609 -1.60804,-0.441347 -1.60804,-0.415745 -1.60804,-0.388855 -1.60804,-0.360738 -1.60804,-0.33146 -1.60804,-0.301095 -1.60804,-0.269722 -1.60804,-0.237428 -1.60804,-0.204306 -1.60804,-0.170451 -1.60804,-0.135967 -1.60804,-0.100959 -1.60804,-0.06554 -1.60804,-0.02981 -1.60804,0.0061 -1.60804,0.0421 -1.60804,0.07804 -1.60804,0.113839 -1.60804,0.149364 -1.60804,0.184512 -1.60804,0.21917 -1.60804,0.253236 -1.60804,0.286609 -1.60804,0.319192 -1.60804,0.350895 -1.60804,0.381632 -1.60804,0.411327 -1.60804,0.439906 -1.60804,0.467306 -1.60804,0.493469 -1.60804,0.518343 -1.60804,0.541887 -1.60804,0.564067 -1.60804,0.584852 -1.60804,0.604222 -1.60804,0.622164 -1.60804,0.638671 -1.60804,0.65374 -1.60804,0.667377 -1.60804,0.679594 -1.60804,0.690406 -1.60804,0.699832 -1.60804,0.707899 -1.60804,0.714633 -1.60804,0.72007 -1.60804,0.72424 -1.60805,0.727183 -1.60804,0.728937 -1.60804,0.729544 -1.60804,0.729045 -1.60804,0.727484 -1.60804,0.724904 -1.60804,0.721348 -1.60804,0.716863 -1.60804,0.711491 -1.60804,0.705276 -1.60804,0.698264 -1.60804,0.690494 -1.608038,0.682014 -1.60804,0.672867 -1.60804,0.66308 -1.60804,0.65272 -1.60804,0.6418 -1.608041,0.63038 -1.60804,0.61849 -1.60804,0.60617 -1.60804,0.59347 -1.60804,0.5804 -1.608041,0.56703 -1.60804,0.55336 -1.60804,0.53947 -1.60804,0.52536 -1.60804,0.51108 -1.608041,0.49666 -1.60804,0.48213 -1.60804,0.46753 -1.60804,0.45288 -1.60804,0.43824 -1.608041,0.42361 -1.60804,0.40903 -1.60804,0.39453 -1.60804,0.38013 -1.60804,0.36587 -1.608041,0.35175 -1.60804,0.33783 -1.60804,0.3241 -1.60804,0.31059 -1.60804,0.29733 -1.608041,0.28432 -1.60804,0.2716 -1.60804,0.25916 -1.60804,0.24703 -1.60804,0.2352 -1.608041,0.22372 -1.60804,0.21256 -1.60804,0.20174 -1.60804,0.19128 -1.60804,0.18116 -1.608041,0.17139 -1.60804,0.16199 -1.60804,0.15295 -1.60804,0.14424 -1.60804,0.13591 -1.608041,0.12792 -1.60804,0.12028 -1.60804,0.11297 -1.60804,0.10601 -1.60804,0.0994 -1.608041,0.0931 -1.60804,0.0871 -1.60804,0.0814 -1.60804,0.076 -1.60804,0.0709 -1.608041,0.066 -1.6080398,0.0615 -1.6080402,0.0572 -1.6080402,0.0531 -1.6080402,0.0493 -1.6080402,0.0457 -1.6080402,0.0424 L 0,118.53173 Z"
       inkscape:connector-curvature="0" />
  </g>
</svg>
