<?xml version="1.0" encoding="UTF-8" standalone="no"?>
<svg
   xmlns:dc="http://purl.org/dc/elements/1.1/"
   xmlns:cc="http://creativecommons.org/ns#"
   xmlns:rdf="http://www.w3.org/1999/02/22-rdf-syntax-ns#"
   xmlns:svg="http://www.w3.org/2000/svg"
   xmlns="http://www.w3.org/2000/svg"
   xmlns:sodipodi="http://sodipodi.sourceforge.net/DTD/sodipodi-0.dtd"
   xmlns:inkscape="http://www.inkscape.org/namespaces/inkscape"
   width="320"
   height="250"
   id="svg"
   style="stroke: rgb(255, 255, 255); stroke-width: 5px;"
   version="1.1"
   inkscape:version="0.91 r13725"
   sodipodi:docname="jsmoon_logo.svg">
  <metadata
     id="metadata4720">
    <rdf:RDF>
      <cc:Work
         rdf:about="">
        <dc:format>image/svg+xml</dc:format>
        <dc:type
           rdf:resource="http://purl.org/dc/dcmitype/StillImage" />
      </cc:Work>
    </rdf:RDF>
  </metadata>
  <defs
     id="defs4718" />
  <sodipodi:namedview
     pagecolor="#ffffff"
     bordercolor="#666666"
     borderopacity="1"
     objecttolerance="10"
     gridtolerance="10"
     guidetolerance="10"
     inkscape:pageopacity="0"
     inkscape:pageshadow="2"
     inkscape:window-width="1265"
     inkscape:window-height="829"
     id="namedview4716"
     showgrid="false"
     inkscape:zoom="0.944"
     inkscape:cx="158.94068"
     inkscape:cy="125"
     inkscape:window-x="0"
     inkscape:window-y="0"
     inkscape:window-maximized="0"
     inkscape:current-layer="pathsWrapper" />
  <g
     id="pathsWrapper">
    <path
       d="m 0,119.9571 1.6080402,0.091 1.6080402,0.0977 1.6080402,0.10483 1.6080402,0.11226 1.6080402,0.12005 1.6080402,0.12818 1.6080398,0.13665 1.608041,0.14546 1.60804,0.15461 1.60804,0.16407 1.60804,0.17387 1.60804,0.18397 1.608041,0.19436 1.60804,0.20504 1.60804,0.21598 1.60804,0.22716 1.60804,0.23858 1.608041,0.25021 1.60804,0.26201 1.60804,0.27399 1.60804,0.28611 1.60804,0.29832 1.608041,0.31064 1.60804,0.32301 1.60804,0.33542 1.60804,0.34783 1.60804,0.36023 1.608041,0.37259 1.60804,0.38486 1.60804,0.39706 1.60804,0.40914 1.60804,0.42106 1.608041,0.43285 1.60804,0.44445 1.60804,0.45586 1.60804,0.46706 1.60804,0.47804 1.608041,0.4888 1.60804,0.49932 1.60804,0.50959 1.60804,0.51963 1.60804,0.52941 1.608041,0.53896 1.60804,0.54825 1.60804,0.5573 1.60804,0.56613 1.60804,0.57473 1.608041,0.5831 1.60804,0.59125 1.60804,0.59921 1.60804,0.60694 1.60804,0.61449 1.608041,0.62184 1.60804,0.62898 1.60804,0.63593 1.60804,0.64268 1.60804,0.64921 1.608041,0.65552 1.60804,0.66159 1.60804,0.6674 1.60804,0.67292 1.60804,0.67814 1.608038,0.68298 1.60804,0.68746 1.60804,0.6915 1.60804,0.69506 1.60804,0.69807 1.60804,0.70051 1.60804,0.70229 1.60804,0.70336 1.60804,0.70363 1.60804,0.70306 1.60804,0.70157 1.60804,0.69907 1.60805,0.69552 1.60804,0.69081 1.60804,0.68491 1.60804,0.67772 1.60804,0.66919 1.60804,0.65926 1.60804,0.64785 1.60804,0.63495 1.60804,0.62047 1.60804,0.60441 1.60804,0.58671 1.60804,0.56735 1.60804,0.54634 1.60804,0.52364 1.60804,0.49927 1.60804,0.47325 1.60804,0.44559 1.60804,0.41632 1.60804,0.3855 1.60804,0.35317 1.60804,0.31939 1.60804,0.28423 1.60804,0.24779 1.60804,0.21014 1.60804,0.17139 1.60804,0.13163 1.60804,0.091 1.60804,0.0496 1.60804,0.008 1.60804,-0.0351 1.60804,-0.078 1.60804,-0.12121 1.60804,-0.16452 1.60804,-0.20779 1.60804,-0.25089 1.60804,-0.29367 1.60804,-0.336 1.60804,-0.37774 1.60804,-0.41876 1.60804,-0.45893 1.60804,-0.4981 1.60804,-0.5362 1.60804,-0.57306 1.60804,-0.60862 1.60804,-0.64275 1.60804,-0.67538 1.60804,-0.70639 1.60804,-0.73573 1.60804,-0.76334 1.60804,-0.78914 1.60805,-0.81308 1.60804,-0.83514 1.60804,-0.85526 1.60804,-0.87345 1.60804,-0.88965 1.60804,-0.9039 1.60804,-0.91617 1.60804,-0.92649 1.60804,-0.93488 1.60804,-0.94134 1.60804,-0.94594 1.60804,-0.9487 1.60804,-0.94965 1.60804,-0.94888 1.60804,-0.94642 1.60804,-0.94233 1.60804,-0.93671 1.60804,-0.92958 1.60804,-0.92105 1.60804,-0.91119 1.60804,-0.90007 1.60804,-0.88777 1.60804,-0.87437 1.60804,-0.85996 1.60804,-0.84462 1.60804,-0.82843 1.60804,-0.81148 1.60804,-0.79382 1.60804,-0.77558 1.60804,-0.75678 1.60804,-0.73755 1.60804,-0.71794 1.60804,-0.698 1.60804,-0.67784 1.60804,-0.6575 1.60804,-0.63705 1.60804,-0.61654 1.60804,-0.59606 1.60804,-0.57562 1.60804,-0.55529 1.60804,-0.53513 1.60804,-0.51517 1.60804,-0.49544 1.60804,-0.476 1.60804,-0.45686 1.60804,-0.43807 1.60804,-0.41965 1.60804,-0.40162 1.60804,-0.384 1.60804,-0.36683 1.60805,-0.35008 1.60804,-0.33382 1.60804,-0.31801 1.60804,-0.3027 1.60804,-0.28785 1.60804,-0.27351 1.60804,-0.25966 1.60804,-0.24629 1.60804,-0.23342 1.60804,-0.22103 1.60804,-0.20913 1.60804,-0.1977 1.60804,-0.18674 1.60804,-0.17625 1.60804,-0.16621 1.60804,-0.15661 1.60804,-0.14745 1.60804,-0.13871 1.60804,-0.13038 1.60804,-0.12246 1.60804,-0.11492 1.60804,-0.10776 1.60804,-0.10097 1.60804,-0.0945 1.60804,-0.0884 0,0.15703 -1.60804,0.10364 -1.60804,0.1111 -1.60804,0.119 -1.60804,0.12736 -1.60804,0.13621 -1.60804,0.14558 -1.60804,0.15547 -1.60804,0.1659 -1.60804,0.17692 -1.60804,0.18851 -1.60804,0.20073 -1.60804,0.21358 -1.60804,0.22708 -1.60804,0.24125 -1.60804,0.25611 -1.60804,0.2717 -1.60804,0.28801 -1.60804,0.30506 -1.60804,0.32288 -1.60804,0.34148 -1.60804,0.36086 -1.60804,0.38105 -1.60804,0.40204 -1.60804,0.42385 -1.60805,0.44647 -1.60804,0.46993 -1.60804,0.49418 -1.60804,0.51927 -1.60804,0.54514 -1.60804,0.57182 -1.60804,0.59926 -1.60804,0.62746 -1.60804,0.65638 -1.60804,0.686 -1.60804,0.71628 -1.60804,0.74718 -1.60804,0.77866 -1.60804,0.81065 -1.60804,0.8431 -1.60804,0.87596 -1.60804,0.90915 -1.60804,0.94259 -1.60804,0.9762 -1.60804,1.00991 -1.60804,1.04361 -1.60804,1.0772 -1.60804,1.11058 -1.60804,1.14365 -1.60804,1.17628 -1.60804,1.20838 -1.60804,1.23979 -1.60804,1.2704 -1.60804,1.3001 -1.60804,1.32873 -1.60804,1.35618 -1.60804,1.38228 -1.60804,1.40695 -1.60804,1.43 -1.60804,1.45132 -1.60804,1.47079 -1.60804,1.48827 -1.60804,1.50361 -1.60804,1.51674 -1.60804,1.5275 -1.60804,1.53579 -1.60804,1.54152 -1.60804,1.54459 -1.60804,1.5449 -1.60804,1.5424 -1.60804,1.53699 -1.60804,1.52865 -1.60804,1.5173 -1.60804,1.50293 -1.60804,1.48552 -1.60805,1.46504 -1.60804,1.44153 -1.60804,1.41497 -1.60804,1.38542 -1.60804,1.35291 -1.60804,1.3175 -1.60804,1.27927 -1.60804,1.23829 -1.60804,1.19466 -1.60804,1.14848 -1.60804,1.09988 -1.60804,1.04897 -1.60804,0.99591 -1.60804,0.94081 -1.60804,0.88385 -1.60804,0.82518 -1.60804,0.76497 -1.60804,0.70337 -1.60804,0.64059 -1.60804,0.57676 -1.60804,0.51208 -1.60804,0.44674 -1.60804,0.38088 -1.60804,0.31471 -1.60804,0.24837 -1.60804,0.18205 -1.60804,0.1159 -1.60804,0.0501 -1.60804,-0.0152 -1.60804,-0.0799 -1.60804,-0.14386 -1.60804,-0.20687 -1.60804,-0.26887 -1.60804,-0.32973 -1.60804,-0.38934 -1.60804,-0.44761 -1.60804,-0.50443 -1.60804,-0.55973 -1.60804,-0.61345 -1.60804,-0.66551 -1.60804,-0.71585 -1.60804,-0.76442 -1.60804,-0.81118 -1.60804,-0.85609 -1.60804,-0.89912 -1.60804,-0.94024 -1.60804,-0.97943 -1.60804,-1.01669 -1.60804,-1.05199 -1.60804,-1.08533 -1.60805,-1.11669 -1.60804,-1.1461 -1.60804,-1.17353 -1.60804,-1.19901 -1.60804,-1.22252 -1.60804,-1.24407 -1.60804,-1.2637 -1.60804,-1.28137 -1.60804,-1.29713 -1.60804,-1.31096 -1.60804,-1.32291 -1.60804,-1.33295 -1.608038,-1.34112 -1.60804,-1.34743 -1.60804,-1.35191 -1.60804,-1.35455 -1.60804,-1.35538 -1.608041,-1.35444 -1.60804,-1.35173 -1.60804,-1.3473 -1.60804,-1.34115 -1.60804,-1.33333 -1.608041,-1.32388 -1.60804,-1.31283 -1.60804,-1.30021 -1.60804,-1.28609 -1.60804,-1.2705 -1.608041,-1.2535 -1.60804,-1.23513 -1.60804,-1.21549 -1.60804,-1.19459 -1.60804,-1.17255 -1.608041,-1.14939 -1.60804,-1.12522 -1.60804,-1.1001 -1.60804,-1.07411 -1.60804,-1.04733 -1.608041,-1.01986 -1.60804,-0.99174 -1.60804,-0.96311 -1.60804,-0.93401 -1.60804,-0.90455 -1.608041,-0.87482 -1.60804,-0.84487 -1.60804,-0.81483 -1.60804,-0.78474 -1.60804,-0.7547 -1.608041,-0.7248 -1.60804,-0.69509 -1.60804,-0.66564 -1.60804,-0.63655 -1.60804,-0.60784 -1.608041,-0.5796 -1.60804,-0.55189 -1.60804,-0.52473 -1.60804,-0.4982 -1.60804,-0.47232 -1.608041,-0.44714 -1.60804,-0.42269 -1.60804,-0.399 -1.60804,-0.37608 -1.60804,-0.35398 -1.608041,-0.33267 -1.60804,-0.31222 -1.60804,-0.29257 -1.60804,-0.27378 -1.60804,-0.25582 -1.608041,-0.23869 L 9.6482412,121.43376 8.040201,121.22687 6.4321608,121.03467 4.8241206,120.85638 3.2160804,120.69123 1.6080402,120.53847 0,120.39738 Z"
       class="paths"
       id="menu1"
       style="fill:#fffaab"
       inkscape:connector-curvature="0" />
    <path
       d="m 0,119.92107 1.6080402,0.0863 1.6080402,0.0924 1.6080402,0.0989 1.6080402,0.1056 1.6080402,0.11257 1.6080402,0.11982 1.6080398,0.12731 1.608041,0.13503 1.60804,0.14297 1.60804,0.15112 1.60804,0.15944 1.60804,0.16792 1.608041,0.17653 1.60804,0.18525 1.60804,0.19403 1.60804,0.20285 1.60804,0.21169 1.608041,0.22047 1.60804,0.22918 1.60804,0.23777 1.60804,0.24619 1.60804,0.2544 1.608041,0.26234 1.60804,0.26998 1.60804,0.27724 1.60804,0.28409 1.60804,0.29047 1.608041,0.29634 1.60804,0.30162 1.60804,0.30629 1.60804,0.31029 1.60804,0.31356 1.608041,0.31606 1.60804,0.31777 1.60804,0.31861 1.60804,0.31857 1.60804,0.31761 1.608041,0.31571 1.60804,0.31282 1.60804,0.30895 1.60804,0.30407 1.60804,0.29818 1.608041,0.29127 1.60804,0.28335 1.60804,0.27443 1.60804,0.26452 1.60804,0.25364 1.608041,0.24185 1.60804,0.22915 1.60804,0.21561 1.60804,0.20125 1.60804,0.18616 1.608041,0.17038 1.60804,0.15398 1.60804,0.13705 1.60804,0.11964 1.60804,0.10187 1.608041,0.0838 1.60804,0.0655 1.60804,0.0471 1.60804,0.0287 1.60804,0.0104 1.608038,-0.008 1.60804,-0.0255 1.60804,-0.043 1.60804,-0.06 1.60804,-0.0763 1.60804,-0.092 1.60804,-0.10694 1.60804,-0.12098 1.60804,-0.1341 1.60804,-0.14617 1.60804,-0.15715 1.60804,-0.16695 1.60805,-0.17554 1.60804,-0.18285 1.60804,-0.18882 1.60804,-0.19345 1.60804,-0.19668 1.60804,-0.19852 1.60804,-0.19896 1.60804,-0.19799 1.60804,-0.19564 1.60804,-0.19192 1.60804,-0.18688 1.60804,-0.18055 1.60804,-0.17302 1.60804,-0.1643 1.60804,-0.15453 1.60804,-0.14374 1.60804,-0.13205 1.60804,-0.11955 1.60804,-0.10637 1.60804,-0.0926 1.60804,-0.0784 1.60804,-0.0638 1.60804,-0.049 1.60804,-0.0341 1.60804,-0.0193 1.60804,-0.005 1.60804,0.01 1.60804,0.0236 1.60804,0.0369 1.60804,0.0496 1.60804,0.0615 1.60804,0.0724 1.60804,0.0824 1.60804,0.0913 1.60804,0.099 1.60804,0.10542 1.60804,0.11056 1.60804,0.11435 1.60804,0.11673 1.60804,0.11768 1.60804,0.1172 1.60804,0.11526 1.60804,0.11189 1.60804,0.10709 1.60804,0.10091 1.60804,0.0934 1.60804,0.0846 1.60804,0.0745 1.60804,0.0633 1.60804,0.0509 1.60805,0.0376 1.60804,0.0234 1.60804,0.008 1.60804,-0.007 1.60804,-0.0237 1.60804,-0.0405 1.60804,-0.0577 1.60804,-0.0752 1.60804,-0.0928 1.60804,-0.1105 1.60804,-0.12813 1.60804,-0.14559 1.60804,-0.1628 1.60804,-0.17965 1.60804,-0.19605 1.60804,-0.21192 1.60804,-0.22719 1.60804,-0.24178 1.60804,-0.25561 1.60804,-0.26865 1.60804,-0.28084 1.60804,-0.29213 1.60804,-0.30248 1.60804,-0.3119 1.60804,-0.32032 1.60804,-0.32775 1.60804,-0.3342 1.60804,-0.33964 1.60804,-0.3441 1.60804,-0.34757 1.60804,-0.35009 1.60804,-0.35167 1.60804,-0.35235 1.60804,-0.35214 1.60804,-0.35109 1.60804,-0.34925 1.60804,-0.34663 1.60804,-0.3433 1.60804,-0.3393 1.60804,-0.33467 1.60804,-0.32946 1.60804,-0.32372 1.60804,-0.31749 1.60804,-0.31083 1.60804,-0.30378 1.60804,-0.29639 1.60804,-0.2887 1.60804,-0.28076 1.60804,-0.27261 1.60804,-0.26429 1.60805,-0.25584 1.60804,-0.24731 1.60804,-0.23871 1.60804,-0.23008 1.60804,-0.22148 1.60804,-0.21289 1.60804,-0.20438 1.60804,-0.19594 1.60804,-0.18763 1.60804,-0.17943 1.60804,-0.17138 1.60804,-0.1635 1.60804,-0.15579 1.60804,-0.14827 1.60804,-0.14094 1.60804,-0.13384 1.60804,-0.12694 1.60804,-0.12026 1.60804,-0.11381 1.60804,-0.10759 1.60804,-0.10159 1.60804,-0.0958 1.60804,-0.0903 1.60804,-0.085 1.60804,-0.0799 0,0.0644 -1.60804,0.0884 -1.60804,0.0945 -1.60804,0.10097 -1.60804,0.10776 -1.60804,0.11492 -1.60804,0.12246 -1.60804,0.13038 -1.60804,0.13871 -1.60804,0.14745 -1.60804,0.15661 -1.60804,0.16621 -1.60804,0.17625 -1.60804,0.18674 -1.60804,0.1977 -1.60804,0.20913 -1.60804,0.22103 -1.60804,0.23342 -1.60804,0.24629 -1.60804,0.25966 -1.60804,0.27351 -1.60804,0.28785 -1.60804,0.3027 -1.60804,0.31801 -1.60804,0.33382 -1.60805,0.35008 -1.60804,0.36683 -1.60804,0.384 -1.60804,0.40162 -1.60804,0.41965 -1.60804,0.43807 -1.60804,0.45686 -1.60804,0.476 -1.60804,0.49544 -1.60804,0.51517 -1.60804,0.53513 -1.60804,0.55529 -1.60804,0.57562 -1.60804,0.59606 -1.60804,0.61654 -1.60804,0.63705 -1.60804,0.6575 -1.60804,0.67784 -1.60804,0.698 -1.60804,0.71794 -1.60804,0.73755 -1.60804,0.75678 -1.60804,0.77558 -1.60804,0.79382 -1.60804,0.81148 -1.60804,0.82843 -1.60804,0.84462 -1.60804,0.85996 -1.60804,0.87437 -1.60804,0.88777 -1.60804,0.90007 -1.60804,0.91119 -1.60804,0.92105 -1.60804,0.92958 -1.60804,0.93671 -1.60804,0.94233 -1.60804,0.94642 -1.60804,0.94888 -1.60804,0.94965 -1.60804,0.9487 -1.60804,0.94594 -1.60804,0.94134 -1.60804,0.93488 -1.60804,0.92649 -1.60804,0.91617 -1.60804,0.9039 -1.60804,0.88965 -1.60804,0.87345 -1.60804,0.85526 -1.60804,0.83514 -1.60805,0.81308 -1.60804,0.78914 -1.60804,0.76334 -1.60804,0.73573 -1.60804,0.70639 -1.60804,0.67538 -1.60804,0.64275 -1.60804,0.60862 -1.60804,0.57306 -1.60804,0.5362 -1.60804,0.4981 -1.60804,0.45893 -1.60804,0.41876 -1.60804,0.37774 -1.60804,0.336 -1.60804,0.29367 -1.60804,0.25089 -1.60804,0.20779 -1.60804,0.16452 -1.60804,0.12121 -1.60804,0.078 -1.60804,0.0351 -1.60804,-0.008 -1.60804,-0.0496 -1.60804,-0.091 -1.60804,-0.13163 -1.60804,-0.17139 -1.60804,-0.21014 -1.60804,-0.24779 -1.60804,-0.28423 -1.60804,-0.31939 -1.60804,-0.35317 -1.60804,-0.3855 -1.60804,-0.41632 -1.60804,-0.44559 -1.60804,-0.47325 -1.60804,-0.49927 -1.60804,-0.52364 -1.60804,-0.54634 -1.60804,-0.56735 -1.60804,-0.58671 -1.60804,-0.60441 -1.60804,-0.62047 -1.60804,-0.63495 -1.60804,-0.64785 -1.60804,-0.65926 -1.60804,-0.66919 -1.60804,-0.67772 -1.60804,-0.68491 -1.60804,-0.69081 -1.60805,-0.69552 -1.60804,-0.69907 -1.60804,-0.70157 -1.60804,-0.70306 -1.60804,-0.70363 -1.60804,-0.70336 -1.60804,-0.70229 -1.60804,-0.70051 -1.60804,-0.69807 -1.60804,-0.69506 -1.60804,-0.6915 -1.60804,-0.68746 -1.608038,-0.68298 -1.60804,-0.67814 -1.60804,-0.67292 -1.60804,-0.6674 -1.60804,-0.66159 -1.608041,-0.65552 -1.60804,-0.64921 -1.60804,-0.64268 -1.60804,-0.63593 -1.60804,-0.62898 -1.608041,-0.62184 -1.60804,-0.61449 -1.60804,-0.60694 -1.60804,-0.59921 -1.60804,-0.59125 -1.608041,-0.5831 -1.60804,-0.57473 -1.60804,-0.56613 -1.60804,-0.5573 -1.60804,-0.54825 -1.608041,-0.53896 -1.60804,-0.52941 -1.60804,-0.51963 -1.60804,-0.50959 -1.60804,-0.49932 -1.608041,-0.4888 -1.60804,-0.47804 -1.60804,-0.46706 -1.60804,-0.45586 -1.60804,-0.44445 -1.608041,-0.43285 -1.60804,-0.42106 -1.60804,-0.40914 -1.60804,-0.39706 -1.60804,-0.38486 -1.608041,-0.37259 -1.60804,-0.36023 -1.60804,-0.34783 -1.60804,-0.33542 -1.60804,-0.32301 -1.608041,-0.31064 -1.60804,-0.29832 -1.60804,-0.28611 -1.60804,-0.27399 -1.60804,-0.26201 -1.608041,-0.25021 -1.60804,-0.23858 -1.60804,-0.22716 -1.60804,-0.21598 -1.60804,-0.20504 -1.608041,-0.19436 -1.60804,-0.18397 -1.60804,-0.17387 -1.60804,-0.16407 -1.60804,-0.15461 L 11.256281,120.7478 9.6482412,120.61115 8.040201,120.48297 6.4321608,120.36292 4.8241206,120.25066 3.2160804,120.14583 1.6080402,120.04809 0,119.9571 Z"
       class="paths"
       id="menu2"
       style="fill:#ab67ec"
       inkscape:connector-curvature="0" />
    <path
       d="m 0,118.7929 1.6080402,-0.0145 1.6080402,-0.0157 1.6080402,-0.0169 1.6080402,-0.0183 1.6080402,-0.0197 1.6080402,-0.0213 1.6080398,-0.0229 1.608041,-0.0246 1.60804,-0.0265 1.60804,-0.0285 1.60804,-0.0306 1.60804,-0.0329 1.608041,-0.0353 1.60804,-0.0379 1.60804,-0.0406 1.60804,-0.0435 1.60804,-0.0465 1.608041,-0.0498 1.60804,-0.0532 1.60804,-0.0568 1.60804,-0.0606 1.60804,-0.0646 1.608041,-0.0688 1.60804,-0.0732 1.60804,-0.0778 1.60804,-0.0826 1.60804,-0.0876 1.608041,-0.0929 1.60804,-0.0983 1.60804,-0.10398 1.60804,-0.10986 1.60804,-0.11595 1.608041,-0.12224 1.60804,-0.12873 1.60804,-0.13541 1.60804,-0.14228 1.60804,-0.14931 1.608041,-0.15651 1.60804,-0.16386 1.60804,-0.17135 1.60804,-0.17897 1.60804,-0.18668 1.608041,-0.19449 1.60804,-0.20237 1.60804,-0.21029 1.60804,-0.21824 1.60804,-0.22618 1.608041,-0.23412 1.60804,-0.24199 1.60804,-0.24978 1.60804,-0.25746 1.60804,-0.265 1.608041,-0.27236 1.60804,-0.27951 1.60804,-0.2864 1.60804,-0.29302 1.60804,-0.2993 1.608041,-0.30521 1.60804,-0.31072 1.60804,-0.31578 1.60804,-0.32032 1.60804,-0.32434 1.608038,-0.32775 1.60804,-0.33054 1.60804,-0.33263 1.60804,-0.33399 1.60804,-0.33458 1.60804,-0.33433 1.60804,-0.33321 1.60804,-0.33118 1.60804,-0.32817 1.60804,-0.32417 1.60804,-0.31911 1.60804,-0.31297 1.60805,-0.30572 1.60804,-0.29732 1.60804,-0.28775 1.60804,-0.27699 1.60804,-0.26502 1.60804,-0.25183 1.60804,-0.23744 1.60804,-0.22182 1.60804,-0.20501 1.60804,-0.18702 1.60804,-0.16788 1.60804,-0.14763 1.60804,-0.12631 1.60804,-0.10398 1.60804,-0.0807 1.60804,-0.0566 1.60804,-0.0316 1.60804,-0.006 1.60804,0.0202 1.60804,0.0469 1.60804,0.074 1.60804,0.10131 1.60804,0.12876 1.60804,0.15621 1.60804,0.18352 1.60804,0.21054 1.60804,0.23713 1.60804,0.26317 1.60804,0.2885 1.60804,0.31297 1.60804,0.33649 1.60804,0.35887 1.60804,0.38002 1.60804,0.39981 1.60804,0.41814 1.60804,0.4349 1.60804,0.44997 1.60804,0.46332 1.60804,0.47484 1.60804,0.48448 1.60804,0.49219 1.60804,0.49796 1.60804,0.50175 1.60804,0.50354 1.60804,0.50337 1.60804,0.50123 1.60804,0.49717 1.60804,0.49124 1.60804,0.48349 1.60804,0.47397 1.60805,0.4628 1.60804,0.45003 1.60804,0.43578 1.60804,0.42016 1.60804,0.40326 1.60804,0.38522 1.60804,0.36615 1.60804,0.34619 1.60804,0.32545 1.60804,0.30408 1.60804,0.28219 1.60804,0.25993 1.60804,0.23741 1.60804,0.21477 1.60804,0.1921 1.60804,0.16955 1.60804,0.14722 1.60804,0.12521 1.60804,0.1036 1.60804,0.0825 1.60804,0.062 1.60804,0.0422 1.60804,0.0231 1.60804,0.005 1.60804,-0.0127 1.60804,-0.0292 1.60804,-0.0449 1.60804,-0.0596 1.60804,-0.0733 1.60804,-0.0861 1.60804,-0.0978 1.60804,-0.10857 1.60804,-0.11834 1.60804,-0.12717 1.60804,-0.13502 1.60804,-0.14196 1.60804,-0.14799 1.60804,-0.15314 1.60804,-0.15745 1.60804,-0.16096 1.60804,-0.1637 1.60804,-0.16571 1.60804,-0.16702 1.60804,-0.16771 1.60804,-0.16777 1.60804,-0.16728 1.60804,-0.16628 1.60804,-0.16478 1.60804,-0.16287 1.60804,-0.16055 1.60805,-0.15788 1.60804,-0.15489 1.60804,-0.15163 1.60804,-0.14811 1.60804,-0.14438 1.60804,-0.14049 1.60804,-0.13643 1.60804,-0.13225 1.60804,-0.12799 1.60804,-0.12365 1.60804,-0.11926 1.60804,-0.11486 1.60804,-0.11044 1.60804,-0.10604 1.60804,-0.10167 1.60804,-0.0973 1.60804,-0.0931 1.60804,-0.0888 1.60804,-0.0847 1.60804,-0.0807 1.60804,-0.0767 1.60804,-0.0729 1.60804,-0.0691 1.60804,-0.0655 1.60804,-0.062 0,0.17889 -1.60804,0.0799 -1.60804,0.085 -1.60804,0.0903 -1.60804,0.0958 -1.60804,0.10159 -1.60804,0.10759 -1.60804,0.11381 -1.60804,0.12026 -1.60804,0.12694 -1.60804,0.13384 -1.60804,0.14094 -1.60804,0.14827 -1.60804,0.15579 -1.60804,0.1635 -1.60804,0.17138 -1.60804,0.17943 -1.60804,0.18763 -1.60804,0.19594 -1.60804,0.20438 -1.60804,0.21289 -1.60804,0.22148 -1.60804,0.23008 -1.60804,0.23871 -1.60804,0.24731 -1.60805,0.25584 -1.60804,0.26429 -1.60804,0.27261 -1.60804,0.28076 -1.60804,0.2887 -1.60804,0.29639 -1.60804,0.30378 -1.60804,0.31083 -1.60804,0.31749 -1.60804,0.32372 -1.60804,0.32946 -1.60804,0.33467 -1.60804,0.3393 -1.60804,0.3433 -1.60804,0.34663 -1.60804,0.34925 -1.60804,0.35109 -1.60804,0.35214 -1.60804,0.35235 -1.60804,0.35167 -1.60804,0.35009 -1.60804,0.34757 -1.60804,0.3441 -1.60804,0.33964 -1.60804,0.3342 -1.60804,0.32775 -1.60804,0.32032 -1.60804,0.3119 -1.60804,0.30248 -1.60804,0.29213 -1.60804,0.28084 -1.60804,0.26865 -1.60804,0.25561 -1.60804,0.24178 -1.60804,0.22719 -1.60804,0.21192 -1.60804,0.19605 -1.60804,0.17965 -1.60804,0.1628 -1.60804,0.14559 -1.60804,0.12813 -1.60804,0.1105 -1.60804,0.0928 -1.60804,0.0752 -1.60804,0.0577 -1.60804,0.0405 -1.60804,0.0237 -1.60804,0.007 -1.60804,-0.008 -1.60804,-0.0234 -1.60805,-0.0376 -1.60804,-0.0509 -1.60804,-0.0633 -1.60804,-0.0745 -1.60804,-0.0846 -1.60804,-0.0934 -1.60804,-0.10091 -1.60804,-0.10709 -1.60804,-0.11189 -1.60804,-0.11526 -1.60804,-0.1172 -1.60804,-0.11768 -1.60804,-0.11673 -1.60804,-0.11435 -1.60804,-0.11056 -1.60804,-0.10542 -1.60804,-0.099 -1.60804,-0.0913 -1.60804,-0.0824 -1.60804,-0.0724 -1.60804,-0.0615 -1.60804,-0.0496 -1.60804,-0.0369 -1.60804,-0.0236 -1.60804,-0.01 -1.60804,0.005 -1.60804,0.0193 -1.60804,0.0341 -1.60804,0.049 -1.60804,0.0638 -1.60804,0.0784 -1.60804,0.0926 -1.60804,0.10637 -1.60804,0.11955 -1.60804,0.13205 -1.60804,0.14374 -1.60804,0.15453 -1.60804,0.1643 -1.60804,0.17302 -1.60804,0.18055 -1.60804,0.18688 -1.60804,0.19192 -1.60804,0.19564 -1.60804,0.19799 -1.60804,0.19896 -1.60804,0.19852 -1.60804,0.19668 -1.60804,0.19345 -1.60804,0.18882 -1.60804,0.18285 -1.60805,0.17554 -1.60804,0.16695 -1.60804,0.15715 -1.60804,0.14617 -1.60804,0.1341 -1.60804,0.12098 -1.60804,0.10694 -1.60804,0.092 -1.60804,0.0763 -1.60804,0.06 -1.60804,0.043 -1.60804,0.0255 -1.608038,0.008 -1.60804,-0.0104 -1.60804,-0.0287 -1.60804,-0.0471 -1.60804,-0.0655 -1.608041,-0.0838 -1.60804,-0.10187 -1.60804,-0.11964 -1.60804,-0.13705 -1.60804,-0.15398 -1.608041,-0.17038 -1.60804,-0.18616 -1.60804,-0.20125 -1.60804,-0.21561 -1.60804,-0.22915 -1.608041,-0.24185 -1.60804,-0.25364 -1.60804,-0.26452 -1.60804,-0.27443 -1.60804,-0.28335 -1.608041,-0.29127 -1.60804,-0.29818 -1.60804,-0.30407 -1.60804,-0.30895 -1.60804,-0.31282 -1.608041,-0.31571 -1.60804,-0.31761 -1.60804,-0.31857 -1.60804,-0.31861 -1.60804,-0.31777 -1.608041,-0.31606 -1.60804,-0.31356 -1.60804,-0.31029 -1.60804,-0.30629 -1.60804,-0.30162 -1.608041,-0.29634 -1.60804,-0.29047 -1.60804,-0.28409 -1.60804,-0.27724 -1.60804,-0.26998 -1.608041,-0.26234 -1.60804,-0.2544 -1.60804,-0.24619 -1.60804,-0.23777 -1.60804,-0.22918 -1.608041,-0.22047 -1.60804,-0.21169 -1.60804,-0.20285 -1.60804,-0.19403 -1.60804,-0.18525 -1.608041,-0.17653 -1.60804,-0.16792 -1.60804,-0.15944 -1.60804,-0.15112 -1.60804,-0.14297 -1.608041,-0.13503 -1.6080398,-0.12731 -1.6080402,-0.11982 -1.6080402,-0.11257 -1.6080402,-0.1056 -1.6080402,-0.0989 -1.6080402,-0.0924 L 0,119.92107 Z"
       class="paths"
       id="menu3"
       style="fill:#ff6f64"
       inkscape:connector-curvature="0" />
    <path
       d="m 0,118.53173 1.6080402,-0.0392 1.6080402,-0.0424 1.6080402,-0.0457 1.6080402,-0.0493 1.6080402,-0.0531 1.6080402,-0.0572 1.6080398,-0.0615 1.608041,-0.066 1.60804,-0.0709 1.60804,-0.076 1.60804,-0.0814 1.60804,-0.0871 1.608041,-0.0931 1.60804,-0.0994 1.60804,-0.10601 1.60804,-0.11297 1.60804,-0.12028 1.608041,-0.12792 1.60804,-0.13591 1.60804,-0.14424 1.60804,-0.15295 1.60804,-0.16199 1.608041,-0.17139 1.60804,-0.18116 1.60804,-0.19128 1.60804,-0.20174 1.60804,-0.21256 1.608041,-0.22372 1.60804,-0.2352 1.60804,-0.24703 1.60804,-0.25916 1.60804,-0.2716 1.608041,-0.28432 1.60804,-0.29733 1.60804,-0.31059 1.60804,-0.3241 1.60804,-0.33783 1.608041,-0.35175 1.60804,-0.36587 1.60804,-0.38013 1.60804,-0.39453 1.60804,-0.40903 1.608041,-0.42361 1.60804,-0.43824 1.60804,-0.45288 1.60804,-0.46753 1.60804,-0.48213 1.608041,-0.49666 1.60804,-0.51108 1.60804,-0.52536 1.60804,-0.53947 1.60804,-0.55336 1.608041,-0.56703 1.60804,-0.5804 1.60804,-0.59347 1.60804,-0.60617 1.60804,-0.61849 1.608041,-0.63038 1.60804,-0.6418 1.60804,-0.65272 1.60804,-0.66308 1.60804,-0.672865 1.608038,-0.682014 1.60804,-0.690494 1.60804,-0.698264 1.60804,-0.705276 1.60804,-0.711491 1.60804,-0.716863 1.60804,-0.721348 1.60804,-0.724904 1.60804,-0.727484 1.60804,-0.729045 1.60804,-0.729544 1.60804,-0.728937 1.60805,-0.727183 1.60804,-0.72424 1.60804,-0.72007 1.60804,-0.714633 1.60804,-0.707899 1.60804,-0.699832 1.60804,-0.690406 1.60804,-0.679594 1.60804,-0.667377 1.60804,-0.65374 1.60804,-0.638671 1.60804,-0.622164 1.60804,-0.604222 1.60804,-0.584852 1.60804,-0.564067 1.60804,-0.541887 1.60804,-0.518343 1.60804,-0.493469 1.60804,-0.467306 1.60804,-0.439906 1.60804,-0.411327 1.60804,-0.381632 1.60804,-0.350895 1.60804,-0.319192 1.60804,-0.286609 1.60804,-0.253236 1.60804,-0.21917 1.60804,-0.184512 1.60804,-0.149364 1.60804,-0.113839 1.60804,-0.07804 1.60804,-0.0421 1.60804,-0.0061 1.60804,0.02981 1.60804,0.06554 1.60804,0.100959 1.60804,0.135967 1.60804,0.170451 1.60804,0.204306 1.60804,0.237428 1.60804,0.269722 1.60804,0.301095 1.60804,0.33146 1.60804,0.360738 1.60804,0.388855 1.60804,0.415745 1.60804,0.441347 1.60804,0.465609 1.60804,0.488488 1.60804,0.509946 1.60805,0.529953 1.60804,0.548485 1.60804,0.565531 1.60804,0.58108 1.60804,0.595133 1.60804,0.607694 1.60804,0.618775 1.60804,0.628394 1.60804,0.636575 1.60804,0.643347 1.60804,0.648739 1.60804,0.652794 1.60804,0.655547 1.60804,0.657047 1.60804,0.65734 1.60804,0.656474 1.60804,0.654503 1.60804,0.651479 1.60804,0.647456 1.60804,0.642491 1.60804,0.636639 1.60804,0.629957 1.60804,0.622499 1.60804,0.614323 1.60804,0.605482 1.60804,0.59603 1.60804,0.586022 1.60804,0.575508 1.60804,0.564537 1.60804,0.553162 1.60804,0.541425 1.60804,0.529374 1.60804,0.51705 1.60804,0.50451 1.60804,0.49177 1.60804,0.47887 1.60804,0.46588 1.60804,0.45279 1.60804,0.43966 1.60804,0.4265 1.60804,0.41338 1.60804,0.40027 1.60804,0.38724 1.60804,0.37429 1.60804,0.36146 1.60804,0.34875 1.60804,0.33619 1.60804,0.3238 1.60804,0.31159 1.60804,0.29958 1.60805,0.28778 1.60804,0.2762 1.60804,0.26486 1.60804,0.25376 1.60804,0.24291 1.60804,0.23232 1.60804,0.222 1.60804,0.21195 1.60804,0.20217 1.60804,0.19268 1.60804,0.18346 1.60804,0.17454 1.60804,0.1659 1.60804,0.15753 1.60804,0.14947 1.60804,0.14168 1.60804,0.13418 1.60804,0.12695 1.60804,0.12002 1.60804,0.11334 1.60804,0.10694 1.60804,0.10082 1.60804,0.0949 1.60804,0.0893 1.60804,0.084 0,1.95303 -1.60804,0.062 -1.60804,0.0655 -1.60804,0.0691 -1.60804,0.0729 -1.60804,0.0767 -1.60804,0.0807 -1.60804,0.0847 -1.60804,0.0888 -1.60804,0.0931 -1.60804,0.0973 -1.60804,0.10167 -1.60804,0.10604 -1.60804,0.11044 -1.60804,0.11486 -1.60804,0.11926 -1.60804,0.12365 -1.60804,0.12799 -1.60804,0.13225 -1.60804,0.13643 -1.60804,0.14049 -1.60804,0.14438 -1.60804,0.14811 -1.60804,0.15163 -1.60804,0.15489 -1.60805,0.15788 -1.60804,0.16055 -1.60804,0.16287 -1.60804,0.16478 -1.60804,0.16628 -1.60804,0.16728 -1.60804,0.16777 -1.60804,0.16771 -1.60804,0.16702 -1.60804,0.16571 -1.60804,0.1637 -1.60804,0.16096 -1.60804,0.15745 -1.60804,0.15314 -1.60804,0.14799 -1.60804,0.14196 -1.60804,0.13502 -1.60804,0.12717 -1.60804,0.11834 -1.60804,0.10857 -1.60804,0.0978 -1.60804,0.0861 -1.60804,0.0733 -1.60804,0.0596 -1.60804,0.0449 -1.60804,0.0292 -1.60804,0.0127 -1.60804,-0.005 -1.60804,-0.0231 -1.60804,-0.0422 -1.60804,-0.062 -1.60804,-0.0825 -1.60804,-0.1036 -1.60804,-0.12521 -1.60804,-0.14722 -1.60804,-0.16955 -1.60804,-0.1921 -1.60804,-0.21477 -1.60804,-0.23741 -1.60804,-0.25993 -1.60804,-0.28219 -1.60804,-0.30408 -1.60804,-0.32545 -1.60804,-0.34619 -1.60804,-0.36615 -1.60804,-0.38522 -1.60804,-0.40326 -1.60804,-0.42016 -1.60804,-0.43578 -1.60804,-0.45003 -1.60805,-0.4628 -1.60804,-0.47397 -1.60804,-0.48349 -1.60804,-0.49124 -1.60804,-0.49717 -1.60804,-0.50123 -1.60804,-0.50337 -1.60804,-0.50354 -1.60804,-0.50175 -1.60804,-0.49796 -1.60804,-0.49219 -1.60804,-0.48448 -1.60804,-0.47484 -1.60804,-0.46332 -1.60804,-0.44997 -1.60804,-0.4349 -1.60804,-0.41814 -1.60804,-0.39981 -1.60804,-0.38002 -1.60804,-0.35887 -1.60804,-0.33649 -1.60804,-0.31297 -1.60804,-0.2885 -1.60804,-0.26317 -1.60804,-0.23713 -1.60804,-0.21054 -1.60804,-0.18352 -1.60804,-0.15621 -1.60804,-0.12876 -1.60804,-0.10131 -1.60804,-0.074 -1.60804,-0.0469 -1.60804,-0.0202 -1.60804,0.006 -1.60804,0.0316 -1.60804,0.0566 -1.60804,0.0807 -1.60804,0.10398 -1.60804,0.12631 -1.60804,0.14763 -1.60804,0.16788 -1.60804,0.18702 -1.60804,0.20501 -1.60804,0.22182 -1.60804,0.23744 -1.60804,0.25183 -1.60804,0.26502 -1.60804,0.27699 -1.60804,0.28775 -1.60804,0.29732 -1.60805,0.30572 -1.60804,0.31297 -1.60804,0.31911 -1.60804,0.32417 -1.60804,0.32817 -1.60804,0.33118 -1.60804,0.33321 -1.60804,0.33433 -1.60804,0.33458 -1.60804,0.33399 -1.60804,0.33263 -1.60804,0.33054 -1.608038,0.32775 -1.60804,0.32434 -1.60804,0.32032 -1.60804,0.31578 -1.60804,0.31072 -1.608041,0.30521 -1.60804,0.2993 -1.60804,0.29302 -1.60804,0.2864 -1.60804,0.27951 -1.608041,0.27236 -1.60804,0.265 -1.60804,0.25746 -1.60804,0.24978 -1.60804,0.24199 -1.608041,0.23412 -1.60804,0.22618 -1.60804,0.21824 -1.60804,0.21029 -1.60804,0.20237 -1.608041,0.19449 -1.60804,0.18668 -1.60804,0.17897 -1.60804,0.17135 -1.60804,0.16386 -1.608041,0.15651 -1.60804,0.14931 -1.60804,0.14228 -1.60804,0.13541 -1.60804,0.12873 -1.608041,0.12224 -1.60804,0.11595 -1.60804,0.10986 -1.60804,0.10398 -1.60804,0.0983 -1.608041,0.0929 -1.60804,0.0876 -1.60804,0.0826 -1.60804,0.0778 -1.60804,0.0732 -1.608041,0.0688 -1.60804,0.0646 -1.60804,0.0606 -1.60804,0.0568 -1.60804,0.0532 -1.608041,0.0498 -1.60804,0.0465 -1.60804,0.0435 -1.60804,0.0406 -1.60804,0.0379 -1.608041,0.0353 -1.60804,0.0329 -1.60804,0.0306 -1.60804,0.0285 -1.60804,0.0265 -1.608041,0.0246 -1.6080398,0.0229 -1.6080402,0.0213 -1.6080402,0.0197 -1.6080402,0.0183 -1.6080402,0.0169 -1.6080402,0.0157 L 0,118.7929 Z"
       class="paths"
       id="menu4"
       style="fill:#c4fa79"
       inkscape:connector-curvature="0" />
    <path
       d="m 0,117.53511 1.6080402,-0.13774 1.6080402,-0.14887 1.6080402,-0.16068 1.6080402,-0.17315 1.6080402,-0.18633 1.6080402,-0.2002 1.6080398,-0.21479 1.608041,-0.23009 1.60804,-0.24611 1.60804,-0.26286 1.60804,-0.28032 1.60804,-0.29849 1.608041,-0.31735 1.60804,-0.3369 1.60804,-0.35711 1.60804,-0.37795 1.60804,-0.3994 1.608041,-0.42142 1.60804,-0.44398 1.60804,-0.46704 1.60804,-0.49053 1.60804,-0.51442 1.608041,-0.53865 1.60804,-0.56315 1.60804,-0.58787 1.60804,-0.61273 1.60804,-0.63766 1.608041,-0.66259 1.60804,-0.68745 1.60804,-0.71214 1.60804,-0.73659 1.60804,-0.76072 1.608041,-0.78445 1.60804,-0.80769 1.60804,-0.83036 1.60804,-0.85238 1.60804,-0.87366 1.608041,-0.894136 1.60804,-0.913723 1.60804,-0.932355 1.60804,-0.94996 1.60804,-0.966479 1.608041,-0.981849 1.60804,-0.996019 1.60804,-1.008941 1.60804,-1.020574 1.60804,-1.030881 1.608041,-1.039835 1.60804,-1.047412 1.60804,-1.053598 1.60804,-1.058383 1.60804,-1.061764 1.608041,-1.063745 1.60804,-1.064336 1.60804,-1.063553 1.60804,-1.061415 1.60804,-1.05795 1.608041,-1.053187 1.60804,-1.047157 1.60804,-1.039902 1.60804,-1.031456 1.60804,-1.021863 1.608038,-1.011165 1.60804,-0.999402 1.60804,-0.98662 1.60804,-0.972856 1.60804,-0.958153 1.60804,-0.942545 1.60804,-0.926069 1.60804,-0.908755 1.60804,-0.890631 1.60804,-0.87172 1.60804,-0.852042 1.60804,-0.831611 1.60805,-0.810439 1.60804,-0.788531 1.60804,-0.765888 1.60804,-0.742509 1.60804,-0.71839 1.60804,-0.693517 1.60804,-0.667884 1.60804,-0.641471 1.60804,-0.614268 1.60804,-0.586254 1.60804,-0.557415 1.60804,-0.527735 1.60804,-0.497198 1.60804,-0.465794 1.60804,-0.433512 1.60804,-0.400347 1.60804,-0.366298 1.60804,-0.33137 1.60804,-0.29557 1.60804,-0.258916 1.60804,-0.221432 1.60804,-0.183144 1.60804,-0.144093 1.60804,-0.104321 1.60804,-0.06388 1.60804,-0.02283 1.60804,0.01876 1.60804,0.06082 1.60804,0.103265 1.60804,0.14601 1.60804,0.18896 1.60804,0.232019 1.60804,0.275082 1.60804,0.318041 1.60804,0.360787 1.60804,0.403205 1.60804,0.44518 1.60804,0.486599 1.60804,0.527344 1.60804,0.5673 1.60804,0.606356 1.60804,0.644397 1.60804,0.68132 1.60804,0.717018 1.60804,0.751393 1.60804,0.784353 1.60804,0.815807 1.60804,0.845675 1.60804,0.873882 1.60804,0.900362 1.60805,0.925053 1.60804,0.947905 1.60804,0.968873 1.60804,0.987921 1.60804,1.005022 1.60804,1.020157 1.60804,1.033315 1.60804,1.044494 1.60804,1.053697 1.60804,1.060938 1.60804,1.066238 1.60804,1.069624 1.60804,1.07113 1.60804,1.070798 1.60804,1.068673 1.60804,1.064809 1.60804,1.059264 1.60804,1.052099 1.60804,1.043384 1.60804,1.033186 1.60804,1.021582 1.60804,1.008647 1.60804,0.994462 1.60804,0.979105 1.60804,0.962663 1.60804,0.945217 1.60804,0.926851 1.60804,0.907649 1.60804,0.887698 1.60804,0.867077 1.60804,0.84587 1.60804,0.82416 1.60804,0.802024 1.60804,0.779537 1.60804,0.756779 1.60804,0.733818 1.60804,0.710725 1.60804,0.687568 1.60804,0.664401 1.60804,0.64131 1.60804,0.61833 1.60804,0.5955 1.60804,0.57291 1.60804,0.55058 1.60804,0.52856 1.60804,0.50689 1.60804,0.4856 1.60804,0.46472 1.60804,0.4443 1.60804,0.42434 1.60805,0.40488 1.60804,0.38592 1.60804,0.36751 1.60804,0.34963 1.60804,0.33231 1.60804,0.31553 1.60804,0.29934 1.60804,0.28371 1.60804,0.26865 1.60804,0.25415 1.60804,0.24022 1.60804,0.22686 1.60804,0.21405 1.60804,0.20178 1.60804,0.19005 1.60804,0.17885 1.60804,0.16816 1.60804,0.15798 1.60804,0.14829 1.60804,0.13907 1.60804,0.13032 1.60804,0.12201 1.60804,0.11415 1.60804,0.10669 1.60804,0.0996 0,0.12794 -1.60804,-0.084 -1.60804,-0.0893 -1.60804,-0.0949 -1.60804,-0.10082 -1.60804,-0.10694 -1.60804,-0.11334 -1.60804,-0.12002 -1.60804,-0.12695 -1.60804,-0.13418 -1.60804,-0.14168 -1.60804,-0.14947 -1.60804,-0.15753 -1.60804,-0.1659 -1.60804,-0.17454 -1.60804,-0.18346 -1.60804,-0.19268 -1.60804,-0.20217 -1.60804,-0.21195 -1.60804,-0.222 -1.60804,-0.23232 -1.60804,-0.24291 -1.60804,-0.25376 -1.60804,-0.26486 -1.60804,-0.2762 -1.60805,-0.28778 -1.60804,-0.29958 -1.60804,-0.31159 -1.60804,-0.3238 -1.60804,-0.33619 -1.60804,-0.34875 -1.60804,-0.36146 -1.60804,-0.37429 -1.60804,-0.38724 -1.60804,-0.40027 -1.60804,-0.41338 -1.60804,-0.4265 -1.60804,-0.43966 -1.60804,-0.45279 -1.60804,-0.46588 -1.60804,-0.47887 -1.60804,-0.49177 -1.60804,-0.50451 -1.60804,-0.51705 -1.60804,-0.529371 -1.60804,-0.541425 -1.60804,-0.553162 -1.60804,-0.564537 -1.60804,-0.575508 -1.60804,-0.586022 -1.60804,-0.59603 -1.60804,-0.605482 -1.60804,-0.614323 -1.60804,-0.622499 -1.60804,-0.629957 -1.60804,-0.636639 -1.60804,-0.642491 -1.60804,-0.647456 -1.60804,-0.651479 -1.60804,-0.654503 -1.60804,-0.656474 -1.60804,-0.65734 -1.60804,-0.657047 -1.60804,-0.655547 -1.60804,-0.652794 -1.60804,-0.648739 -1.60804,-0.643347 -1.60804,-0.636575 -1.60804,-0.628394 -1.60804,-0.618775 -1.60804,-0.607694 -1.60804,-0.595133 -1.60804,-0.58108 -1.60804,-0.565531 -1.60804,-0.548485 -1.60805,-0.529953 -1.60804,-0.509946 -1.60804,-0.488488 -1.60804,-0.465609 -1.60804,-0.441347 -1.60804,-0.415745 -1.60804,-0.388855 -1.60804,-0.360738 -1.60804,-0.33146 -1.60804,-0.301095 -1.60804,-0.269722 -1.60804,-0.237428 -1.60804,-0.204306 -1.60804,-0.170451 -1.60804,-0.135967 -1.60804,-0.100959 -1.60804,-0.06554 -1.60804,-0.02981 -1.60804,0.0061 -1.60804,0.0421 -1.60804,0.07804 -1.60804,0.113839 -1.60804,0.149364 -1.60804,0.184512 -1.60804,0.21917 -1.60804,0.253236 -1.60804,0.286609 -1.60804,0.319192 -1.60804,0.350895 -1.60804,0.381632 -1.60804,0.411327 -1.60804,0.439906 -1.60804,0.467306 -1.60804,0.493469 -1.60804,0.518343 -1.60804,0.541887 -1.60804,0.564067 -1.60804,0.584852 -1.60804,0.604222 -1.60804,0.622164 -1.60804,0.638671 -1.60804,0.65374 -1.60804,0.667377 -1.60804,0.679594 -1.60804,0.690406 -1.60804,0.699832 -1.60804,0.707899 -1.60804,0.714633 -1.60804,0.72007 -1.60804,0.72424 -1.60805,0.727183 -1.60804,0.728937 -1.60804,0.729544 -1.60804,0.729045 -1.60804,0.727484 -1.60804,0.724904 -1.60804,0.721348 -1.60804,0.716863 -1.60804,0.711491 -1.60804,0.705276 -1.60804,0.698264 -1.60804,0.690494 -1.608038,0.682014 -1.60804,0.672867 -1.60804,0.66308 -1.60804,0.65272 -1.60804,0.6418 -1.608041,0.63038 -1.60804,0.61849 -1.60804,0.60617 -1.60804,0.59347 -1.60804,0.5804 -1.608041,0.56703 -1.60804,0.55336 -1.60804,0.53947 -1.60804,0.52536 -1.60804,0.51108 -1.608041,0.49666 -1.60804,0.48213 -1.60804,0.46753 -1.60804,0.45288 -1.60804,0.43824 -1.608041,0.42361 -1.60804,0.40903 -1.60804,0.39453 -1.60804,0.38013 -1.60804,0.36587 -1.608041,0.35175 -1.60804,0.33783 -1.60804,0.3241 -1.60804,0.31059 -1.60804,0.29733 -1.608041,0.28432 -1.60804,0.2716 -1.60804,0.25916 -1.60804,0.24703 -1.60804,0.2352 -1.608041,0.22372 -1.60804,0.21256 -1.60804,0.20174 -1.60804,0.19128 -1.60804,0.18116 -1.608041,0.17139 -1.60804,0.16199 -1.60804,0.15295 -1.60804,0.14424 -1.60804,0.13591 -1.608041,0.12792 -1.60804,0.12028 -1.60804,0.11297 -1.60804,0.10601 -1.60804,0.0994 -1.608041,0.0931 -1.60804,0.0871 -1.60804,0.0814 -1.60804,0.076 -1.60804,0.0709 -1.608041,0.066 -1.6080398,0.0615 -1.6080402,0.0572 -1.6080402,0.0531 -1.6080402,0.0493 -1.6080402,0.0457 -1.6080402,0.0424 L 0,118.53173 Z"
       class="paths"
       id="menu5"
       style="fill:#61c0e9;fill-opacity:1"
       inkscape:connector-curvature="0" />
  </g>
</svg>
