<?xml version="1.0" encoding="UTF-8" standalone="no"?>
<!-- Created with Inkscape (http://www.inkscape.org/) -->

<svg
   xmlns:dc="http://purl.org/dc/elements/1.1/"
   xmlns:cc="http://creativecommons.org/ns#"
   xmlns:rdf="http://www.w3.org/1999/02/22-rdf-syntax-ns#"
   xmlns:svg="http://www.w3.org/2000/svg"
   xmlns="http://www.w3.org/2000/svg"
   xmlns:sodipodi="http://sodipodi.sourceforge.net/DTD/sodipodi-0.dtd"
   xmlns:inkscape="http://www.inkscape.org/namespaces/inkscape"
   id="svg4190"
   version="1.1"
   inkscape:version="0.91 r13725"
   width="764.08887"
   height="228.6403"
   viewBox="0 0 764.08887 228.6403"
   sodipodi:docname="AveMaria_1.svg">
  <metadata
     id="metadata4196">
    <rdf:RDF>
      <cc:Work
         rdf:about="">
        <dc:format>image/svg+xml</dc:format>
        <dc:type
           rdf:resource="http://purl.org/dc/dcmitype/StillImage" />
        <dc:title></dc:title>
      </cc:Work>
    </rdf:RDF>
  </metadata>
  <defs
     id="defs4194" />
  <sodipodi:namedview
     pagecolor="#ffffff"
     bordercolor="#666666"
     borderopacity="1"
     objecttolerance="10"
     gridtolerance="10"
     guidetolerance="10"
     inkscape:pageopacity="0"
     inkscape:pageshadow="2"
     inkscape:window-width="1440"
     inkscape:window-height="855"
     id="namedview4192"
     showgrid="false"
     fit-margin-top="10"
     fit-margin-left="10"
     fit-margin-right="10"
     fit-margin-bottom="10"
     inkscape:zoom="0.97035431"
     inkscape:cx="382.05273"
     inkscape:cy="30.35833"
     inkscape:window-x="0"
     inkscape:window-y="0"
     inkscape:window-maximized="0"
     inkscape:current-layer="svg4190" />
  <path
     style="fill:#85a2d1;fill-opacity:0.63250881"
     d="m 576.8022,206.86951 c 0,-8.24707 -0.46775,-11.95957 -1.5625,-12.40131 -1.25,-0.50439 -1.25,-0.65021 0,-0.72916 0.85937,-0.0542 1.5625,-1.45807 1.5625,-3.11953 0,-1.66145 -0.70313,-3.30455 -1.5625,-3.65131 -1.25,-0.50439 -1.25,-0.65021 0,-0.72916 0.85937,-0.0542 1.5625,-1.45807 1.5625,-3.11953 0,-1.66145 -0.70313,-3.30455 -1.5625,-3.65131 -1.25,-0.50439 -1.25,-0.65021 0,-0.72916 0.85937,-0.0542 1.5625,-1.50494 1.5625,-3.22369 l 0,-3.125 -75,0 -75,0 0,3.02084 c 0,1.66145 0.70312,3.30455 1.5625,3.65131 1.25,0.50439 1.25,0.65021 0,0.72916 -0.85938,0.0542 -1.5625,1.45806 -1.5625,3.11953 0,1.66145 0.70312,3.30455 1.5625,3.65131 1.25,0.50439 1.25,0.65021 0,0.72916 -1.87254,0.11825 -2.13085,6.34869 -0.26321,6.34869 0.8763,0 0.86242,0.50866 -0.0426,1.5625 -0.73805,0.85937 -2.02585,2.49008 -2.86179,3.62378 -1.98532,2.69256 -6.03426,3.81312 -8.39486,2.32332 -1.52629,-0.96325 -1.59192,-1.64018 -0.3529,-3.63981 1.32378,-2.13641 1.16089,-2.5264 -1.25,-2.99292 -1.52465,-0.29503 0.18103,-0.61302 3.7904,-0.70665 6.08294,-0.15778 6.5625,-0.39381 6.5625,-3.2299 0,-2.79941 -0.55824,-3.09872 -6.5625,-3.51877 l -6.5625,-0.4591 6.5625,-0.23123 c 6.06633,-0.21373 6.5625,-0.46256 6.5625,-3.2909 0,-2.79941 -0.55824,-3.09872 -6.5625,-3.51877 l -6.5625,-0.4591 6.5625,-0.23123 c 6.12156,-0.21568 6.5625,-0.44313 6.5625,-3.38503 0,-3.02653 -0.119,-3.07584 -2.94887,-1.22165 -2.89105,1.89426 -7.05117,1.44688 -7.05117,-0.75828 0,-0.64261 -31.82367,-1.11626 -75,-1.11626 l -75,0 0,3.02084 c 0,1.66145 0.70312,3.30455 1.5625,3.65131 1.25,0.50439 1.25,0.65021 0,0.72916 -0.85938,0.0542 -1.5625,1.45806 -1.5625,3.11953 0,1.66145 0.70312,3.30455 1.5625,3.65131 1.25,0.50439 1.25,0.65021 0,0.72916 -1.87254,0.11825 -2.13085,6.34869 -0.26321,6.34869 0.76648,0 0.63833,0.80561 -0.3125,1.9646 -5.86005,7.14277 -7.3253,7.88354 -10.98679,5.5544 -1.52617,-0.97082 -1.59182,-1.64973 -0.3529,-3.64921 1.32377,-2.13641 1.16089,-2.5264 -1.25,-2.99292 -1.52465,-0.29503 0.18102,-0.61302 3.7904,-0.70665 6.12127,-0.15877 6.5625,-0.38033 6.5625,-3.29522 0,-2.91158 -0.4482,-3.13841 -6.5625,-3.32138 l -6.5625,-0.19638 6.25,-0.74112 c 5.20586,-0.61731 6.31524,-1.19962 6.64052,-3.4856 0.35349,-2.48422 -0.23915,-2.78825 -6.25,-3.20626 l -6.64052,-0.46181 6.5625,-0.23123 c 5.76709,-0.2032 6.5625,-0.55045 6.5625,-2.86496 0,-2.63445 -0.0934,-2.63929 -5.77632,-0.29946 -0.77073,0.31734 -2.27743,-0.29912 -3.34822,-1.36991 -1.71895,-1.71894 -10.66534,-1.94689 -76.41117,-1.94689 l -74.46429,0 0,3.02084 c 0,1.66145 0.70312,3.30455 1.5625,3.65131 1.25,0.50439 1.25,0.65021 0,0.72916 -2.03481,0.12852 -2.03481,5.94978 0,6.77084 1.25,0.50439 1.25,0.65021 0,0.72916 -1.89836,0.11988 -2.11736,6.34869 -0.22321,6.34869 0.7366,0 0.45535,0.88392 -0.625,1.96429 -1.08037,1.08035 -1.96429,2.46863 -1.96429,3.08507 0,0.61644 -1.50966,1.91179 -3.354792,2.87855 -3.1556,1.65338 -3.20397,1.80563 -0.8147,2.56395 2.704002,0.85821 5.419492,5.59963 5.419492,9.46279 0,1.28536 0.70312,2.58318 1.5625,2.88403 0.85937,0.30086 -4.76665,0.5257 -12.502282,0.49966 l -14.06477,-0.0474 2.28492,-2.58299 c 2.73658,-3.09353 2.3089,-7.96063 -0.49502,-5.63358 -1.37281,1.13934 -1.92449,1.0175 -2.5293,-0.55863 -1.15515,-3.0103 0.29476,-5.65687 3.83691,-7.0036 4.30419,-1.63643 9.40704,0.39564 9.40704,3.74612 0,3.03148 -3.31068,4.68103 -5.33403,2.65768 -1.05463,-1.0546 -0.84711,-1.41594 0.81319,-1.41594 2.74101,0 1.98759,-2.97006 -0.89525,-3.52915 -2.36105,-0.45791 -2.98311,4.07588 -0.7487,5.45681 0.73438,0.45388 1.00593,1.68336 0.60344,2.73221 -0.75489,1.96722 1.27539,5.34013 3.2144,5.34013 0.60333,0 1.09695,-1.4239 1.09695,-3.16423 0,-3.57126 3.15981,-5.43188 5.39652,-3.1777 1.14134,1.15027 0.97965,1.30014 -0.70902,0.65725 -1.30878,-0.49826 -2.1875,-0.24731 -2.1875,0.62472 0,0.80162 0.62276,1.07261 1.38391,0.6022 0.93129,-0.57557 1.10815,0.0135 0.54078,1.80122 -1.34935,4.25143 0.10762,3.07382 2.71356,-2.1933 l 2.399502,-4.84982 -3.808492,-3.29289 c -3.27405,-2.83079 -3.59811,-3.62976 -2.30927,-5.69353 1.29381,-2.07173 1.11942,-2.47412 -1.27289,-2.93705 -1.52465,-0.29503 0.18103,-0.61302 3.7904,-0.70665 6.082942,-0.15778 6.562502,-0.39381 6.562502,-3.2299 0,-2.79941 -0.55824,-3.09872 -6.562502,-3.51877 l -6.5625,-0.4591 6.5625,-0.23123 c 6.066332,-0.21373 6.562502,-0.46256 6.562502,-3.2909 0,-2.79941 -0.55824,-3.09872 -6.562502,-3.51877 l -6.5625,-0.4591 6.5625,-0.23123 c 6.121562,-0.21568 6.562502,-0.44313 6.562502,-3.38503 0,-3.02653 -0.119,-3.07584 -2.94887,-1.22165 -2.891012,1.89426 -7.051132,1.44688 -7.051132,-0.75828 0,-0.62843 -15.29549,-1.11626 -35,-1.11626 l -35,0 0,-66.25 0,-66.249996 7.5,0 c 6.70617,0 7.5,-0.26885 7.5,-2.54015 0,-3.52817 3.35246,-11.20985 4.89224,-11.20985 1.95031,0 4.10072,4.84173 4.23367,9.53234 0.11563,4.07991 0.28499,4.21704 5.18433,4.19852 3.08245,-0.0116 4.43847,-0.41656 3.46461,-1.03454 -1.28718,-0.81679 -1.24864,-1.69296 0.19704,-4.47948 1.53107,-2.95115 1.87863,-3.12187 2.34725,-1.15296 0.47818,2.00914 0.71267,1.91219 1.79456,-0.74199 l 1.2445,-3.05312 0.81979,3.26629 c 0.45087,1.79646 0.47885,4.15473 0.0621,5.24061 -0.67886,1.76919 2.76319,1.97433 33.12615,1.97433 l 33.883742,0 0,-4.375 0,-4.375 54.375,0 54.375,0 0,4.375 0,4.375 26.25,0 26.25,0 0,-4.375 0,-4.375 55,0 55,0 0,4.375 0,4.375 26.25,0 26.25,0 0,-7.5 0,-7.5 54.375,0 54.375,0 0,7.5 0,7.5 30.06208,0 c 24.75634,0 30.72582,-0.34323 33.82284,-1.94477 7.86177,-4.06548 22.91236,-6.96396 39.86508,-7.67733 19.93491,-0.83885 35.08936,0.88554 48.60788,5.53097 7.32838,2.5183 12.96679,3.43666 24.51712,3.99328 l 15,0.72285 0.32388,64.919196 c 0.25496,51.10694 -0.0113,65.13179 -1.25,65.91836 -0.86564,0.54954 -19.43326,1.00778 -41.26138,1.0183 l -39.6875,0.0191 0,18.57027 0,18.57029 -10.3125,0.84978 c -5.67188,0.46737 -26.02104,2.517 -45.22035,4.55472 -19.19933,2.03772 -35.9337,3.70494 -37.1875,3.70494 -2.04481,0 -2.27965,-1.2126 -2.27965,-11.77084 z m -475.3399,3.33334 c -0.49829,-2.08334 -0.56855,-2.08334 -1.475392,0 -0.5237,1.20312 -0.5237,3.17187 0,4.375 0.906842,2.08334 0.977102,2.08334 1.475392,0 0.28776,-1.20313 0.28776,-3.17188 0,-4.375 z m 503.4649,1.53206 c 25.5352,-2.50515 53.48681,-5.43029 60.3125,-6.31172 l 5.3125,-0.68603 0,-16.1734 0,-16.17341 -41.05795,0 c -34.77115,0 -41.65913,0.2999 -44.98409,1.95861 -2.15936,1.07724 -4.49579,1.60654 -5.19203,1.17623 -0.69627,-0.43031 -1.26593,0.0945 -1.26593,1.16638 0,1.48822 1.55096,2.00343 6.5625,2.18 l 6.5625,0.23123 -6.5625,0.4591 c -6.00426,0.42005 -6.5625,0.71936 -6.5625,3.51877 0,2.82834 0.49617,3.07717 6.5625,3.2909 l 6.5625,0.23123 -6.5625,0.4591 c -6.00426,0.42005 -6.5625,0.71936 -6.5625,3.51877 0,2.84518 0.46007,3.06659 6.5625,3.15837 3.60937,0.0542 5.85937,0.3824 5,0.72916 -0.85938,0.34676 -1.5625,1.41439 -1.5625,2.3725 0,2.36477 -5.77939,5.99771 -8.11535,5.10132 -1.5373,-0.58992 -1.88465,0.53092 -1.88465,6.08131 0,6.72685 0.0393,6.79807 3.4375,6.23911 1.89062,-0.31099 12.4375,-1.44838 23.4375,-2.52753 z M 81.962868,204.57785 c 1.3589,-2.55028 1.30473,-2.65255 -0.58102,-1.09695 -1.14381,0.94356 -2.07965,2.20919 -2.07965,2.8125 0,1.90936 1.11079,1.19315 2.66067,-1.71555 z m 13.03792,-35.27275 c 1.33452,-1.00938 3.69203,-1.85312 5.238912,-1.875 1.67459,-0.0236 2.8125,-0.81399 2.8125,-1.95338 0,-1.6811 -4.138802,-1.86516 -34.062502,-1.51475 -18.73438,0.21938 -35.41609,0.88787 -37.07046,1.48553 -2.17618,0.78616 -2.76069,0.68655 -2.11373,-0.36025 0.5883,-0.95189 -0.20012,-1.4469 -2.30454,-1.4469 -2.72086,0 -3.19877,0.56028 -3.19877,3.75 l 0,3.75 34.13609,0 c 28.07945,0 34.5666,-0.32563 36.5625,-1.83525 z m 161.250002,0 c 1.33452,-1.00938 3.69203,-1.85312 5.23891,-1.875 1.649,-0.0232 2.8125,-0.81541 2.8125,-1.91475 0,-1.64714 -9.72223,-1.875 -80,-1.875 l -80,0 0,3.75 0,3.75 74.76109,0 c 63.79945,0 75.11685,-0.26909 77.1875,-1.83525 z m 161.25,0 c 1.33452,-1.00938 3.69203,-1.85312 5.23891,-1.875 1.649,-0.0232 2.8125,-0.81541 2.8125,-1.91475 0,-1.64714 -9.72223,-1.875 -80,-1.875 l -80,0 0,3.75 0,3.75 74.76109,0 c 63.79945,0 75.11685,-0.26909 77.1875,-1.83525 z m 162.35282,-0.0795 c 3.13001,-2.36743 6.83013,-2.34844 7.74655,0.0397 0.61939,1.61409 6.4411,1.875 41.83578,1.875 l 41.11626,5e-5 0,-3.75 0,-3.75 -121.875,0 -121.875,0 0,3.75 0,3.75 75.3125,-0.0397 c 64.24099,-0.0339 75.6692,-0.30955 77.73891,-1.875 z m 171.94859,-1.83525 0,-3.75 -40,0 -40,0 0,3.75 0,3.75 40,0 40,0 0,-3.75 z M 35.766268,160.32161 c 3.66863,-3.32005 2.72342,-4.18126 -4.58907,-4.18126 -6.5,0 -6.875,0.17045 -6.875,3.125 0,2.76586 0.5274,3.125 4.58907,3.125 2.52399,0 5.61774,-0.93093 6.875,-2.06874 z m 34.78593,1.36156 c 0,-0.38895 -0.58854,-1.80687 -1.30786,-3.15093 -1.01638,-1.89912 -2.40893,-2.36834 -6.24817,-2.10533 -2.71717,0.18614 -4.94113,0.87281 -4.94213,1.52594 -10e-4,0.65312 -0.67684,0.5125 -1.50184,-0.3125 -0.825,-0.825 -4.13531,-1.5 -7.35624,-1.5 -4.8673,0 -6.20201,0.52771 -7.90381,3.125 l -2.04759,3.125 15.65383,0 c 8.6096,0 15.65381,-0.31823 15.65381,-0.70718 z m 32.500002,-2.36838 0,-3.17444 -15.000002,0 c -13.71212,0 -15,0.19676 -15,2.29166 0,1.26043 0.3149,2.60658 0.69977,2.99145 0.38488,0.38488 7.13488,0.78211 15,0.88276 l 14.300232,0.183 0,-3.17443 z m 161.25,-0.0495 0,-3.125 -39.6875,0.0397 c -32.91605,0.033 -40.10149,0.35288 -42.11391,1.875 -3.14008,2.37503 -7.73208,2.35394 -8.65063,-0.0397 -0.61545,-1.60384 -5.69641,-1.875 -35.13373,-1.875 l -34.41423,6e-5 0,3.125 0,3.125 80,0 80,0 0,-3.125 z m 161.25,0 0,-3.125 -39.6875,0.0397 c -32.91605,0.033 -40.10149,0.35288 -42.11391,1.875 -3.14008,2.37503 -7.73208,2.35394 -8.65063,-0.0397 -0.61545,-1.60384 -5.69641,-1.875 -35.13374,-1.875 l -34.41422,6e-5 0,3.125 0,3.125 80,0 80,0 0,-3.125 z m 245,0 0,-3.125 -81.5625,0.0397 c -69.73647,0.034 -81.91431,0.30586 -83.98891,1.875 -3.14008,2.37503 -7.73208,2.35394 -8.65063,-0.0397 -0.61545,-1.60384 -5.69641,-1.875 -35.13374,-1.875 l -34.41422,6e-5 0,3.125 0,3.125 121.875,0 121.875,0 0,-3.125 z m 81.25,0 0,-3.125 -40,0 -40,0 0,3.125 0,3.125 40,0 40,0 0,-3.125 z m -711.475562,-7.8125 c 0.3006,-2.11653 -0.22246,-2.8125 -2.11373,-2.8125 -1.38225,0 -2.86081,0.5625 -3.28571,1.25 -0.4249,0.6875 -1.86435,1.25 -3.19877,1.25 -1.33443,6e-5 -2.42623,-0.56244 -2.42623,-1.24994 0,-0.6875 -1.125,-1.25 -2.5,-1.25 -1.84582,0 -2.5,0.83334 -2.5,3.18465 0,3.11286 0.1761,3.17625 7.8125,2.8125 7.0169,-0.33425 7.85317,-0.65856 8.21194,-3.18465 z m 14.85131,1.07226 c 0.81241,-1.30088 1.13521,-2.70713 0.71735,-3.125 -1.21739,-1.21733 -10.3431,-0.87499 -10.3431,0.38806 0,0.63128 -0.34142,2.03753 -0.75874,3.125 -1.19104,3.10381 8.42828,2.7444 10.38449,-0.388 z m -7.12575,-0.1347 c 0,-0.6875 0.5625,-1.25 1.25,-1.25 0.6875,0 1.25,0.5625 1.25,1.25 0,0.6875 -0.5625,1.25 -1.25,1.25 -0.6875,0 -1.25,-0.5625 -1.25,-1.25 z m 21.76005,-0.625 2.04759,-3.125 -4.71633,0 c -4.1974,0 -4.71631,0.34382 -4.71631,3.125 0,2.35752 0.65541,3.125 2.66874,3.125 1.4678,0 3.59015,-1.40625 4.71631,-3.125 z m 33.239952,0 0,-3.125 -12.653052,0 c -10.75061,0 -12.43298,0.26519 -11.18931,1.76371 1.12062,1.35028 1.11205,1.98109 -0.0366,2.69098 -0.84416,0.52172 -2.1471,0.0428 -2.97919,-1.09523 -1.1257,-1.53947 -1.8267,-1.67464 -2.93537,-0.56596 -0.80103,0.80107 -1.45645,1.9065 -1.45645,2.4565 0,0.55 7.03125,1 15.625,1 l 15.625002,0 0,-3.125 z m 73.125,1.875 c 0.4249,-0.6875 2.1456,-1.25 3.82377,-1.25 1.87887,0 3.05123,-0.72043 3.05123,-1.875 0,-1.62699 -5.20834,-1.875 -39.375,-1.875 l -39.375,0 0,3.125 0,3.125 35.55122,0 c 22.35247,0 35.83805,-0.46408 36.32378,-1.25 z m 88.125,-1.875 0,-3.125 -40,0 -40,0 0,3.125 0,3.125 40,0 40,0 0,-3.125 z m 73.125,1.875 c 0.4249,-0.6875 2.42685,-1.25 4.44877,-1.25 2.43443,0 3.67623,-0.63336 3.67623,-1.875 0,-1.6276 -5.27778,-1.875 -40,-1.875 l -40,0 0,3.125 0,3.125 35.55123,0 c 22.35246,0 35.83804,-0.46408 36.32377,-1.25 z m 88.125,-1.875 0,-3.125 -39.375,0 -39.375,0 0,3.125 0,3.125 39.375,0 39.375,0 0,-3.125 z m 73.125,1.875 c 0.4249,-0.6875 2.42685,-1.25 4.44877,-1.25 2.43443,0 3.67623,-0.63336 3.67623,-1.875 0,-1.6276 -5.27778,-1.875 -40,-1.875 l -40,0 0,3.125 0,3.125 35.55123,0 c 22.35246,0 35.83804,-0.46408 36.32377,-1.25 z m 171.875,-1.875 0,-3.125 -81.10428,0 -81.10428,0 -0.59738,3.125 -0.59739,3.125 81.70167,0 81.70166,0 0,-3.125 z m 81.25,0 0,-3.125 -40,0 -40,0 0,3.125 0,3.125 40,0 40,0 0,-3.125 z m -721.989952,-7.5 c 2.0284,-3.09574 2.01219,-3.125 -1.73123,-3.125 -3.19741,0 -3.77882,0.48081 -3.77882,3.125 0,1.82911 0.71792,3.125 1.73124,3.125 0.95218,0 2.65265,-1.40625 3.77881,-3.125 z m 10.73995,2.125 c 0,-1.7195 -2.9059,-4 -5.09695,-4 -1.15331,0 -2.86894,0.95172 -3.8125,2.11495 -0.97731,1.20485 -1.08035,1.73397 -0.23943,1.22961 0.81188,-0.48694 1.82945,-0.31366 2.26128,0.38505 0.92427,1.49551 6.8876,1.72961 6.8876,0.27039 z m 14.50994,-1.1875 c 2.76787,-3.64621 2.07261,-4.064 -6.69744,-4.02449 -6.34193,0.0285 -7.8942,0.35445 -6.25,1.31211 1.20312,0.70075 2.1875,2.0899 2.1875,3.08699 0,2.70421 8.65142,2.403 10.75994,-0.37461 z m -7.00994,-0.3125 c 0,-0.6875 0.5625,-1.25 1.25,-1.25 0.6875,0 1.25,0.5625 1.25,1.25 0,0.6875 -0.5625,1.25 -1.25,1.25 -0.6875,0 -1.25,-0.5625 -1.25,-1.25 z m 55.000002,-0.625 0,-3.125 -20.312502,8.9e-4 -20.3125,8.7e-4 -0.18026,3.12413 -0.18028,3.12411 20.49278,0 20.492762,0 0,-3.125 z m 72.06989,-0.01 1.4449,-3.11525 -36.1324,0 -36.13239,0 0,3.125 0,3.125 34.6875,-0.01 34.6875,-0.01 1.44489,-3.11525 z m 89.18011,0.01 0,-3.125 -40,0 -40,0 0,3.125 0,3.125 40,0 40,0 0,-3.125 z m 72.06989,-0.01 1.4449,-3.11525 -36.1324,0 -36.13239,0 0,3.125 0,3.125 34.6875,-0.01 34.6875,-0.01 1.44489,-3.11525 z m 89.18011,0.01 0,-3.125 -39.375,0 -39.375,0 0,3.125 0,3.125 39.375,0 39.375,0 0,-3.125 z m 72.06989,-0.01 1.4449,-3.11525 -36.1324,0 -36.13239,0 0,3.125 0,3.125 34.6875,-0.01 34.6875,-0.01 1.44489,-3.11525 z m 172.93011,0.01 0,-3.125 -81.25,0 -81.25,0 0,3.125 0,3.125 81.25,0 81.25,0 0,-3.125 z m 81.25,0 0,-3.125 -34.6875,0.01 -34.6875,0.01 -1.44489,3.11525 -1.4449,3.11525 36.1324,0 36.13239,0 0,-3.125 z m -691.875002,-1.875 c 0.4249,-0.6875 0.17685,-1.25 -0.55123,-1.25 -0.72807,0 -1.32377,0.5625 -1.32377,1.25 0,0.6875 0.24805,1.25 0.55122,1.25 0.30318,0 0.89888,-0.5625 1.32378,-1.25 z m 43.125002,-9.78336 0,-7.25248 16.5625,-2.0878 c 9.10937,-1.14829 26.125,-3.23375 37.8125,-4.63437 11.6875,-1.40061 22.51562,-2.82626 24.0625,-3.16809 2.77087,-0.61233 2.8125,-0.4362 2.8125,11.90229 l 0,12.52381 40,0 40,0 0,-7.27315 0,-7.27314 29.0625,-3.48478 c 15.98437,-1.91663 34.2596,-4.181 40.6116,-5.03193 6.352,-0.85092 11.83638,-1.25986 12.1875,-0.90873 0.35112,0.35112 0.6384,5.8884 0.6384,12.30506 l 0,11.66667 39.375,0 39.375,0 0,-7.27315 0,-7.27314 29.0625,-3.48478 c 15.98437,-1.91663 34.24014,-4.17831 40.56836,-5.02594 13.58609,-1.8198 12.86914,-2.51809 12.86914,12.53424 l 0,10.52277 81.25,0 81.25,0 0,-2.99126 c 0,-1.6452 -0.84375,-3.31504 -1.875,-3.71078 -1.03125,-0.39572 -1.875,-2.09074 -1.875,-3.76671 0,-2.43179 -0.5049,-2.91517 -2.5,-2.39344 -2.33322,0.61016 -2.4875,0.0812 -2.31271,-7.92952 0.103,-4.72081 0.41575,-7.09731 0.69497,-5.28111 0.39285,2.55525 1.05733,3.15844 2.93771,2.66671 2.0759,-0.54286 2.43003,0.0233 2.43003,3.88532 0,4.88479 1.83889,6.07297 3.12543,2.01946 1.02047,-3.21526 5.03233,-5.35511 8.17178,-4.35868 2.75741,0.87517 3.25375,3.71744 0.90289,5.17036 -1.05492,0.65198 -0.55592,1.23454 1.5625,1.82417 2.25314,0.62712 1.30064,0.90068 -3.4501,0.99088 -6.13344,0.11645 -6.5625,0.32891 -6.5625,3.2496 0,2.93408 0.40094,3.12618 6.5625,3.14414 3.60937,0.01 5.95066,0.4324 5.20285,0.9375 -0.7478,0.5051 -1.67951,2.18399 -2.07047,3.73086 l -0.71083,2.8125 35.50797,0 35.50798,0 0,-34.375 0,-34.374996 -12.5,0 -12.5,0 0,11.25 0,11.25 -58.125,0 -58.125,0 -0.12462,-10.9375 c -0.0842,-7.39667 -0.44857,-9.92583 -1.12538,-7.8125 l -1.0008,3.125 -0.12463,-2.94623 c -0.0879,-2.07994 -0.67588,-2.73468 -1.99957,-2.22673 -1.03125,0.39572 -1.875,0.17466 -1.875,-0.49127 0,-0.73309 -8.30448,-1.21077 -21.04935,-1.21077 l -21.04936,0 -1.40814,3.09052 c -1.60115,3.51416 -7.18051,5.47212 -9.36587,3.28676 -1.08624,-1.08624 -1.06117,-2.04576 0.10212,-3.90848 1.52552,-2.44276 1.02071,-2.4688 -47.87475,-2.4688 l -49.41652,0 -1.12332,2.95452 c -1.18929,3.12809 -3.62879,4.54548 -7.8233,4.54548 -2.17112,0 -2.44157,-0.56218 -1.80401,-3.75 l 0.75,-3.75 -22.0073,0 -22.0073,0 0.69646,4.29184 c 0.866,5.3365 -3.43828,10.70816 -8.5804,10.70816 -2.8784,0 -3.24932,-0.42412 -2.73302,-3.125 0.40058,-2.09551 0.0367,-3.125 -1.10428,-3.125 -1.87432,0 -2.34042,-2.04631 -0.61689,-2.70833 0.59662,-0.22917 1.47828,-1.68229 1.95923,-3.22917 0.84807,-2.72762 0.6173,-2.81226 -7.64726,-2.80459 -8.15363,0.007 -8.61373,0.16955 -10.6511,3.75 -1.50094,2.63771 -3.08037,3.74209 -5.35173,3.74209 -3.73246,0 -5.3674,-2.94585 -3.1307,-5.64092 1.35585,-1.63369 -1.16557,-1.85812 -20.79766,-1.85117 l -22.34055,0.008 -2.12936,3.74209 c -1.50094,2.63772 -3.08037,3.7421 -5.35173,3.7421 -3.76505,0 -5.36163,-2.9528 -3.08187,-5.69975 1.41036,-1.69938 0.53761,-1.87561 -7.6594,-1.54658 -7.89647,0.31696 -9.31684,0.71548 -9.69988,2.72155 -0.24681,1.29262 0.30973,2.88232 1.23675,3.53266 1.31319,0.92127 1.34035,1.32249 0.123,1.81645 -0.85939,0.34871 -1.56251,1.41109 -1.56251,2.36086 0,2.10887 -3.86686,4.31481 -7.56355,4.31481 -2.21275,0 -2.61854,-0.57207 -2.1488,-3.02932 0.43312,-2.26576 -0.0815,-3.24437 -2.04178,-3.8825 -2.29186,-0.74607 -2.34627,-0.9265 -0.43337,-1.43733 1.20312,-0.32129 2.1875,-1.05941 2.1875,-1.64027 0,-0.58086 0.34651,-1.95911 0.77002,-3.06278 0.69215,-1.80368 -1.48733,-1.97208 -21.54643,-1.66473 -20.70104,0.31718 -22.34916,0.51206 -22.76803,2.69215 -0.24835,1.29262 0.30693,2.88232 1.23395,3.53266 1.31319,0.92127 1.34035,1.32249 0.123,1.81645 -0.85939,0.34871 -1.56251,1.41109 -1.56251,2.36086 0,2.10887 -3.86686,4.31481 -7.56355,4.31481 -2.21275,0 -2.61854,-0.57207 -2.1488,-3.02932 0.43312,-2.26576 -0.0815,-3.24437 -2.04178,-3.8825 -2.29186,-0.74607 -2.34627,-0.9265 -0.43337,-1.43733 1.20312,-0.32129 2.1875,-1.05941 2.1875,-1.64027 0,-0.58086 0.34143,-1.94586 0.75874,-3.03334 0.64657,-1.68495 -0.50834,-1.97607 -7.8125,-1.96933 -8.2086,0.008 -8.66133,0.16622 -10.7006,3.75 -1.50094,2.63771 -3.08037,3.74209 -5.35173,3.74209 -3.73246,0 -5.3674,-2.94585 -3.1307,-5.64092 1.35585,-1.63369 -1.16557,-1.85812 -20.79766,-1.85117 l -22.34055,0.008 -2.12936,3.74209 c -1.50094,2.63772 -3.08037,3.7421 -5.35173,3.7421 -3.76505,0 -5.36164,-2.9528 -3.08187,-5.69975 1.41036,-1.69938 0.53761,-1.87561 -7.6594,-1.54658 -7.89647,0.31696 -9.31684,0.71548 -9.69988,2.72155 -0.24681,1.29262 0.30973,2.88232 1.23675,3.53266 1.31319,0.92127 1.34035,1.32249 0.123,1.81645 -0.85939,0.34871 -1.56251,1.41109 -1.56251,2.36086 0,2.10887 -3.86686,4.31481 -7.56355,4.31481 -2.21275,0 -2.61854,-0.57207 -2.1488,-3.02932 0.43312,-2.26576 -0.0815,-3.24437 -2.04178,-3.8825 -1.93807,-0.6309 -2.13238,-0.991 -0.74587,-1.3822 1.03125,-0.29097 2.5252,-1.91885 3.31989,-3.61751 l 1.4449,-3.08847 -38.007402,0 -38.00739,0 -0.0191,3.4375 c -0.0248,4.44226 -1.16009,6.12223 -5.16715,7.64571 -2.46358,0.93665 -3.92586,0.77351 -5.98318,-0.6675 -3.77762,-2.64593 -3.03257,-7.29071 1.16946,-7.29071 2.5877,0 3.11652,0.59103 3.07572,3.4375 -0.0271,1.89063 0.60715,3.4375 1.40944,3.4375 2.60151,0 4.57326,-3.60095 3.75561,-6.85876 -0.75969,-3.02673 -1.15209,-3.14124 -10.76461,-3.14124 l -9.97619,0 0,34.352566 0,34.35257 39.375,0.007 39.375002,0.007 0,-7.25249 z m -2.89724,-18.53054 c -0.447652,-0.44765 -0.0507,-1.43203 0.88185,-2.1875 0.93268,-0.75548 2.28929,-3.16838 3.01473,-5.362 1.09183,-3.30162 1.01173,-3.87051 -0.46519,-3.30377 -1.68161,0.6453 -2.31938,2.1939 -1.89311,4.59686 0.10287,0.58008 -0.53362,0.80904 -1.41448,0.50881 -0.880862,-0.30024 -1.490772,-1.89985 -1.355372,-3.55469 0.23242,-2.8405 0.16648,-2.81652 -1.1788,0.42869 -1.43338,3.45773 -3.44239,4.64505 -3.44239,2.03444 0,-1.024 -0.46575,-1.01652 -1.72398,0.0277 -1.38102,1.14614 -1.85631,0.74142 -2.38918,-2.03444 -0.93692,-4.88069 0.93917,-6.577136 6.3961,-5.783636 4.512192,0.656116 9.652452,0.696036 14.591462,0.11331 1.76948,-0.20877 2.61885,0.546556 2.90845,2.586406 0.49866,3.51244 -1.76741,6.49369 -4.9359,6.49369 -2.23905,0 -2.88726,1.24517 -2.44026,4.6875 0.20867,1.60696 -5.09032,2.21221 -6.55393,0.7486 z m 11.64724,-11.92501 c 0,-1.78923 -2.20754,-1.07622 -2.99126,0.96615 -1.36654,3.56113 -0.71759,4.94847 1.15601,2.47135 1.00939,-1.33453 1.83525,-2.8814 1.83525,-3.4375 z m 44.05915,0.17284 c -7.73854,-1.37228 -20.22896,-5.602586 -22.11126,-7.488736 -0.72759,-0.72907 0.67502,-0.49152 3.11692,0.52789 19.87431,8.296926 66.48719,7.794616 85.52599,-0.92163 7.93528,-3.63289 8.9249,-3.48768 2.41349,0.35415 -9.50104,5.605746 -21.05354,7.866336 -42.37929,8.292746 -11,0.21996 -22.95463,-0.12403 -26.56585,-0.76442 z m 161.25,-0.0703 c -7.60479,-1.26719 -20.18447,-5.487756 -22.11126,-7.418476 -0.72759,-0.72907 0.67502,-0.49152 3.11692,0.52789 19.96945,8.336636 66.24581,7.796756 85.83849,-1.00144 5.88055,-2.64069 6.64135,-2.78182 4.0967,-0.75992 -3.74195,2.97322 -11.3263,5.64216 -23.15136,8.146996 -9.60098,2.03371 -36.88483,2.322 -47.78949,0.50495 z M 478.0522,94.355424 c -10.58714,-1.96052 -17.03949,-4.16604 -22.8125,-7.79769 -6.82547,-4.29372 -5.73426,-4.49391 1.91443,-0.35121 8.95281,4.84905 24.79895,7.44424 45.12431,7.39018 19.81343,-0.0527 33.78068,-2.35759 43.51063,-7.1802 3.99473,-1.97997 7.26313,-3.42165 7.26313,-3.20374 0,0.88075 -9.65994,6.35954 -13.75,7.79852 -13.8799,4.88328 -44.04464,6.53022 -61.25,3.34414 z M 174.94329,137.07781 c 0.76262,-1.73827 2.54685,-2.96357 4.67141,-3.20802 3.27971,-0.37738 3.4375,-0.7073 3.4375,-7.18751 0,-3.73558 -0.42188,-6.78649 -0.9375,-6.77978 -0.51563,0.007 -16.6875,1.97246 -35.9375,4.36834 -19.25,2.39589 -36.54688,4.35916 -38.4375,4.36282 -3.23975,0.006 -3.4375,0.33023 -3.4375,5.63165 l 0,5.625 34.70359,0 34.70358,0 1.23392,-2.8125 z m 161.25,0 c 0.84641,-1.92926 2.5097,-2.93551 5.29641,-3.2042 4.04969,-0.39046 4.0625,-0.41364 4.0625,-7.34726 l 0,-6.95556 -4.6875,0.70799 c -2.57813,0.3894 -19.875,2.48877 -38.4375,4.66527 -18.5625,2.1765 -34.45313,4.16214 -35.3125,4.41253 -0.91633,0.26699 -1.5625,2.53926 -1.5625,5.4945 l 0,5.03923 34.70359,0 34.70359,0 1.23391,-2.8125 z m 161.25,0 c 0.84641,-1.92926 2.5097,-2.93551 5.29641,-3.2042 4.04969,-0.39046 4.0625,-0.41364 4.0625,-7.34726 l 0,-6.95556 -4.6875,0.70799 c -2.57813,0.3894 -19.875,2.48877 -38.4375,4.66527 -18.5625,2.1765 -34.45313,4.16214 -35.3125,4.41253 -0.91633,0.26699 -1.5625,2.53926 -1.5625,5.4945 l 0,5.03923 34.70359,0 34.70359,0 1.23391,-2.8125 z m 173.10891,-7.8125 c 0,-1.71875 -0.5625,-3.125 -1.25,-3.125 -0.6875,0 -1.25,1.40625 -1.25,3.125 0,1.71875 0.5625,3.125 1.25,3.125 0.6875,0 1.25,-1.40625 1.25,-3.125 z m -3.75,-8.2195 c 0,-1.55493 -0.62212,-2.08831 -1.875,-1.60753 -1.03125,0.39572 -1.875,1.76667 -1.875,3.04653 0,1.55493 0.62212,2.08831 1.875,1.60753 1.03125,-0.39572 1.875,-1.76667 1.875,-3.04653 z M 632.16034,88.970384 c -3.58428,-0.25163 -9.77178,-0.25394 -13.75,-0.005 -3.97823,0.24882 -1.04564,0.4547 6.51686,0.45752 7.5625,0.003 10.81741,-0.20076 7.23314,-0.45239 z m 31.25635,-0.004 c -4.26829,-0.24334 -11.58079,-0.24513 -16.25,-0.004 -4.66923,0.24116 -1.17699,0.44026 7.76051,0.44245 8.9375,0.002 12.75776,-0.19513 8.48949,-0.43847 z m 29.32301,4.2e-4 c -3.95313,-0.24807 -10.42188,-0.24807 -14.375,0 -3.95313,0.24806 -0.71875,0.45102 7.1875,0.45102 7.90625,0 11.14062,-0.20296 7.1875,-0.45102 z m 26.875,0.002 c -3.60938,-0.25251 -9.51563,-0.25251 -13.125,0 -3.60938,0.2525 -0.65625,0.45909 6.5625,0.45909 7.21875,0 10.17187,-0.20659 6.5625,-0.45909 z m -81.5625,-11.57845 0,-6.25 -13.125,0 -13.125,0 0,6.25 0,6.25 13.125,0 13.125,0 0,-6.25 z m 32.5,0 0,-6.25 -15.625,0 -15.625,0 0,6.25 0,6.25 15.625,0 15.625,0 0,-6.25 z m 28.75,0 0,-6.25 -13.75,0 -13.75,0 0,6.25 0,6.25 13.75,0 13.75,0 0,-6.25 z m 26.25,0 0,-6.25 -12.5,0 -12.5,0 0,6.25 0,6.25 12.5,0 12.5,0 0,-6.25 z M 31.620898,66.786954 c -3.90763,-4.11964 -7.3187,-4.1297 -7.3187,-0.0216 0,2.82582 0.49125,3.125 5.1312,3.125 l 5.1312,0 -2.9437,-3.1034 z m 11.71201,2.40602 c 1.49718,-1.49718 -0.69411,-5.55262 -3.00027,-5.55262 -1.33539,0 -2.08034,0.5625 -1.65544,1.25 0.4249,0.6875 0.21004,1.25 -0.47746,1.25 -0.6875,0 -1.59764,-0.5625 -2.02254,-1.25 -1.17862,-1.90706 -4.39061,-1.49515 -3.63785,0.46652 1.13621,2.96093 8.90696,5.7227 10.79356,3.8361 z m 53.24185,-2.42762 1.42384,-3.125 -23.26736,0 c -23.21288,0 -23.27414,0.007 -26.16352,3.125 l -2.89615,3.125 24.73967,0 24.73967,0 1.42385,-3.125 z m 32.727442,0 0,-3.125 -14.79935,0 c -14.572962,0 -14.821152,0.0478 -16.223212,3.125 l -1.42384,3.125 16.223202,0 16.2232,0 0,-3.125 z m 27.5,0.73358 c 0,-2.15228 -0.38509,-2.24606 -3.851,-0.93782 -3.2882,1.24115 -4.08474,1.13394 -5.45031,-0.73359 -1.22242,-1.67175 -3.40788,-2.18717 -9.27399,-2.18717 -7.35301,0 -7.6747,0.13099 -7.6747,3.125 l 0,3.125 13.125,0 c 12.09302,0 13.125,-0.18803 13.125,-2.39142 z m 53.75,0 c 0,-2.15228 -0.38509,-2.24606 -3.851,-0.93782 -3.2882,1.24115 -4.08474,1.13394 -5.45031,-0.73359 -2.0644,-2.82323 -15.1267,-3.01301 -18.7501,-0.27241 -3.19317,2.41518 -8.19859,2.39091 -8.19859,-0.0397 0,-1.47436 -1.73611,-1.875 -8.125,-1.875 -7.83334,0 -8.125,0.11217 -8.125,3.125 l 0,3.125 26.25,0 c 25.01939,0 26.25,-0.11211 26.25,-2.39142 z m 26.25,-0.73358 c 0,-3.125 0,-3.125 -12.5,-3.125 -12.5,0 -12.5,0 -12.5,3.125 0,3.125 0,3.125 12.5,3.125 12.5,0 12.5,0 12.5,-3.125 z m 21.02256,0 1.42384,-3.125 -10.5982,0 c -10.47141,0 -10.5982,0.0374 -10.5982,3.125 0,3.04948 0.22171,3.125 9.17435,3.125 8.57296,0 9.2677,-0.20485 10.59821,-3.125 z m 32.72744,0 0,-3.125 -14.79935,0 c -14.57296,0 -14.82115,0.0478 -16.22321,3.125 l -1.42384,3.125 16.2232,0 16.2232,0 0,-3.125 z m 27.5,0.73358 c 0,-2.15228 -0.38509,-2.24606 -3.851,-0.93782 -3.2882,1.24115 -4.08474,1.13394 -5.45031,-0.73359 -1.22241,-1.67175 -3.40788,-2.18717 -9.27399,-2.18717 -7.35301,0 -7.6747,0.13099 -7.6747,3.125 l 0,3.125 13.125,0 c 12.09302,0 13.125,-0.18803 13.125,-2.39142 z m 53.75,0 c 0,-2.15228 -0.38509,-2.24606 -3.851,-0.93782 -3.2882,1.24115 -4.08474,1.13394 -5.45031,-0.73359 -2.07557,-2.83851 -15.28449,-3.0845 -18.89728,-0.35192 -3.21206,2.42948 -8.05141,2.45337 -8.05141,0.0397 0,-1.47436 -1.73611,-1.875 -8.125,-1.875 -7.83334,0 -8.125,0.11218 -8.125,3.125 l 0,3.125 26.25,0 c 25.01939,0 26.25,-0.11211 26.25,-2.39142 z m 27.5,-0.73358 0,-3.125 -13.125,0 -13.125,0 0,3.125 0,3.125 13.125,0 13.125,0 0,-3.125 z m 19.77256,0 1.42384,-3.125 -9.9732,0 c -9.80475,0 -9.9732,0.0528 -9.9732,3.125 0,3.02873 0.26337,3.125 8.54935,3.125 7.9063,0 8.65646,-0.23505 9.97321,-3.125 z m 33.97744,0.625 c 0,-2.63635 -1.8186,-3.36379 -3.125,-1.25 -1.2429,2.01106 -6.875,1.49905 -6.875,-0.625 0,-1.51677 -1.9916,-1.875 -10.42435,-1.875 -9.9063,0 -10.49512,0.15531 -11.84821,3.125 l -1.42384,3.125 16.8482,0 c 16.01486,0 16.8482,-0.12365 16.8482,-2.5 z m 107.5,0.10858 c 0,-2.15229 -0.38509,-2.24607 -3.851,-0.93783 -3.2882,1.24115 -4.08474,1.13394 -5.45031,-0.73358 -2.0809,-2.8458 -16.34098,-3.04004 -20.0001,-0.27242 -3.13001,2.36742 -6.83013,2.34843 -7.74655,-0.0398 -1.04788,-2.73071 -42.3878,-2.69498 -46.00345,0.0398 -3.13001,2.36742 -6.83013,2.34843 -7.74655,-0.0398 -0.52694,-1.37315 -2.6911,-1.875 -8.08578,-1.875 -7.02401,0 -7.36626,0.1452 -7.36626,3.125 l 0,3.125 53.125,0 c 51.48764,0 53.125,-0.0737 53.125,-2.39142 z m 20.13333,-1.04608 c 1.01973,-2.76803 0.87866,-2.8125 -8.92361,-2.8125 -9.83611,0 -9.95972,0.0395 -9.95972,3.17977 0,3.1437 0.10125,3.17559 8.9236,2.8125 7.94502,-0.32699 9.03722,-0.67569 9.95972,-3.17977 z m 23.61667,0.3125 c 0,-3.08511 -0.13391,-3.125 -10.49126,-3.125 -10.4643,0 -12.00874,0.6562 -12.00874,5.10224 0,0.63127 5.0625,1.14776 11.25,1.14776 11.16666,0 11.25,-0.0231 11.25,-3.125 z m 3.75,0.625 c 0,-1.375 -0.5625,-2.5 -1.25,-2.5 -0.6875,0 -1.25,1.125 -1.25,2.5 0,1.375 0.5625,2.5 1.25,2.5 0.6875,0 1.25,-1.125 1.25,-2.5 z m 2.11624,-2.16371 c -0.31693,-1.21621 -0.59708,-0.52379 -0.62255,1.53871 -0.0255,2.0625 0.23382,3.05758 0.57623,2.21129 0.3424,-0.84629 0.36324,-2.53379 0.0464,-3.75 z m 27.88376,1.53871 c 0,-3.02469 -0.27084,-3.125 -8.4375,-3.125 -8.16666,0 -8.4375,0.10032 -8.4375,3.125 0,3.02469 0.27084,3.125 8.4375,3.125 8.16666,0 8.4375,-0.10031 8.4375,-3.125 z m 32.5,0 0,-3.125 -15.625,0 -15.625,0 0,3.125 0,3.125 15.625,0 15.625,0 0,-3.125 z m 28.75,0 0,-3.125 -13.75,0 -13.75,0 0,3.125 0,3.125 13.75,0 13.75,0 0,-3.125 z m 26.25,0 c 0,-3.125 0,-3.125 -12.5,-3.125 -12.5,0 -12.5,0 -12.5,3.125 0,3.125 0,3.125 12.5,3.125 12.5,0 12.5,0 12.5,-3.125 z m 26.25,0 c 0,-3.0157 -0.28675,-3.125 -8.19878,-3.125 -5.37692,0 -7.92122,0.44907 -7.39238,1.30476 0.44351,0.71762 0.12659,2.12387 -0.70428,3.125 -1.29857,1.56468 -0.26069,1.82024 7.39239,1.82024 8.66325,0 8.90305,-0.0842 8.90305,-3.125 z m -704.547962,-1.25 c 0.43827,-1.14214 0.002,-1.875 -1.11627,-1.875 -1.00967,0 -1.83577,0.84375 -1.83577,1.875 0,1.03125 0.50232,1.875 1.11626,1.875 0.61395,0 1.44004,-0.84375 1.83578,-1.875 z m -18.8961,-6.25 c 0.46414,-2.42802 0.07846,-3.125 -1.72928,-3.125 -1.64844,0 -2.32666,0.91094 -2.32666,3.125 0,1.82741 0.71805,3.125 1.72928,3.125 0.9511,0 1.9981,-1.40625 2.32666,-3.125 z m 8.01395,-0.01 c 1.25291,-2.70136 1.14611,-3.1153 -0.80377,-3.1153 -2.06822,0 -3.76612,2.30026 -3.76612,5.10224 0,2.38529 3.18409,1.00085 4.56989,-1.98699 z m 5.43011,1.29898 c 0,-1.11824 -0.73286,-1.55454 -1.875,-1.11626 -1.03125,0.39573 -1.875,1.22182 -1.875,1.83577 0,0.61394 0.84375,1.11626 1.875,1.11626 1.03125,0 1.875,-0.82609 1.875,-1.83577 z m 4.71354,0.3514 c -0.77259,-2.31783 -3.46354,-2.70225 -3.46354,-0.49484 0,1.08854 0.89062,1.97916 1.97916,1.97916 1.08855,0 1.75652,-0.66797 1.48438,-1.48437 z m 24.03646,0.77715 c 0,-0.38895 -0.58229,-1.7952 -1.29398,-3.125 -1.11106,-2.07604 -2.68476,-2.41783 -11.1324,-2.41783 l -9.83841,0 1.4449,3.11525 c 1.35741,2.92665 2.03138,3.11584 11.13239,3.125 5.32812,0.005 9.6875,-0.30848 9.6875,-0.69742 z m 26.34267,-0.35443 c -3.42243,-0.99587 -5.04822,-3.9384 -2.17601,-3.9384 1.03125,0 2.0957,0.66209 2.36544,1.47132 0.26975,0.80922 1.16037,1.05727 1.97917,0.55123 3.880132,-2.39806 0.44714,-3.27255 -12.84704,-3.27255 -13.12724,0 -14.26773,0.18441 -13.52868,2.1875 1.27635,3.45934 2.41473,3.74544 15.18493,3.81633 6.62998,0.0368 10.68997,-0.33014 9.0222,-0.81543 z m 32.407332,-2.0634 0,-3.125 -13.75,0 c -7.5625,0 -13.75,0.5165 -13.75,1.14777 0,0.63127 -0.34143,2.03752 -0.75874,3.125 -0.66501,1.73299 1.03349,1.97723 13.75,1.97723 l 14.50874,0 0,-3.125 z m 21.04204,1.16639 c 2.15936,-1.07723 4.49578,-1.60654 5.19203,-1.17623 0.69627,0.43031 1.26593,-0.0946 1.26593,-1.16639 0,-1.64129 -2.07085,-1.94877 -13.125,-1.94877 l -13.125,0 0,3.125 c 0,3.00506 0.30448,3.125 7.93295,3.125 4.69824,0 9.53386,-0.79863 11.85909,-1.95861 z m 25.20796,0.70861 c 1.25,-0.80781 1.35416,-1.2181 0.3125,-1.23086 -0.85938,-0.0105 -1.5625,-0.86289 -1.5625,-1.89414 0,-1.47436 -1.73611,-1.875 -8.125,-1.875 -7.83334,0 -8.125,0.11218 -8.125,3.125 0,3.00204 0.3074,3.12425 7.8125,3.10586 4.29687,-0.0105 8.65625,-0.56441 9.6875,-1.23086 z m 28.54204,-0.70861 c 2.15936,-1.07723 4.49578,-1.60654 5.19203,-1.17623 0.69627,0.43031 1.26593,-0.0946 1.26593,-1.16639 0,-1.64129 -2.07085,-1.94877 -13.125,-1.94877 l -13.125,0 0,3.125 c 0,3.00506 0.30448,3.125 7.93295,3.125 4.69824,0 9.53386,-0.79863 11.85909,-1.95861 z m 32.70796,-1.16639 c 0,-3.125 0,-3.125 -12.5,-3.125 -12.5,0 -12.5,0 -12.5,3.125 0,3.125 0,3.125 12.5,3.125 12.5,0 12.5,0 12.5,-3.125 z m 21.34267,2.02842 c -3.4149,-0.95428 -5.05892,-3.90342 -2.17601,-3.90342 1.03125,0 2.0957,0.66209 2.36544,1.47132 0.26975,0.80922 1.16037,1.05727 1.97918,0.55123 3.71796,-2.29784 0.62447,-3.27255 -10.38628,-3.27255 -11.83334,0 -11.875,0.011 -11.875,3.125 0,3.11709 0.0292,3.12469 11.5625,3.0004 6.41899,-0.0692 10.21359,-0.50155 8.53017,-0.97198 z m 32.40733,-2.02842 0,-3.125 -13.75,0 c -7.5625,0 -13.75,0.5165 -13.75,1.14777 0,0.63127 -0.34143,2.03752 -0.75874,3.125 -0.66501,1.73299 1.03349,1.97723 13.75,1.97723 l 14.50874,0 0,-3.125 z m 21.04204,1.16639 c 2.15936,-1.07723 4.49578,-1.60654 5.19203,-1.17623 0.69627,0.43031 1.26593,-0.0946 1.26593,-1.16639 0,-1.64129 -2.07085,-1.94877 -13.125,-1.94877 l -13.125,0 0,3.125 c 0,3.00506 0.30448,3.125 7.93295,3.125 4.69824,0 9.53386,-0.79863 11.85909,-1.95861 z m 25.20796,0.70861 c 1.25,-0.80781 1.35416,-1.2181 0.3125,-1.23086 -0.85938,-0.0105 -1.5625,-0.86289 -1.5625,-1.89414 0,-1.47436 -1.73611,-1.875 -8.125,-1.875 -7.83334,0 -8.125,0.11218 -8.125,3.125 0,3.00204 0.3074,3.12425 7.8125,3.10586 4.29687,-0.0105 8.65625,-0.56441 9.6875,-1.23086 z m 28.54204,-0.70861 c 2.15936,-1.07723 4.49578,-1.60654 5.19203,-1.17623 0.69627,0.43031 1.26593,-0.0946 1.26593,-1.16639 0,-1.63357 -1.99818,-1.94877 -12.35428,-1.94877 -12.18526,0 -12.36245,0.0428 -12.95166,3.125 -0.58531,3.06189 -0.44066,3.125 7.16223,3.125 4.54087,0 9.3882,-0.81244 11.68575,-1.95861 z m 33.95796,-1.16639 0,-3.125 -13.125,0 -13.125,0 0,3.125 0,3.125 13.125,0 13.125,0 0,-3.125 z m 19.0625,2.24284 c -1.54688,-0.29794 -2.8125,-1.34634 -2.8125,-2.32978 0,-2.14592 3.33505,-2.40791 4.0321,-0.31674 0.26975,0.80922 1.16037,1.05727 1.97918,0.55123 3.66906,-2.26761 0.67157,-3.27255 -9.76128,-3.27255 -11.16666,0 -11.25,0.0231 -11.25,3.125 0,3.09457 0.1005,3.12335 10.3125,2.95478 5.67187,-0.0936 9.04687,-0.414 7.5,-0.71194 z m 27.17039,-0.98399 c 1.98481,-1.02639 4.48812,-1.5287 5.56292,-1.11626 1.27264,0.48835 1.95419,0.0493 1.95419,-1.25885 0,-1.72853 -2.0052,-2.00874 -14.375,-2.00874 -7.90625,0 -14.375,0.5165 -14.375,1.14777 0,0.63127 -0.34143,2.03752 -0.75874,3.125 -0.65115,1.69688 0.5983,1.97723 8.81208,1.97723 6.0424,0 10.90122,-0.68798 13.17955,-1.86615 z m 25.36021,1.10639 c 0.41786,-0.41787 0.0951,-1.82412 -0.71735,-3.125 -1.17131,-1.87556 -2.96761,-2.36524 -8.67644,-2.36524 -6.84594,0 -7.19931,0.15339 -7.19931,3.125 0,3.00439 0.30555,3.125 7.91666,3.125 4.35418,0 8.25856,-0.34189 8.67644,-0.75976 z m 53.75,0 c 0.41786,-0.41787 0.0951,-1.82412 -0.71735,-3.125 -1.1882,-1.9026 -2.9464,-2.35746 -8.98894,-2.32548 -4.6139,0.0244 -8.44787,0.74775 -9.93822,1.875 -3.19316,2.41518 -8.19859,2.39091 -8.19859,-0.0398 0,-1.47436 -1.73611,-1.875 -8.125,-1.875 -7.83334,0 -8.125,0.11218 -8.125,3.125 l 0,3.125 21.66666,0 c 11.91668,0 22.00856,-0.34189 22.42644,-0.75976 z m 29.06623,-1.25268 c 1.68926,-1.10684 3.91946,-1.68699 4.95602,-1.28923 1.1523,0.44218 1.88465,0.01 1.88465,-1.11256 0,-1.4978 -2.41632,-1.83577 -13.125,-1.83577 l -13.125,0 0,3.125 c 0,3.01455 0.28874,3.125 8.16898,3.125 5.40411,0 9.20851,-0.68113 11.24035,-2.01244 z m 27.07939,0.95034 c -3.28473,-0.92512 -3.83193,-3.11277 -0.92974,-3.71705 1.06756,-0.22229 1.94102,0.19959 1.94102,0.9375 0,2.00323 2.12606,1.61911 2.95204,-0.53335 0.60834,-1.58531 -1.10914,-1.875 -11.11627,-1.875 -11.79148,0 -11.83577,0.0117 -11.83577,3.125 0,3.10473 0.0709,3.12419 10.9375,3.0004 6.01562,-0.0685 9.63868,-0.4904 8.05122,-0.9375 z m 23.6815,-1.7504 c 0.17013,-2.81074 0.17057,-2.81079 0.70102,-0.0834 0.74256,3.81801 5.37876,3.39126 5.37876,-0.49509 0,-2.77728 -0.33814,-2.859 -11.83103,-2.859 -10.41766,0 -11.9856,0.28884 -13.125,2.41783 -0.71168,1.3298 -1.29397,2.73605 -1.29397,3.125 0,0.38894 4.5,0.70717 10,0.70717 9.4866,0 10.00874,-0.14439 10.17022,-2.8125 z m 33.57978,-0.3125 c 0,-3.0163 -0.28571,-3.125 -8.21429,-3.125 -5.63492,0 -8.80305,0.58877 -10.08928,1.875 -1.03125,1.03125 -3.24107,1.875 -4.91072,1.875 -1.66964,0 -3.03571,0.5625 -3.03571,1.25 0,0.75397 5.20834,1.25 13.125,1.25 l 13.125,0 0,-3.125 z m 32.5,0 c 0,-3.09866 -0.0935,-3.125 -11.09695,-3.125 -8.339,0 -11.48367,0.466 -12.65305,1.875 -0.85586,1.03125 -2.89349,1.875 -4.52805,1.875 -1.63458,0 -2.97195,0.5625 -2.97195,1.25 0,0.76667 6.04166,1.25 15.625,1.25 l 15.625,0 0,-3.125 z m 28.75,0 0,-3.125 -13.75,0 -13.75,0 0,3.125 0,3.125 13.75,0 13.75,0 0,-3.125 z m 26.25,0 c 0,-3.00424 -0.3019,-3.12346 -7.8125,-3.08524 -4.87883,0.0248 -8.72364,0.72891 -10.23891,1.875 -1.33453,1.00938 -3.4439,1.83524 -4.6875,1.83524 -1.2436,0 -2.26109,0.5625 -2.26109,1.25 0,0.75 5,1.25 12.5,1.25 12.5,0 12.5,0 12.5,-3.125 z m 26.25,0 c 0,-3.00666 -0.30188,-3.125 -7.97195,-3.125 -5.56123,0 -8.4425,0.567 -9.52805,1.875 -0.85586,1.03125 -2.89349,1.875 -4.52805,1.875 -1.63458,0 -2.97195,0.5625 -2.97195,1.25 0,0.75 5,1.25 12.5,1.25 12.5,0 12.5,0 12.5,-3.125 z m -406.25,-0.625 c 0,-0.6875 -0.24805,-1.25 -0.55123,-1.25 -0.30317,0 -0.89887,0.5625 -1.32377,1.25 -0.4249,0.6875 -0.17685,1.25 0.55123,1.25 0.72807,0 1.32377,-0.5625 1.32377,-1.25 z m -314.053292,-7.1875 c 1.81099,-2.74102 1.74315,-2.8125 -2.66924,-2.8125 -4.02865,0 -4.52747,0.35389 -4.52747,3.21194 0,2.5712 0.53248,3.13226 2.66925,2.8125 1.46809,-0.21969 3.50545,-1.66506 4.52746,-3.21194 z m 9.05329,1.5625 c 0,-1.03125 -0.77488,-1.875 -1.72195,-1.875 -0.94706,0 -2.42219,0.84375 -3.27805,1.875 -1.31594,1.5856 -1.05015,1.875 1.72195,1.875 2.08049,0 3.27805,-0.68498 3.27805,-1.875 z m 29.30267,-1.31505 2.09022,-3.19005 -6.63395,0.27704 c -3.64867,0.15238 -7.0472,0.88478 -7.5523,1.62756 -0.62227,0.91508 -0.92453,0.84673 -0.9375,-0.212 -0.0134,-1.0904 -2.51443,-1.5625 -8.27788,-1.5625 -7.01734,0 -8.14469,0.29721 -7.5,1.97724 0.41732,1.08748 0.75874,2.49373 0.75874,3.125 0,0.63127 5.84156,1.14776 12.98124,1.14776 12.53788,0 13.05262,-0.10895 15.07143,-3.19005 z m 29.75983,2.30789 c -3.11204,-0.59941 -3.91308,-4.11784 -0.9375,-4.11784 1.03125,0 1.875002,0.54485 1.875002,1.21077 0,0.66593 0.85013,0.88455 1.88917,0.48583 1.35182,-0.51874 1.66933,-0.15202 1.11627,1.28923 -0.68083,1.77422 0.80666,2.01417 12.48582,2.01417 l 13.25874,0 0,-3.125 0,-3.125 -25.77805,0 c -22.049212,0 -25.566332,0.25513 -24.314312,1.76372 1.12062,1.35027 1.11205,1.98108 -0.0366,2.69097 -0.84416,0.52172 -2.1471,0.0427 -2.97919,-1.09522 -1.1257,-1.53948 -1.8267,-1.67464 -2.93537,-0.56597 -0.80106,0.80108 -1.45648,1.9065 -1.45648,2.4565 0,0.55 6.89062,0.9234 15.3125,0.82978 8.42187,-0.0936 14.046872,-0.414 12.5,-0.71194 z m 57.187502,-2.24284 0,-3.125 -13.125,0 -13.125,0 0,3.125 0,3.125 13.125,0 13.125,0 0,-3.125 z m 20.61401,1.14226 c 1.66433,-1.09051 3.61329,-1.61981 4.33101,-1.17623 0.71774,0.44358 1.30498,-0.0704 1.30498,-1.14226 0,-1.63511 -2.01191,-1.94877 -12.5,-1.94877 -12.5,0 -12.5,0 -12.5,3.125 0,3.01455 0.28874,3.125 8.16897,3.125 5.35345,0 9.21195,-0.68337 11.19504,-1.98274 z m 33.13599,-1.14226 0,-3.125 -13.125,0 -13.125,0 0,3.125 0,3.125 13.125,0 13.125,0 0,-3.125 z m 26.25,0 c 0,-3.125 0,-3.125 -12.5,-3.125 -12.5,0 -12.5,0 -12.5,3.125 0,3.125 0,3.125 12.5,3.125 12.5,0 12.5,0 12.5,-3.125 z m 24.0625,2.24284 c -3.11204,-0.59941 -3.91308,-4.11784 -0.9375,-4.11784 1.03125,0 1.875,0.54485 1.875,1.21077 0,0.66593 0.85012,0.88455 1.88918,0.48583 1.35181,-0.51874 1.66932,-0.15202 1.11626,1.28923 -0.68083,1.77422 0.80666,2.01417 12.48582,2.01417 l 13.25874,0 0,-3.125 0,-3.125 -26.25,0 -26.25,0 0,3.125 0,3.125 12.8125,-0.17022 c 7.04687,-0.0936 11.54687,-0.414 10,-0.71194 z m 57.1875,-2.24284 0,-3.125 -13.125,0 -13.125,0 0,3.125 0,3.125 13.125,0 13.125,0 0,-3.125 z m 20.55943,1.20439 c 1.33893,-1.01261 3.44831,-1.51932 4.6875,-1.12601 1.51661,0.48135 2.25307,0.0747 2.25307,-1.24414 0,-1.65459 -2.04088,-1.95924 -13.125,-1.95924 l -13.125,0 0,3.125 c 0,3.02862 0.26024,3.12378 8.4375,3.08525 5.44157,-0.0256 9.3019,-0.69348 10.87193,-1.88086 z m 33.19057,-1.20439 c 0,-3.125 0,-3.125 -12.5,-3.125 -12.5,0 -12.5,0 -12.5,3.125 0,3.125 0,3.125 12.5,3.125 12.5,0 12.5,0 12.5,-3.125 z m 27.5,0 0,-3.125 -13.125,0 -13.125,0 0,3.125 0,3.125 13.125,0 13.125,0 0,-3.125 z m 22.8125,2.24284 c -3.11204,-0.59941 -3.91308,-4.11784 -0.9375,-4.11784 1.03125,0 1.875,0.54485 1.875,1.21077 0,0.66593 0.85012,0.88455 1.88918,0.48583 1.35181,-0.51874 1.66932,-0.15202 1.11626,1.28923 -0.68218,1.77773 0.85691,2.01417 13.11082,2.01417 l 13.88374,0 0,-3.125 0,-3.125 -26.25,0 -26.25,0 0,3.125 0,3.125 12.1875,-0.17022 c 6.70312,-0.0936 10.92187,-0.414 9.375,-0.71194 z m 50.34683,-1.13028 c 1.68926,-1.10684 3.91946,-1.68699 4.95602,-1.28923 1.1523,0.44218 1.88465,0.01 1.88465,-1.11256 0,-1.49197 -2.34095,-1.83577 -12.5,-1.83577 -12.5,0 -12.5,0 -12.5,3.125 0,2.98814 0.3304,3.125 7.54398,3.125 4.82958,0 8.64908,-0.72409 10.61535,-2.01244 z m 25.93377,1.25268 c 0.41786,-0.41787 0.0951,-1.82412 -0.71735,-3.125 -1.19349,-1.91108 -2.97947,-2.36524 -9.30144,-2.36524 -7.5126,0 -7.82431,0.1245 -7.82431,3.125 0,3.02846 0.26389,3.125 8.54166,3.125 4.69793,0 8.88356,-0.34189 9.30144,-0.75976 z m 28.19894,-1.19885 c 2.15936,-1.07723 4.49578,-1.60654 5.19204,-1.17623 0.69626,0.43031 1.26592,-0.0946 1.26592,-1.16639 0,-1.63357 -1.99818,-1.94877 -12.35428,-1.94877 -12.18526,0 -12.36245,0.0428 -12.95166,3.125 -0.58531,3.06189 -0.44066,3.125 7.16223,3.125 4.54087,0 9.3882,-0.81244 11.68575,-1.95861 z m 33.95796,-1.16639 0,-3.125 -13.125,0 -13.125,0 0,3.125 0,3.125 13.125,0 13.125,0 0,-3.125 z m 22.8125,1.83605 c -3.17486,-1.27614 -3.78999,-3.71105 -0.9375,-3.71105 1.03125,0 1.875,0.62268 1.875,1.38374 0,0.76105 0.90638,1.03592 2.01418,0.61082 1.44125,-0.55306 1.80797,-0.23554 1.28923,1.11627 -0.61552,1.60402 1.07091,1.88917 11.17289,1.88917 8.10597,0 13.04796,-0.59474 15.50659,-1.86615 3.54975,-1.83564 7.51711,-1.43987 7.51711,0.74989 0,0.61394 3.65625,1.11626 8.125,1.11626 7.83334,0 8.125,-0.11217 8.125,-3.125 l 0,-3.125 -38.125,0 -38.125,0 0,3.125 0,3.125 12.1875,-0.0792 c 8.57171,-0.0557 11.35309,-0.41462 9.375,-1.20972 z m 87.1875,-1.67174 c 0,-2.8759 -0.31904,-2.96716 -11.13849,-3.18607 -11.20288,-0.22667 -13.26252,0.49578 -11.85683,4.15896 0.61814,1.61087 2.87068,1.9878 11.87906,1.9878 10.85951,0 11.11626,-0.0684 11.11626,-2.96069 z m 28.75,-0.16431 c 0,-3.04963 -0.21856,-3.12404 -9.0625,-3.08524 -5.97976,0.0262 -9.88788,0.66404 -11.48891,1.875 -1.33453,1.00938 -3.4439,1.83524 -4.6875,1.83524 -1.2436,0 -2.26109,0.5625 -2.26109,1.25 0,0.75758 5.41666,1.25 13.75,1.25 l 13.75,0 0,-3.125 z m 29.88074,1.12214 c 3.68266,-1.83715 4.19795,-1.83715 6.22797,0 1.4824,1.34155 4.55383,2.00286 9.30222,2.00286 6.72834,0 7.08907,-0.15901 7.08907,-3.125 l 0,-3.125 -21.17622,0 c -11.64693,0 -21.4925,0.51174 -21.87907,1.1372 -0.38655,0.62546 -0.35956,2.03171 0.06,3.125 1.0522,2.74198 14.86992,2.73177 20.37607,-0.0151 z M 506.8022,51.140054 c 0,-0.6875 -0.5625,-1.25 -1.25,-1.25 -0.6875,0 -1.25,0.5625 -1.25,1.25 0,0.6875 0.5625,1.25 1.25,1.25 0.6875,0 1.25,-0.5625 1.25,-1.25 z m -470.250002,-5.25 c 3.2892,-3.2892 1.6362,-4.75 -5.375,-4.75 -6.5,0 -6.875,0.17046 -6.875,3.125 0,2.84884 0.475,3.125 5.375,3.125 2.95625,0 6.05,-0.675 6.875,-1.5 z m 18.20204,-0.375 c -0.39574,-1.03125 -0.0968,-1.875 0.66422,-1.875 0.76106,0 1.38374,-0.5625 1.38374,-1.25 0,-0.6875 -2.18531,-1.25 -4.85624,-1.25 -3.80064,0 -5.30132,0.67929 -6.90381,3.125 l -2.04759,3.125 6.23959,0 c 5.03275,0 6.10042,-0.36265 5.52009,-1.875 z m 74.547962,-1.25 0,-3.125 -33.437502,8.9e-4 -33.4375,8.8e-4 -0.18026,3.12412 -0.18028,3.12411 33.61778,0 33.617762,0 0,-3.125 z m 27.5,0 0,-3.125 -13.125,0 -13.125,0 0,3.125 0,3.125 13.125,0 13.125,0 0,-3.125 z m 26.25,0 c 0,-3.125 0,-3.125 -12.5,-3.125 -12.5,0 -12.5,0 -12.5,3.125 0,3.125 0,3.125 12.5,3.125 12.5,0 12.5,0 12.5,-3.125 z m 27.5,0 0,-3.125 -13.125,0 -13.125,0 0,3.125 0,3.125 13.125,0 13.125,0 0,-3.125 z m 26.25,0 c 0,-3.125 0,-3.125 -12.5,-3.125 -12.5,0 -12.5,0 -12.5,3.125 0,3.125 0,3.125 12.5,3.125 12.5,0 12.5,0 12.5,-3.125 z m 53.75,0 0,-3.125 -26.25,0 -26.25,0 0,3.125 0,3.125 26.25,0 26.25,0 0,-3.125 z m 27.5,0 0,-3.125 -13.125,0 -13.125,0 0,3.125 0,3.125 13.125,0 13.125,0 0,-3.125 z m 27.5,0 0,-3.125 -13.125,0 -13.125,0 0,3.125 0,3.125 13.125,0 13.125,0 0,-3.125 z m 26.25,0 c 0,-3.125 0,-3.125 -12.5,-3.125 -12.5,0 -12.5,0 -12.5,3.125 0,3.125 0,3.125 12.5,3.125 12.5,0 12.5,0 12.5,-3.125 z m 27.5,0 0,-3.125 -13.125,0 -13.125,0 0,3.125 0,3.125 13.125,0 13.125,0 0,-3.125 z m 53.75,0 0,-3.125 -26.25,0 -26.25,0 0,3.125 0,3.125 26.25,0 26.25,0 0,-3.125 z m 26.25,0 c 0,-3.125 0,-3.125 -12.5,-3.125 -12.5,0 -12.5,0 -12.5,3.125 0,3.125 0,3.125 12.5,3.125 12.5,0 12.5,0 12.5,-3.125 z m 19.54461,1.26613 c 1.96921,-1.02239 4.56476,-1.54698 5.76789,-1.16577 1.44771,0.45871 2.1875,0.0305 2.1875,-1.26612 0,-1.65459 -2.04088,-1.95924 -13.125,-1.95924 l -13.125,0 0,3.125 c 0,2.97937 0.34286,3.125 7.35711,3.125 4.07289,0 8.95542,-0.8298 10.9375,-1.85887 z m 34.20539,-1.26613 c 0,-3.125 0,-3.125 -12.5,-3.125 -12.5,0 -12.5,0 -12.5,3.125 0,3.125 0,3.125 12.5,3.125 12.5,0 12.5,0 12.5,-3.125 z m 27.5,0 0,-3.125 -13.125,0 -13.125,0 0,3.125 0,3.125 13.125,0 13.125,0 0,-3.125 z m 81.21074,0.9375 c 3.72698,-2.08333 3.99135,-2.08333 5.5516,0 1.31023,1.74949 3.55045,2.1875 11.18796,2.1875 5.32685,0 9.5497,-0.5354 9.5497,-1.21077 0,-0.66592 -0.84375,-0.88699 -1.875,-0.49126 -1.2982,0.49817 -1.875,-0.0844 -1.875,-1.89377 0,-2.60836 -0.0965,-2.6133 -51.25,-2.62482 l -51.25,-0.0115 0,3.11608 0,3.11608 38.0237,0 c 33.88892,0 38.44925,-0.23787 41.93704,-2.1875 z m 28.4055,-2.47621 c -0.31693,-1.21621 -0.59708,-0.52379 -0.62255,1.53871 -0.0255,2.0625 0.23382,3.05758 0.57623,2.21129 0.3424,-0.84629 0.36324,-2.53379 0.0464,-3.75 z m 32.8445,2.47621 c 3.72698,-2.08333 3.99135,-2.08333 5.5516,0 1.44546,1.93006 4.08616,2.1875 22.43796,2.1875 l 20.7997,0 0,-3.125 c 0,-3.11539 -0.0367,-3.125 -11.94878,-3.125 -8.37017,0 -11.69431,0.41172 -11.09915,1.37471 0.6178,0.99962 0.14874,0.99962 -1.71905,0 -3.28856,-1.75998 -46.0186,-1.88744 -47.09827,-0.14048 -3.01511,4.87854 15.37575,7.13259 23.07599,2.82827 z M 44.493318,36.845074 c 0.76314,-1.67491 1.01167,-4.02478 0.55228,-5.22193 -0.72031,-1.8771 -1.06561,-1.93108 -2.50914,-0.39221 -0.92064,0.98143 -2.03569,3.3313 -2.47788,5.22192 -1.04808,4.48101 2.43154,4.78875 4.43474,0.39222 z m 16.05888,1.79528 c 0,-0.6875 -0.24805,-1.25 -0.55123,-1.25 -0.30317,0 -0.89887,0.5625 -1.32377,1.25 -0.4249,0.6875 -0.17685,1.25 0.55122,1.25 0.72808,0 1.32378,-0.5625 1.32378,-1.25 z m 418.750002,-1.25 c 0,-2.33333 -0.83334,-2.5 -12.5,-2.5 -11.66666,0 -12.5,0.16667 -12.5,2.5 0,2.33334 0.83334,2.5 12.5,2.5 11.66666,0 12.5,-0.16666 12.5,-2.5 z m 27.5,0 c 0,-2.34127 -0.83334,-2.5 -13.125,-2.5 -12.29166,0 -13.125,0.15873 -13.125,2.5 0,2.34127 0.83334,2.5 13.125,2.5 12.29166,0 13.125,-0.15873 13.125,-2.5 z m 26.25,0 c 0,-2.33333 -0.83334,-2.5 -12.5,-2.5 -11.66666,0 -12.5,0.16667 -12.5,2.5 0,2.33334 0.83334,2.5 12.5,2.5 11.66666,0 12.5,-0.16666 12.5,-2.5 z m 27.5,0 c 0,-2.34127 -0.83334,-2.5 -13.125,-2.5 -12.29166,0 -13.125,0.15873 -13.125,2.5 0,2.34127 0.83334,2.5 13.125,2.5 12.29166,0 13.125,-0.15873 13.125,-2.5 z m 103.75,-1.25 c 0,-3.40251 -0.37644,-3.7477 -4.0625,-3.72524 -7.0262,0.0428 -20.02136,2.28718 -27.8125,4.80341 l -7.5,2.4222 19.6875,0.12482 19.6875,0.12481 0,-3.75 z m 3.75,2.5 c 0,-0.6875 -0.24805,-1.25 -0.55122,-1.25 -0.30318,0 -0.89888,0.5625 -1.32378,1.25 -0.4249,0.6875 -0.17685,1.25 0.55122,1.25 0.72808,0 1.32378,-0.5625 1.32378,-1.25 z m 5.55141,-0.66475 c 3.13001,-2.36742 6.83013,-2.34843 7.74655,0.0397 0.59691,1.5555 4.03369,1.875 20.16912,1.875 10.69727,0 19.12528,-0.3243 18.72892,-0.72066 -0.39636,-0.39637 -4.84949,-1.82588 -9.89582,-3.17671 -11.06523,-2.96197 -44.80018,-4.87178 -44.80018,-2.53622 0,0.78847 0.84375,1.43359 1.875,1.43359 1.04166,0 1.875,1.11111 1.875,2.5 0,2.94718 0.99896,3.0831 4.30141,0.58525 z m -522.69327,-2.75522 c -3.58428,-0.25163 -9.77178,-0.25394 -13.75,-0.005 -3.97823,0.24882 -1.04564,0.4547 6.51686,0.45752 7.5625,0.003 10.81741,-0.20076 7.23314,-0.45239 z m 26.20436,-0.002 c -3.60938,-0.2525 -9.51563,-0.2525 -13.125,0 -3.60938,0.25251 -0.65625,0.4591 6.5625,0.4591 7.21875,0 10.17187,-0.20659 6.5625,-0.4591 z m 27.54564,0.002 c -3.58428,-0.25163 -9.77178,-0.25394 -13.75,-0.005 -3.97823,0.24882 -1.04564,0.4547 6.51686,0.45752 7.5625,0.003 10.81741,-0.20076 7.23314,-0.45239 z m 26.20436,-0.002 c -3.60938,-0.2525 -9.51563,-0.2525 -13.125,0 -3.60938,0.25251 -0.65625,0.4591 6.5625,0.4591 7.21875,0 10.17187,-0.20659 6.5625,-0.4591 z m 81.29564,0.002 c -3.58428,-0.25163 -9.77178,-0.25394 -13.75,-0.005 -3.97823,0.24882 -1.04564,0.4547 6.51686,0.45752 7.5625,0.003 10.81741,-0.20076 7.23314,-0.45239 z m 27.5,0 c -3.58428,-0.25163 -9.77178,-0.25394 -13.75,-0.005 -3.97823,0.24882 -1.04564,0.4547 6.51686,0.45752 7.5625,0.003 10.81741,-0.20076 7.23314,-0.45239 z m 26.20436,-0.002 c -3.60938,-0.2525 -9.51563,-0.2525 -13.125,0 -3.60938,0.25251 -0.65625,0.4591 6.5625,0.4591 7.21875,0 10.17187,-0.20659 6.5625,-0.4591 z m 27.54564,0.002 c -3.58428,-0.25163 -9.77178,-0.25394 -13.75,-0.005 -3.97823,0.24882 -1.04564,0.4547 6.51686,0.45752 7.5625,0.003 10.81741,-0.20076 7.23314,-0.45239 z m 85.89186,-5.33003 c 0,-1.40971 -7.00113,-1.42829 -18.125,-0.0481 -6.98011,0.86605 -6.61186,0.9433 5.3125,1.11434 7.83085,0.11232 12.8125,-0.30224 12.8125,-1.06622 z m 26.25,0 c 0,-0.75 -5,-1.25 -12.5,-1.25 -7.5,0 -12.5,0.5 -12.5,1.25 0,0.75 5,1.25 12.5,1.25 7.5,0 12.5,-0.5 12.5,-1.25 z m 27.5,0 c 0,-0.75 -5,-1.25 -12.5,-1.25 -7.5,0 -12.5,0.5 -12.5,1.25 0,0.75 5,1.25 12.5,1.25 7.5,0 12.5,-0.5 12.5,-1.25 z m 27.5,0 c 0,-0.75397 -5.20834,-1.25 -13.125,-1.25 -7.91666,0 -13.125,0.49603 -13.125,1.25 0,0.75397 5.20834,1.25 13.125,1.25 7.91666,0 13.125,-0.49603 13.125,-1.25 z m -387.8125,186.562736 65.3125,-0.33504 0,-5.61385 c 0,-3.08761 0.5625,-5.61385 1.25,-5.61385 0.6875,0 1.25,2.8125 1.25,6.25 l 0,6.25 -66.5625,-0.30111 -66.5625,-0.3011 65.3125,-0.33505 z m 76.5625,-1.40969 c 0,-1.29081 0.93584,-3.11894 2.07965,-4.0625 1.87995,-1.55081 1.93996,-1.45336 0.625,1.01478 -1.9006,3.56735 -1.85376,3.85706 0.73285,4.53301 1.64614,0.43019 1.49146,0.60755 -0.625,0.71666 -1.96951,0.1015 -2.8125,-0.55845 -2.8125,-2.20195 z m 8.13648,0.58975 c -0.7899,-1.78636 -0.32343,-2.97328 1.86505,-4.74539 2.53031,-2.04892 3.15606,-2.12554 4.70547,-0.57614 1.39715,1.39717 1.47811,2.36433 0.37105,4.4329 -0.77881,1.45521 -2.07121,2.64583 -2.87203,2.64583 -1.08359,0 -1.07235,-0.38367 0.044,-1.5 0.825,-0.825 1.5,-2.58137 1.5,-3.90305 0,-1.9498 -0.3395,-2.1213 -1.79996,-0.90923 -0.98997,0.8216 -2.016,2.7186 -2.28006,4.21555 -0.45331,2.56977 -0.53894,2.58872 -1.5335,0.33953 z m 9.41357,0.29694 c -0.0953,-3.97134 1.48156,-6.03974 4.60447,-6.03974 2.64324,0 3.0184,0.44274 2.38334,2.8125 -0.41455,1.54687 -0.76141,3.23437 -0.7708,3.75 -0.01,0.51562 -0.59027,0.9375 -1.29087,0.9375 -0.73457,0 -0.94178,-1.32294 -0.48949,-3.125 1.03575,-4.12676 -0.19621,-3.9741 -2.52174,0.3125 -1.23615,2.2786 -1.88173,2.73449 -1.91491,1.35224 z m 9.35732,-2.60224 c 1.1949,-5.67085 3.6687,-7.87295 2.63293,-2.34375 -0.43466,2.32031 -0.7903,4.71094 -0.7903,5.3125 0,0.60156 -0.60719,1.09375 -1.34933,1.09375 -0.86456,0 -1.04178,-1.45948 -0.4933,-4.0625 z m 5.11965,0.625 c 0.90569,-3.77524 1.45623,-4.74914 2.23761,-3.95834 0.9188,0.9299 -0.77217,7.39584 -1.93417,7.39584 -0.62045,0 -0.757,-1.54688 -0.30344,-3.4375 z m 4.71424,1.46026 c 0.41731,-1.08747 0.75874,-2.68937 0.75874,-3.55977 0,-0.8784 1.56631,-1.62708 3.52027,-1.68263 3.19769,-0.0909 3.47107,0.2353 2.98313,3.55978 -0.29542,2.01292 -1.09679,3.65986 -1.78079,3.65986 -0.72401,0 -0.89303,-1.3969 -0.40452,-3.34329 0.73525,-2.92947 0.59731,-3.14261 -1.11449,-1.72195 -1.07447,0.89174 -1.9536,2.39623 -1.9536,3.34329 0,0.94707 -0.62267,1.72195 -1.38374,1.72195 -0.76105,0 -1.0423,-0.88975 -0.625,-1.97724 z m 9.75477,-1.77276 c 0.15716,-2.0625 0.73752,-3.75 1.28971,-3.75 0.55219,0 0.87538,1.6875 0.71823,3.75 -0.15716,2.0625 -0.73752,3.75 -1.28971,3.75 -0.55219,0 -0.87538,-1.6875 -0.71823,-3.75 z m 3.50397,2.11391 c 0,-1.90771 3.65943,-7.09875 3.69317,-5.23891 0.0125,0.6875 -0.31648,2.51562 -0.73103,4.0625 -0.80977,3.02165 -2.96214,3.87646 -2.96214,1.17641 z m 5,-0.71086 c 0,-1.29081 0.76669,-2.98324 1.70375,-3.76093 1.37551,-1.14157 1.59251,-0.83208 1.12635,1.60648 -0.41844,2.18889 0.0589,3.1844 1.73375,3.61592 1.57215,0.40507 1.21199,0.64184 -1.12635,0.74048 -2.58092,0.10887 -3.4375,-0.43983 -3.4375,-2.20195 z m 4.8361,-3.08056 c 0.76571,-0.92263 1.12052,-2.05232 0.78847,-2.51042 -0.33206,-0.4581 0.0175,-0.31473 0.77693,0.31859 1.53401,1.2794 0.44409,3.86934 -1.62833,3.86934 -0.90778,0 -0.88783,-0.53191 0.0629,-1.67751 z m -54.8361,-0.82249 c 0,-0.6875 0.5625,-1.25 1.25,-1.25 0.6875,0 1.25,0.5625 1.25,1.25 0,0.6875 -0.5625,1.25 -1.25,1.25 -0.6875,0 -1.25,-0.5625 -1.25,-1.25 z M 18.093238,167.21882 c -4.29558,-6.96166 -6.67441,-16.91023 -5.75614,-24.07282 0.44991,-3.50936 1.14392,-11.28176 1.54225,-17.27201 0.6382,-9.59755 0.41297,-11.41892 -1.89601,-15.33235 -2.6178904,-4.43698 -2.6180304,-4.44463 -0.15537,-8.48364 2.92273,-4.793546 3.26545,-15.007226 0.95556,-28.477436 -1.31261,-7.65454 -1.22846,-9.96268 0.62015,-17.01093 2.05594,-7.83873 6.67647,-16.31799 8.11055,-14.88391 0.37912,0.37912 -0.18137,1.67713 -1.24552,2.88447 -3.5282,4.00291 -4.93836,14.73842 -3.35676,25.55503 2.23863,15.3101 0.82024,26.83603 -4.16287,33.827626 -1.24546,1.74745 -1.24546,2.62755 0,4.375 4.69408,6.58609 5.3127,12.99091 3.95398,40.9375 -0.40962,8.42525 -0.0521,10.87505 2.27052,15.55679 3.32054,6.69335 2.74226,8.26768 -0.88034,2.39668 z M 323.94292,24.114414 c -1.54763,-1.54764 -0.97526,-3.85132 1.71391,-6.89808 1.88497,-2.13562 2.41387,-2.34657 1.91423,-0.76348 -0.37972,1.20313 -0.14555,2.1875 0.52036,2.1875 0.66593,0 1.21078,-0.84375 1.21078,-1.875 0,-1.03125 0.5293,-1.875 1.17623,-1.875 1.62457,0 2.69237,1.96474 1.63983,3.01727 -0.47628,0.47629 -0.88286,2.10162 -0.90351,3.61185 -0.0273,1.99671 -0.90292,2.8468 -3.20932,3.11577 -1.74449,0.20344 -3.57262,-0.0309 -4.0625,-0.52083 z m 5.35928,-3.04783 c 0,-0.64692 -0.5625,-1.17623 -1.25,-1.17623 -0.6875,0 -1.25,0.87695 -1.25,1.94877 0,1.07183 0.5625,1.60113 1.25,1.17623 0.6875,-0.4249 1.25,-1.30184 1.25,-1.94877 z m -165.80168,0.68912 c -1.0128,-2.63931 2.8717,-8.11535 5.75673,-8.11535 2.64088,0 4.21655,1.66173 2.86101,3.01727 -0.47628,0.47629 -0.88286,2.05228 -0.90351,3.50221 -0.0206,1.44994 -0.83031,2.90296 -1.79924,3.22895 -1.20148,0.40423 -1.51696,-0.045 -0.99208,-1.41283 0.42327,-1.10305 0.23166,-2.338 -0.42582,-2.74434 -1.07834,-0.66644 -1.73063,1.019 -1.34343,3.47124 0.27741,1.75699 -2.42774,0.94454 -3.15366,-0.94715 z m 5.80168,-5.61535 c 0,-0.6875 -0.5625,-1.25 -1.25,-1.25 -0.6875,0 -1.25,0.5625 -1.25,1.25 0,0.6875 0.5625,1.25 1.25,1.25 0.6875,0 1.25,-0.5625 1.25,-1.25 z m 317.17299,2.1875 c -0.86735,-2.27969 1.21245,-7.12606 3.42198,-7.97394 2.80082,-1.0747704 5.99858,0.4693 4.84328,2.33862 -0.53363,0.86341 -0.99115,2.64617 -1.01674,3.96169 -0.0256,1.31552 -0.70537,2.61394 -1.51065,2.88537 -0.93232,0.31426 -1.2199,-0.44048 -0.79171,-2.07786 0.38217,-1.46143 0.0699,-2.57138 -0.72336,-2.57138 -0.76769,0 -1.39579,1.125 -1.39579,2.5 0,2.76406 -1.8932,3.39188 -2.82701,0.9375 z m 5.32701,-5.9375 c 0,-0.6875 -0.24805,-1.25 -0.55123,-1.25 -0.30317,0 -0.89887,0.5625 -1.32377,1.25 -0.4249,0.6875 -0.17685,1.25 0.55123,1.25 0.72807,0 1.32377,-0.5625 1.32377,-1.25 z"
     id="path4204"
     inkscape:connector-curvature="0" />
</svg>
