<?xml version="1.0" encoding="UTF-8" standalone="no"?>
<!-- Created with Inkscape (http://www.inkscape.org/) -->

<svg
   xmlns:dc="http://purl.org/dc/elements/1.1/"
   xmlns:cc="http://creativecommons.org/ns#"
   xmlns:rdf="http://www.w3.org/1999/02/22-rdf-syntax-ns#"
   xmlns:svg="http://www.w3.org/2000/svg"
   xmlns="http://www.w3.org/2000/svg"
   xmlns:sodipodi="http://sodipodi.sourceforge.net/DTD/sodipodi-0.dtd"
   xmlns:inkscape="http://www.inkscape.org/namespaces/inkscape"
   id="svg4279"
   version="1.1"
   inkscape:version="0.91 r13725"
   width="802.00604"
   height="202.50005"
   viewBox="0 0 802.00604 202.50005"
   sodipodi:docname="AveMaria_2.svg">
  <metadata
     id="metadata4285">
    <rdf:RDF>
      <cc:Work
         rdf:about="">
        <dc:format>image/svg+xml</dc:format>
        <dc:type
           rdf:resource="http://purl.org/dc/dcmitype/StillImage" />
        <dc:title></dc:title>
      </cc:Work>
    </rdf:RDF>
  </metadata>
  <defs
     id="defs4283" />
  <sodipodi:namedview
     pagecolor="#ffffff"
     bordercolor="#666666"
     borderopacity="1"
     objecttolerance="10"
     gridtolerance="10"
     guidetolerance="10"
     inkscape:pageopacity="0"
     inkscape:pageshadow="2"
     inkscape:window-width="1282"
     inkscape:window-height="750"
     id="namedview4281"
     showgrid="false"
     fit-margin-top="10"
     fit-margin-left="10"
     fit-margin-right="10"
     fit-margin-bottom="10"
     inkscape:zoom="0.81454783"
     inkscape:cx="428.35643"
     inkscape:cy="18.39311"
     inkscape:window-x="0"
     inkscape:window-y="0"
     inkscape:window-maximized="0"
     inkscape:current-layer="svg4279" />
  <path
     style="fill:#020b1d;fill-opacity:0.07843138"
     d="m 402.22856,182.18755 c -0.17271,-7.27514 -0.70502,-10.31761 -1.80732,-10.32984 -0.85938,-0.01 0.7644,-1.20887 3.60838,-2.66519 5.05156,-2.58673 5.24149,-2.59456 8.23113,-0.33947 l 3.06027,2.30835 -4.16412,2.23182 c -2.29025,1.2275 -4.98418,2.23183 -5.98652,2.23183 -1.37338,0 -1.93016,2.07899 -2.2597,8.4375 l -0.43729,8.4375 -0.24482,-10.3125 z m 189.74012,-3.87326 c -0.33547,-5.73967 -0.18807,-10.69474 0.32756,-11.01127 1.82979,-1.12327 0.89764,-2.76177 -1.875,-3.29581 -1.54688,-0.29794 1.40625,-0.55306 6.5625,-0.56694 5.15625,-0.0139 8.44382,0.22178 7.30572,0.52367 -1.13811,0.30188 -2.41873,1.9412 -2.84583,3.64291 -0.53847,2.1454 -1.89959,3.31864 -4.43943,3.82661 -3.55824,0.71164 -3.67376,0.96944 -4.04424,9.02458 l -0.38136,8.29201 -0.60992,-10.43576 z M 75.97856,174.68755 c -0.17286,-7.28123 -0.70411,-10.31476 -1.80732,-10.3202 -0.85937,-0.004 0.0486,-0.84799 2.01789,-1.875 4.4791,-2.33601 8.21546,-2.32039 11.34602,0.0475 1.94244,1.46919 2.0353,1.83525 0.46555,1.83525 -1.07846,0 -2.6611,0.84375 -3.51696,1.875 -0.85586,1.03125 -2.86779,1.875 -4.47094,1.875 -2.72204,0 -2.94376,0.55809 -3.35212,8.4375 l -0.43729,8.4375 -0.24483,-10.3125 z m 155,0.10412 c -0.1631,-6.80058 -0.76641,-10.41879 -1.80732,-10.83881 -0.85938,-0.34676 -0.33008,-0.67489 1.17622,-0.72916 1.5063,-0.0542 3.08638,-0.66119 3.51128,-1.34869 0.4249,-0.6875 2.42685,-1.25 4.44877,-1.25 2.02193,0 3.67623,0.5625 3.67623,1.25 0,0.6875 0.97605,1.25 2.16899,1.25 1.22682,0 0.14285,1.08595 -2.49547,2.5 -2.56546,1.375 -5.7658,2.5 -7.11188,2.5 -2.14498,0 -2.50145,1.04265 -2.8847,8.4375 l -0.43729,8.4375 -0.24483,-10.20834 z m 171.9148,-11.31882 c 2.21904,-0.27614 6.15654,-0.28068 8.75,-0.01 2.59345,0.2706 0.77788,0.49653 -4.03462,0.50208 -4.8125,0.005 -6.93443,-0.21585 -4.71538,-0.49199 z m -382.451034,-8.1583 c -1.113596,-0.86048 -3.330218,-4.09575 -4.925827,-7.1895 -3.07219,-5.95671 -3.235837,-8.85384 -2.121014,-37.54928 0.385689,-9.92761 0.08419,-12.50377 -1.800612,-15.38508 -2.206688,-3.37338 -2.194507,-3.60409 0.482196,-9.13342 2.492584,-5.149 2.643865,-6.61345 1.638872,-15.86492 -1.802795,-16.59564 -1.282697,-30.78465 1.312882,-35.8173 4.098376,-7.94648 5.376091,-8.75 13.913784,-8.75 l 7.821393,0 0.84415,-4.99647 c 0.46428,-2.74806 1.84741,-6.23545 3.07362,-7.74975 l 2.22947,-2.75329 2.03625,3.93768 c 1.11994,2.16572 2.03625,5.65311 2.03625,7.74975 0,3.53537 0.32293,3.81208 4.44877,3.81208 2.44683,0 4.15825,-0.47007 3.80317,-1.0446 -0.35508,-0.57454 -0.15537,-2.68391 0.44379,-4.6875 0.59916,-2.0036 1.13774,-2.65853 1.19683,-1.4554 0.15615,3.17912 2.60744,2.68948 2.60744,-0.52084 0,-4.11605 1.48543,-1.74835 1.85229,2.95246 l 0.32238,4.13088 11.93753,0.35655 c 10.58344,0.31612 12.00332,0.10343 12.51766,-1.875 0.54003,-2.07725 0.59016,-2.0803 0.72514,-0.0441 0.1373,2.07137 8.76882,2.1875 162.58535,2.1875 l 162.44036,0 0.37214,-7.8125 0.37215,-7.8125 82.5,0 82.5,0 0.37215,7.8125 0.37214,7.8125 11.10342,0 c 10.56296,0 11.12285,-0.13689 11.50285,-2.8125 l 0.39944,-2.81249 23.75,0.36354 c 75.40958,1.15431 128.76165,2.79642 129.15459,3.97523 0.26835,0.80504 7.40849,1.28623 19.08572,1.28623 l 18.65699,0 -0.32365,65.3125 -0.32365,65.3125 -384.44585,0.3145 c -306.29326,0.25057 -384.857441,-0.004 -386.470564,-1.25 z m 769.041414,-2.8145 0,-3.125 -286.5625,0.0397 c -249.98601,0.0346 -286.8722,0.27401 -288.98891,1.875 -3.13002,2.36742 -6.83013,2.34844 -7.74655,-0.0397 -1.06668,-2.7797 -89.82569,-2.74196 -93.50345,0.0397 -3.13002,2.36742 -6.83013,2.34844 -7.74655,-0.0397 -0.61583,-1.6048 -5.75579,-1.875 -35.66795,-1.875 -23.83055,0 -35.79801,0.45467 -37.619012,1.42925 -2.003668,1.07232 -2.789547,1.07232 -3.14699,0 -0.923543,-2.77063 -4.018083,-1.46464 -4.018083,1.69575 l 0,3.125 382.499995,0 382.5,0 0,-3.125 z M 21.983745,91.09699 c 0,-54.35567 -0.248895,-63.07149 -1.765176,-61.81309 -3.752614,3.11439 -4.970781,13.46408 -3.269024,27.77401 1.821939,15.32051 1.157916,22.09483 -2.861426,29.19214 l -2.831598,5 2.826066,5 c 4.002738,7.08182 4.71239,14.06902 2.911483,28.66631 -1.20697,9.78311 -1.237014,14.28334 -0.129819,19.44601 1.263957,5.89363 3.175881,10.01268 4.64755,10.01268 0.259569,0 0.471944,-28.47513 0.471944,-63.27806 z m 12.714075,54.95932 c 3.60966,-3.2667 2.7426,-4.18126 -3.964075,-4.18126 -5.833334,0 -6.25,0.20834 -6.25,3.125 0,2.67639 0.569061,3.125 3.964074,3.125 2.180241,0 4.992741,-0.93093 6.250001,-2.06874 z m 43.53592,0.92098 c 0,-0.63128 0.35312,-2.06802 0.78474,-3.19275 0.69407,-1.80875 -0.49727,-2.01818 -10.3125,-1.81285 -6.54952,0.137 -11.47359,0.80508 -12.0156,1.63025 -0.64756,0.98585 -0.924,0.93738 -0.9375,-0.16439 -0.0129,-1.05419 -2.20893,-1.5625 -6.75038,-1.5625 -5.80063,0 -7.01431,0.43204 -8.77881,3.125 l -2.04758,3.125 20.02881,0 c 11.32987,0 20.02882,-0.4985 20.02882,-1.14776 z m 29.40932,-0.86468 c 1.68927,-1.10684 3.91947,-1.687 4.95603,-1.28924 1.16252,0.44612 1.88465,0.006 1.88465,-1.14883 0,-1.58544 -2.51415,-1.81865 -16.42116,-1.52328 -15.73667,0.33425 -16.46447,0.46603 -17.45973,3.16129 -1.03336,2.79844 -0.97604,2.8125 11.46515,2.8125 9.38876,0 13.26884,-0.50134 15.57506,-2.01244 z m 101.25,0 c 1.68927,-1.10684 3.91947,-1.687 4.95603,-1.28924 1.1523,0.44219 1.88465,0.01 1.88465,-1.11255 0,-1.58376 -6.86379,-1.83577 -50,-1.83577 l -50,0 0,3.125 0,3.125 45.04397,0 c 39.30117,0 45.43557,-0.25658 48.11535,-2.01244 z m 25.72438,-1.42506 c 1.01569,-2.75805 0.85502,-2.8125 -8.29898,-2.8125 -9.16838,0 -9.33472,0.0567 -9.33472,3.18211 0,3.12708 0.14355,3.17573 8.29899,2.8125 7.29477,-0.32489 8.4243,-0.70994 9.33471,-3.18211 z m 170.88886,0.3125 1.42384,-3.125 -84.83946,0 c -89.73928,0 -86.35694,-0.19984 -86.35694,5.10224 0,0.68565 33.88986,1.14776 84.17435,1.14776 l 84.17436,0 1.42385,-3.125 z m 189.10948,-0.3204 1.04325,-2.8204 -93.88204,0.3204 -93.88204,0.3204 -1.04325,2.8204 -1.04325,2.8204 93.88204,-0.3204 93.88204,-0.3204 1.04325,-2.8204 z m 194.86796,0.3204 c 0,-2.94155 -0.38524,-3.12266 -6.5625,-3.08525 -3.77718,0.0229 -7.59234,0.81869 -8.98891,1.875 -3.13002,2.36742 -6.83013,2.34844 -7.74655,-0.0397 -0.62675,-1.63326 -9.06298,-1.875 -65.43272,-1.875 -55.99791,0 -64.92278,0.25251 -66.26932,1.875 -0.85586,1.03125 -2.91114,1.875 -4.56729,1.875 -1.65615,0 -3.33495,-0.84375 -3.73067,-1.875 -0.58075,-1.51341 -3.44013,-1.875 -14.82704,-1.875 -14.28517,0 -15.625,0.43751 -15.625,5.10224 0,0.68715 38.8776,1.14776 96.875,1.14776 l 96.875,0 0,-3.125 z m -749.69406,-7.5 c 0.4654,-2.43458 0.0796,-3.125 -1.74624,-3.125 -1.28899,0 -3.44695,0.68904 -4.79546,1.5312 -1.934738,1.20826 -2.77477,1.20826 -3.983036,0 -2.508934,-2.50894 -4.781199,-1.75149 -4.781199,1.5938 0,2.97923 0.343048,3.125 7.354279,3.125 6.851926,0 7.395086,-0.21346 7.951656,-3.125 z m 14.69406,1.97724 c 0,-0.63128 0.34143,-2.03753 0.75874,-3.125 0.62244,-1.62208 -0.2495,-1.97724 -4.85428,-1.97724 -4.99458,0 -5.67883,0.34431 -6.21039,3.125 -0.56335,2.94696 -0.2868,3.125 4.85427,3.125 2.99841,0 5.45166,-0.5165 5.45166,-1.14776 z m -7.5,-1.97724 c 0,-1.14584 0.60469,-1.88178 1.34375,-1.63541 0.73906,0.24635 1.34375,0.98228 1.34375,1.63541 0,0.65312 -0.60469,1.38906 -1.34375,1.63541 -0.73906,0.24636 -1.34375,-0.48957 -1.34375,-1.63541 z m 31.43185,1.78771 c -1.88429,-0.75471 -2.6854,-1.85049 -2.22673,-3.04576 0.58813,-1.53264 -0.67551,-1.86679 -7.05685,-1.86606 -7.40923,8.3e-4 -7.78171,0.14718 -7.95354,3.125 -0.17871,3.09717 -0.0925,3.12342 10.00001,3.04487 7.68272,-0.0598 9.45821,-0.36842 7.23711,-1.25805 z m 36.06815,-1.78771 0,-3.125 -14.79935,0 c -14.57296,0 -14.82115,0.0479 -16.22321,3.125 l -1.42384,3.125 16.2232,0 16.2232,0 0,-3.125 z m 15.87731,2.33565 c -0.43415,-0.43415 -0.22685,-1.8404 0.46065,-3.125 1.1614,-2.17011 0.67104,-2.33565 -6.91899,-2.33565 -7.88023,0 -8.16897,0.11045 -8.16897,3.125 0,2.9955 0.31945,3.125 7.70834,3.125 4.23957,0 7.35312,-0.35521 6.91897,-0.78935 z m 50.67863,-2.33565 0.59739,-3.125 -20.13917,0.01 -20.13916,0.01 -1.44489,3.11525 -1.4449,3.11525 20.98668,0 20.98667,0 0.59738,-3.125 z m 34.69406,0 c 0,-3.11404 -0.0416,-3.125 -11.875,-3.125 -6.53125,0 -11.875,0.52232 -11.875,1.16071 0,0.6384 -0.88393,2.04465 -1.96429,3.125 -1.78571,1.78571 -0.70616,1.96429 11.875,1.96429 l 13.83929,0 0,-3.125 z m 18.94353,2.22724 c -2.16716,-0.41199 -2.76802,-1.1824 -2.30453,-2.95477 0.56984,-2.17905 -0.10261,-2.39747 -7.38103,-2.39747 -7.70851,0 -8.00797,0.11686 -8.00797,3.125 0,3.09456 0.1005,3.12334 10.3125,2.95477 5.67187,-0.0936 8.99334,-0.42101 7.38103,-0.72753 z m 22.62225,-2.2787 0.60722,-3.17646 -8.7601,0.36396 c -7.77663,0.3231 -8.87643,0.67971 -9.79623,3.17646 -1.01513,2.75557 -0.85011,2.8125 8.15289,2.8125 8.84866,0 9.21149,-0.11763 9.79622,-3.17646 z m 119.99016,0.0515 0.59738,-3.125 -54.68289,0 -54.6829,0 -2.04758,3.125 -2.04759,3.125 56.1331,0 56.1331,0 0.59738,-3.125 z m 27.37591,1.78771 c -1.88429,-0.75471 -2.6854,-1.85049 -2.22673,-3.04576 0.58515,-1.52494 -0.62416,-1.86699 -6.60058,-1.86699 -6.42547,0 -7.5665,0.38077 -9.36459,3.125 l -2.04759,3.125 11.59133,-0.0793 c 8.56965,-0.0586 10.82408,-0.38653 8.64816,-1.25805 z m 26.65931,0.0325 c -0.44351,-0.71762 -0.12658,-2.12387 0.70428,-3.125 1.30362,-1.57078 -0.0339,-1.82025 -9.75865,-1.82025 -11.28464,0 -12.78679,0.59939 -12.78679,5.10224 0,0.63126 5.0957,1.14776 11.32377,1.14776 7.54769,0 11.05487,-0.43509 10.51739,-1.30475 z m 115.22873,-1.83 1.4449,-3.11525 -52.6949,0.01 -52.69489,0.01 -1.44489,3.11525 -1.4449,3.11525 52.6949,-0.01 52.69489,-0.01 1.44489,-3.11525 z m 48.12363,2.23699 c -2.16714,-0.41199 -2.76801,-1.1824 -2.30452,-2.95476 0.59659,-2.28137 -0.24518,-2.39748 -17.38103,-2.39748 -10.24849,0 -18.00797,0.50014 -18.00797,1.16071 0,0.6384 -0.88392,2.04465 -1.96429,3.125 -1.78571,1.78571 0.0609,1.94881 20.3125,1.79406 12.25224,-0.0936 20.95763,-0.42101 19.34531,-0.72753 z m 34.10789,-1.01699 c 1.33453,-1.00939 3.4439,-1.83525 4.6875,-1.83525 1.2436,0 2.26109,-0.57795 2.26109,-1.28433 0,-0.83487 -6.18381,-1.16295 -17.67096,-0.9375 -17.03427,0.33433 -17.7084,0.44817 -18.70973,3.15933 l -1.03875,2.8125 14.02221,-0.0397 c 10.34475,-0.0294 14.65858,-0.52108 16.44864,-1.875 z m 140,0 c 1.33453,-1.00939 3.4439,-1.83525 4.6875,-1.83525 1.2436,0 2.26109,-0.5625 2.26109,-1.25 0,-0.78421 -7.90253,-1.25 -21.20759,-1.25 -17.52565,0 -21.99511,0.37554 -25.74362,2.16308 -4.30052,2.05077 -4.61815,2.05077 -6.11772,0 -1.38695,-1.89677 -4.02701,-2.15818 -21.44387,-2.12333 -15.48181,0.031 -20.39733,0.4445 -22.28861,1.875 -3.13002,2.36742 -6.83013,2.34844 -7.74655,-0.0397 -0.59,-1.53753 -3.73277,-1.875 -17.46078,-1.875 l -16.74126,0 0,3.125 0,3.125 64.6875,-0.0397 c 54.89861,-0.0337 65.05467,-0.31748 67.11391,-1.875 z m 20.69859,-1.21025 c 0,-2.90673 -0.42639,-3.125 -6.10428,-3.125 -5.5186,0 -6.16159,0.29984 -6.70166,3.125 -0.57712,3.01902 -0.37012,3.125 6.10428,3.125 6.31511,0 6.70166,-0.18025 6.70166,-3.125 z m -706.25,-2.00874 c 0,-0.61394 -1.10735,-1.11626 -2.46078,-1.11626 -1.62572,0 -2.22688,0.60947 -1.77155,1.79607 0.71337,1.85898 4.23233,1.29375 4.23233,-0.67981 z m 155,0.75874 c 1.29884,-1.565 1.12396,-1.875 -1.05771,-1.875 -1.80985,0 -2.39252,0.57672 -1.89433,1.875 0.39574,1.03125 0.8717,1.875 1.05772,1.875 0.18602,0 1.03846,-0.84375 1.89432,-1.875 z m 171.25,-0.69878 c 0,-0.64692 -0.8261,-1.17622 -1.83578,-1.17622 -1.1151,0 -1.55438,0.73325 -1.11901,1.86782 0.73786,1.92283 2.95479,1.40394 2.95479,-0.6916 z m 188.75,0.69878 c 1.29884,-1.565 1.12396,-1.875 -1.05771,-1.875 -1.80985,0 -2.39252,0.57672 -1.89433,1.875 0.39574,1.03125 0.8717,1.875 1.05772,1.875 0.18602,0 1.03846,-0.84375 1.89432,-1.875 z m -569.604644,-5.75182 0.686929,-2.62682 2.819561,2.62682 c 1.550764,1.44475 4.188354,2.62682 5.861324,2.62682 2.87432,0 2.93897,-0.15481 1.17451,-2.81223 -1.47711,-2.22465 -3.2066,-2.8727 -8.277464,-3.10161 -6.069079,-0.27397 -6.410211,-0.12431 -6.410211,2.81223 0,3.80527 3.179188,4.1694 4.145351,0.47479 z m 26.659914,-0.49906 c 0.17119,-2.96688 -0.15776,-3.12412 -6.5357,-3.12412 -6.71006,0 -6.71472,0.003 -5.29212,3.125 1.18101,2.59205 2.29563,3.12485 6.53569,3.12411 4.57059,-7.9e-4 5.13095,-0.33167 5.29213,-3.12499 z m -7.71907,0.56311 c -1.18777,-1.92186 0.43919,-3.16184 2.04355,-1.55748 0.89772,0.89772 0.91929,1.59691 0.0655,2.12455 -0.6999,0.43256 -1.64899,0.17738 -2.10909,-0.56707 z m 11.9138,1.31277 c 0,-0.6875 -0.24805,-1.25 -0.55123,-1.25 -0.30318,0 -0.89887,0.5625 -1.32377,1.25 -0.4249,0.6875 -0.17684,1.25 0.55123,1.25 0.72807,0 1.32377,-0.5625 1.32377,-1.25 z m 25,-0.0738 c 0,-0.72807 -0.58714,-0.9609 -1.30475,-0.51739 -1.61395,0.99748 -5.17356,-1.77814 -4.23271,-3.30047 0.37675,-0.60963 -3.28569,-1.10839 -8.13876,-1.10839 -4.85308,0 -8.82378,0.51649 -8.82378,1.14777 0,0.63127 -0.34143,2.03752 -0.75874,3.12499 -0.65942,1.71843 0.81316,1.97724 11.25,1.97724 7.61864,0 12.00874,-0.48394 12.00874,-1.32378 z m 30,-1.80125 0,-3.125 -16.32378,0 c -10.56419,0 -16.05118,0.44104 -15.55122,1.25 0.4249,0.6875 1.56544,1.25 2.53454,1.25 1.05267,0 1.47235,0.75482 1.0425,1.875 -0.6141,1.6003 1.40612,1.875 13.78922,1.875 l 14.50874,0 0,-3.125 z m 25,0 c 0,-3.11403 -0.0416,-3.125 -11.875,-3.125 -11.83334,0 -11.875,0.011 -11.875,3.125 0,3.11404 0.0416,3.125 11.875,3.125 11.83334,0 11.875,-0.0113 11.875,-3.125 z m 15.87731,2.33565 c -0.43415,-0.43415 -0.22685,-1.8404 0.46065,-3.125 1.1614,-2.17012 0.67104,-2.33565 -6.91899,-2.33565 -7.88023,0 -8.16897,0.11045 -8.16897,3.125 0,2.9955 0.31945,3.125 7.70834,3.125 4.23957,0 7.35312,-0.35521 6.91897,-0.78935 z m 35.37269,-2.3356 c 0,-3.11135 -0.0513,-3.125 -11.73124,-3.125 -11.13396,0 -11.83549,0.1591 -13.77881,3.125 l -2.04759,3.125 13.77883,0 13.77881,0 0,-3.125 z m 25,0 c 0,-3.11403 -0.0416,-3.125 -11.875,-3.125 -11.83334,0 -11.875,0.011 -11.875,3.125 0,3.11404 0.0416,3.125 11.875,3.125 11.83334,0 11.875,-0.0113 11.875,-3.125 z m 24.0625,0.9375 c -0.17188,-0.85937 0.25,-1.5625 0.9375,-1.5625 0.6875,0 1.25,0.84375 1.25,1.875 0,1.54166 2.22222,1.875 12.5,1.875 12.5,0 12.5,0 12.5,-3.125 l 0,-3.125 -14.52079,0 c -14.04231,0 -14.49862,0.0848 -13.84799,2.57278 0.5049,1.93076 0.15137,2.4647 -1.41671,2.13961 -1.14924,-0.23825 -2.01139,-1.396 -1.9159,-2.57278 0.14948,-1.8421 -1.11067,-2.13961 -9.0625,-2.13961 -9.05494,0 -9.23611,0.0622 -9.23611,3.17191 l 0,3.1719 11.5625,-0.3594 c 8.43505,-0.2622 11.47798,-0.78203 11.25,-1.92191 z m 53.00739,-0.94725 1.4449,-3.11525 -13.0074,0 -13.00739,0 0,3.125 c 0,3.10881 0.0599,3.12495 11.5625,3.11525 11.09954,-0.009 11.62035,-0.13449 13.00739,-3.125 z m 58.80742,2.3454 c -0.43415,-0.43415 -0.22685,-1.8404 0.46065,-3.125 1.20118,-2.24443 0.28409,-2.33527 -23.48148,-2.3259 l -24.73148,0.01 -1.44489,3.11525 -1.4449,3.11525 25.71573,0 c 14.14365,0 25.36052,-0.35521 24.92637,-0.78935 z m 35.37269,-2.33565 c 0,-3.12033 -0.0183,-3.12499 -12.1875,-3.11525 -11.76571,0.009 -12.2375,0.11756 -13.63239,3.125 l -1.4449,3.11525 13.6324,0 13.63239,0 0,-3.125 z m 53.75,-0.0183 0,-3.10673 -16.13298,0 c -15.51756,0 -16.10803,0.0954 -15.47921,2.5 0.38781,1.483 0.0384,2.5 -0.85905,2.5 -0.83205,0 -1.807,-1.125 -2.16657,-2.5 -0.57389,-2.19455 -1.70503,-2.5 -9.25798,-2.5 -8.31686,0 -8.60421,0.10312 -8.60421,3.08782 l 0,3.08782 26.25,0.0189 26.25,0.0189 0,-3.10672 z m -29.375,0.6433 c -0.4249,-0.6875 -0.17685,-1.25 0.55123,-1.25 0.72807,0 1.32377,0.5625 1.32377,1.25 0,0.6875 -0.24805,1.25 -0.55123,1.25 -0.30317,0 -0.89887,-0.5625 -1.32377,-1.25 z m 144.375,-0.625 0,-3.125 -18.6487,0 c -15.3695,0 -19.30907,0.37901 -22.40425,2.15539 -3.5554,2.04052 -3.88248,2.04052 -6.13723,0 -3.55602,-3.21816 -39.50158,-3.19267 -45.27056,0.0321 -3.72699,2.08334 -3.99135,2.08334 -5.5516,0 -1.22156,-1.6311 -3.4314,-2.1875 -8.68796,-2.1875 -6.68635,0 -7.0497,0.16107 -7.0497,3.125 l 0,3.125 56.875,0 56.875,0 0,-3.125 z m 44.0625,0.9375 c -0.17188,-0.85937 0.25,-1.5625 0.9375,-1.5625 0.6875,0 1.25,0.84375 1.25,1.875 0,1.57407 2.70834,1.875 16.875,1.875 l 16.875,0 0,-3.125 0,-3.125 -18.89579,0 c -18.45856,0 -18.88022,0.0595 -18.22299,2.57278 0.5049,1.93076 0.15137,2.4647 -1.41671,2.13961 -1.14924,-0.23825 -2.01139,-1.396 -1.9159,-2.57278 0.15695,-1.93431 -1.67213,-2.13961 -19.0625,-2.13961 l -19.23611,0 0,3.15452 0,3.15452 21.5625,-0.34203 c 16.43997,-0.26076 21.48826,-0.71321 21.25,-1.90451 z m 73.52093,0.21199 c 0.95619,-1.15216 2.84341,-1.74538 4.52804,-1.42335 1.87389,0.35822 2.88853,-0.0456 2.88853,-1.14948 0,-1.37072 -4.25425,-1.70166 -21.875,-1.70166 l -21.875,0 0,3.125 0,3.125 17.34695,0 c 14.28684,0 17.63616,-0.34849 18.98648,-1.97551 z m 50.46798,0.0607 c 1.33453,-1.00938 3.72515,-1.83524 5.3125,-1.83524 1.58735,0 2.88609,-0.5625 2.88609,-1.25 0,-0.74932 -4.96624,-1.25 -12.3987,-1.25 -9.45259,0 -13.29108,0.51215 -16.15425,2.15539 -3.5554,2.04052 -3.88248,2.04052 -6.13722,0 -1.60843,-1.45561 -4.48034,-2.15539 -8.84576,-2.15539 -6.06167,0 -6.46407,0.19453 -6.46407,3.125 l 0,3.125 19.6875,-0.0397 c 15.32815,-0.031 20.22477,-0.44614 22.11391,-1.875 z m 51.72303,-1.52274 0.39943,-2.8125 -21.19121,0 -21.19122,0 -0.60288,3.1538 -0.60289,3.1538 21.39467,-0.3413 c 21.11746,-0.33687 21.39983,-0.37774 21.7941,-3.1538 z m 13.97556,0.31255 c 0,-2.91667 -0.41666,-3.125 -6.25,-3.125 -5.83334,0 -6.25,0.20833 -6.25,3.125 0,2.91666 0.41666,3.125 6.25,3.125 5.83334,0 6.25,-0.20834 6.25,-3.125 z M 59.58242,123.9439 c 0.0661,-0.96686 0.30697,-0.92766 0.72917,0.11865 0.47684,1.18174 7.15424,1.5625 27.40131,1.5625 l 26.77084,0 0,-7.5 0,-7.5 51.25,0 51.25,0 0,7.5 0,7.5 25,0 25,0 0,-11.0486 0,-11.0486 59.43159,-0.8652 c 32.68737,-0.47586 59.96862,-0.53329 60.625,-0.12763 0.65637,0.40566 1.19341,5.76688 1.19341,11.9138 l 0,11.17623 26.25,0 26.25,0 0,-13.125 0,-13.125 43.125,-0.28846 c 23.71875,-0.15866 49.73437,-0.29928 57.8125,-0.3125 l 14.6875,-0.024 0.35479,13.4375 0.35478,13.4375 39.33272,0 39.33271,0 0,-9.38541 0,-9.3854 70.3125,0.3229 70.3125,0.32291 0.36726,9.0625 0.36727,9.0625 6.19523,0 6.19524,0 0,-34.375 0,-34.375 -41.5625,0.0398 c -34.56479,0.0331 -41.97103,0.34874 -43.98891,1.875 -1.33453,1.00939 -3.4439,1.83525 -4.6875,1.83525 -1.99388,0 -2.26109,1.18713 -2.26109,10.04526 l 0,10.04527 12.1875,-0.35777 12.1875,-0.35776 0.37215,-7.8125 c 0.32398,-6.80123 0.0836,-7.8125 -1.85649,-7.8125 -1.32625,0 -0.33995,-1.01228 2.43582,-2.5 5.5643,-2.98229 8.24713,-3.16412 9.22148,-0.625 0.39574,1.03125 1.6437,1.90465 2.77328,1.94088 1.12956,0.0362 -0.89883,1.30187 -4.50755,2.8125 l -6.5613,2.74662 -10e-4,5.9375 -10e-4,5.9375 21.25,0 21.25,0 0,-4.375 c 0,-3.28587 -0.54456,-4.40602 -2.1875,-4.4996 -1.83738,-0.10467 -1.78736,-0.26163 0.3125,-0.9807 1.375,-0.47085 4.1085,-1.65815 6.07444,-2.63843 3.19682,-1.59406 3.73959,-1.55648 5.1378,0.35569 0.85985,1.17592 2.33677,2.13804 3.28205,2.13804 0.94528,0 -0.38032,1.125 -2.94577,2.5 -2.56546,1.375 -5.48218,2.5 -6.48161,2.5 -1.33539,0 -1.91654,1.90555 -2.19204,7.1875 l -0.37487,7.1875 -70.3125,0.3229 -70.3125,0.32291 0,-9.38541 c 0,-6.51567 -0.46303,-9.3854 -1.5143,-9.3854 -0.83286,0 0.69231,-1.125 3.3893,-2.5 6.1022,-3.11108 7.04617,-3.11108 9.70996,0 1.63094,1.90479 1.73353,2.5 0.43086,2.5 -0.94035,0 -2.40996,0.84375 -3.26582,1.875 -0.85586,1.03125 -2.89349,1.875 -4.52805,1.875 -2.13861,0 -2.97195,0.701 -2.97195,2.5 0,2.40476 0.83334,2.5 21.875,2.5 l 21.875,0 0,-8.02084 c 0,-5.24707 -0.54034,-8.23886 -1.5625,-8.65131 -0.9949,-0.40145 -0.82346,-0.66633 0.47195,-0.72917 1.11894,-0.0543 2.73469,-0.94243 3.59055,-1.97368 2.03601,-2.45324 4.49759,-2.37068 7.996,0.26817 l 2.84127,2.14318 -4.16411,2.23182 c -2.29025,1.22751 -5.00989,2.23183 -6.04364,2.23183 -1.42209,0 -1.87952,1.52108 -1.87952,6.25 l 0,6.25 11.875,0 11.875,0 0,-11.875 0,-11.875 -20,0 c -19.86445,0 -20.00099,0.0191 -20.145,2.8125 -0.10913,2.11646 -0.28648,2.27114 -0.71666,0.625 -0.81838,-3.13163 -2.87028,-2.70229 -2.98703,0.625 -0.0895,2.55146 -0.21521,2.49345 -1.35416,-0.625 l -1.25549,-3.4375 -25.52082,0 c -21.60946,0 -25.52084,0.28135 -25.52084,1.83577 0,1.11824 0.73286,1.55454 1.875,1.11626 1.03125,-0.39573 1.8793,-0.23745 1.88456,0.35173 0.0188,2.09824 -6.90166,17.93817 -7.83884,17.94217 -0.52485,0.002 -0.13167,-1.96468 0.87372,-4.37093 1.72511,-4.12877 1.69089,-4.375 -0.60823,-4.375 -1.33991,0 -2.43621,-0.81056 -2.43621,-1.80123 0,-2.75127 2.20365,-3.50634 3.49561,-1.19774 1.01721,1.81766 1.38508,1.71692 3.20183,-0.87685 2.70196,-3.8576 2.5955,-4.46684 -0.75994,-4.34843 -1.94412,0.0686 -2.7589,-0.57615 -2.63889,-2.08825 0.1619,-2.03992 -2.4343,-2.1875 -38.48147,-2.1875 -33.42824,0 -39.0704,0.27211 -41.72647,2.01244 -1.68926,1.10684 -3.91946,1.68699 -4.95602,1.28923 -1.5237,-0.5847 -1.88465,0.46629 -1.88465,5.48756 l 0,6.21077 18.75,0 18.75,0 0,-3.64584 c 0,-2.0052 -0.70313,-3.92955 -1.5625,-4.27631 -0.9949,-0.40145 -0.82346,-0.66633 0.47195,-0.72917 1.11894,-0.0543 2.73469,-0.94243 3.59055,-1.97368 2.06464,-2.48773 4.60626,-2.36617 8.10731,0.38776 l 2.87663,2.26275 -4.87554,2.11225 c -2.68155,1.16173 -5.43419,2.11224 -6.11698,2.11224 -0.68418,0 -1.24142,3.37209 -1.24142,7.51248 l 0,7.51249 -57.8125,-0.32499 -57.8125,-0.32498 -0.36726,-9.0625 c -0.24208,-5.97335 -0.8749,-9.0625 -1.85649,-9.0625 -0.81908,0 0.60978,-1.125 3.17523,-2.5 5.70247,-3.05634 7.01678,-3.10251 9.64082,-0.33862 1.91722,2.01941 1.77105,2.31197 -2.22541,4.45395 -2.35259,1.26091 -5.05694,1.99344 -6.00966,1.62785 -1.19218,-0.45749 -1.73223,0.31142 -1.73223,2.46631 l 0,3.13104 12.1875,-0.35777 12.1875,-0.35776 0.37215,-7.8125 0.37214,-7.8125 -24.31761,0 c -24.21078,0 -24.31457,0.0118 -23.6201,2.66735 0.5045,1.92922 0.21268,2.49733 -1.05453,2.05296 -0.96362,-0.33791 -1.67392,-1.53822 -1.57844,-2.66735 0.15528,-1.83621 -2.22032,-2.04877 -22.5,-2.01321 -17.95442,0.0315 -23.17863,0.42174 -25.10002,1.875 -1.33453,1.00939 -3.47074,1.83525 -4.74715,1.83525 -2.05313,0 -2.27781,0.90086 -1.94859,7.8125 l 0.37215,7.8125 6.875,0.39801 c 3.78125,0.21891 9.21107,0.052 12.06628,-0.37091 5.10313,-0.75587 5.19875,-0.86289 5.63141,-6.30281 0.32865,-4.13225 -0.0364,-5.66374 -1.44129,-6.04658 -1.03476,-0.28199 2.0561,-0.51271 6.8686,-0.51271 4.8125,0 7.76563,0.25725 6.5625,0.57166 -1.20312,0.3144 -2.1875,1.61899 -2.1875,2.89908 0,1.51956 -1.49935,2.86961 -4.31951,3.88939 -4.14653,1.49941 -4.33425,1.84055 -4.6875,8.51841 l -0.36799,6.95646 -60.40153,0.32456 -60.40151,0.32456 0.40151,-11.21903 c 0.37172,-10.38617 0.21594,-11.25597 -2.09847,-11.71683 -1.375,-0.27379 1.71875,-0.50916 6.875,-0.52303 5.15625,-0.0139 8.39063,0.23201 7.1875,0.54642 -1.20313,0.31441 -2.1875,1.619 -2.1875,2.89909 0,1.52526 -1.5079,2.8727 -4.375,3.90946 -2.79261,1.00982 -4.375,2.39542 -4.375,3.83091 0,2.05413 1.46143,2.24889 16.875,2.24889 l 16.875,0 0,-10 0,-10 -26.875,0 c -22.8003,0 -26.875,0.27833 -26.875,1.83577 0,1.11824 0.73286,1.55454 1.875,1.11626 1.03125,-0.39573 1.8793,-0.23745 1.88456,0.35173 0.0187,2.09824 -6.90166,17.93817 -7.83884,17.94217 -0.52485,0.002 -0.13167,-1.96468 0.87372,-4.37093 1.72511,-4.12877 1.69088,-4.375 -0.60823,-4.375 -1.33991,0 -2.43621,-0.81056 -2.43621,-1.80123 0,-2.75127 2.20365,-3.50634 3.49561,-1.19774 1.01722,1.81766 1.38508,1.71692 3.20183,-0.87685 2.70196,-3.8576 2.5955,-4.46684 -0.75994,-4.34843 -1.94412,0.0686 -2.7589,-0.57615 -2.63889,-2.08825 0.16148,-2.03462 -2.23413,-2.1875 -34.27798,-2.1875 -30.16732,0 -35.04257,0.27203 -39.20387,2.1875 l -4.75226,2.1875 -0.0323,11.5625 -0.0323,11.5625 11.77981,0 11.77983,0 0.40767,-9.97161 c 0.32888,-8.04377 0.0453,-10.06989 -1.46731,-10.48 -1.03125,-0.27961 2.0625,-0.5341 6.875,-0.56553 4.8125,-0.0314 7.724,0.34715 6.47,0.8413 -1.254,0.49415 -2.23838,1.29836 -2.1875,1.78714 0.28302,2.71917 -0.29336,3.36641 -4.2825,4.8089 -4.17249,1.50879 -4.375,1.8597 -4.375,7.58091 l 0,5.99889 11.875,0 11.875,0 0,-4.92623 c 0,-2.70943 0.69745,-5.35728 1.5499,-5.88412 1.05492,-0.65198 0.55592,-1.23454 -1.5625,-1.82417 -1.98219,-0.55171 0.065,-0.90458 5.6376,-0.97174 4.8125,-0.058 8.1875,0.3078 7.5,0.8129 -0.6875,0.5051 -1.86023,2.04336 -2.60606,3.41836 -0.74583,1.375 -3.13645,3.03819 -5.3125,3.69599 -3.84899,1.16352 -3.95644,1.39266 -3.95644,8.4375 l 0,7.24151 -51.25,0 -51.25,0 0,-9.92623 c 0,-6.54958 0.52724,-10.25208 1.5499,-10.88412 1.05492,-0.65198 0.55592,-1.23454 -1.5625,-1.82417 -1.91265,-0.53235 0.26051,-0.85842 5.6376,-0.84588 4.8125,0.0112 7.75874,0.27897 6.5472,0.595 -1.21155,0.31603 -1.89415,1.07401 -1.51691,1.68441 1.02473,1.65788 -4.03438,6.20099 -6.90519,6.20099 -1.66666,0 -2.5,0.83333 -2.5,2.5 0,2.32456 0.83334,2.5 11.875,2.5 l 11.875,0 0.0191,-7.8125 c 0.01,-4.29688 0.55617,-8.65625 1.21253,-9.6875 0.90338,-1.41935 0.51901,-2.07255 -1.58164,-2.6879 -1.52626,-0.4471 1.16248,-0.82456 5.97498,-0.83882 4.8125,-0.0142 8.04687,0.2578 7.1875,0.60457 -0.85938,0.34676 -1.5625,1.41439 -1.5625,2.3725 0,2.36477 -5.77939,5.99771 -8.11535,5.10132 -1.53792,-0.59017 -1.88462,0.53432 -1.88462,6.11256 l 0,6.83577 12.5,0 12.5,0 0,-13.16423 c 0,-9.44958 -0.44543,-13.33516 -1.57854,-13.76997 -3.31109,-1.27059 -72.8632,0.0281 -70.11691,1.3092 l 2.67954,1.25 -3.31495,8.34374 c -1.82323,4.58905 -3.8152,8.8078 -4.4266,9.375 -1.12725,1.04572 -0.55847,-2.0685 1.12438,-6.15624 0.62949,-1.52909 0.31814,-2.1875 -1.03441,-2.1875 -2.42222,0 -3.76403,-2.04051 -2.59047,-3.93937 0.63156,-1.02189 1.30827,-0.86674 2.33321,0.53494 1.75085,2.39443 3.76448,1.31454 5.01519,-2.68961 0.65556,-2.09876 0.5057,-2.70841 -0.51128,-2.07989 -1.71133,1.05766 -5.35125,-1.62455 -4.36662,-3.21771 0.38545,-0.62367 -6.72676,-1.10836 -16.26377,-1.10836 l -16.94877,0 0,4.4018 c 0,3.44655 -0.65816,4.70167 -3.03282,5.78364 -3.63726,1.65725 -8.91094,0.56707 -9.91507,-2.04965 -1.162986,-3.0307 0.48855,-5.63579 3.57289,-5.63579 3.33539,0 5.04774,3.30824 2.99351,5.78343 -1.09433,1.3186 -1.01239,1.71657 0.35344,1.71657 2.80121,0 4.77805,-2.68927 4.77805,-6.5 l 0,-3.5 -10,0 -9.999995,0 0,34.42177 0,34.42177 17.499995,-0.16542 c 12.24011,-0.1157 17.52966,-0.59939 17.59868,-1.60927 z M 405.05139,76.25005 c 2.16705,-5.60842 2.21806,-6.875 0.27691,-6.875 -2.68916,0 -3.93452,-2.41456 -2.1515,-4.17142 1.12389,-1.10739 1.88005,-0.90539 3.17491,0.84815 1.60232,2.16986 1.80948,2.08942 3.616,-1.40402 1.05398,-2.03817 1.56375,-4.05832 1.13284,-4.48923 -0.43091,-0.43092 -0.12722,-0.78348 0.67485,-0.78348 1.8736,0 2.01796,-0.62935 -2.08824,9.10346 -3.16805,7.50917 -7.04702,14.01197 -4.63577,7.77154 z M 105.39336,63.47288 c 2.21904,-0.27614 6.15654,-0.28068 8.75,-0.0101 2.59345,0.2706 0.77788,0.49653 -4.03462,0.50207 -4.8125,0.006 -6.93443,-0.21585 -4.71538,-0.49199 z m 101.25,0 c 2.21904,-0.27614 6.15654,-0.28068 8.75,-0.0101 2.59345,0.2706 0.77788,0.49653 -4.03462,0.50207 -4.8125,0.006 -6.93442,-0.21585 -4.71538,-0.49199 z m 420,0 c 2.21904,-0.27614 6.15654,-0.28068 8.75,-0.0101 2.59345,0.2706 0.77788,0.49653 -4.03462,0.50207 -4.8125,0.006 -6.93443,-0.21585 -4.71538,-0.49199 z m 139.40288,-0.008 c 2.57812,-0.26968 6.79687,-0.26968 9.375,0 2.57812,0.26968 0.46875,0.49033 -4.6875,0.49033 -5.15625,0 -7.26563,-0.22065 -4.6875,-0.49033 z m -626.5625,59.66057 c 0,-2.32456 -0.83334,-2.5 -11.875,-2.5 -11.04166,0 -11.875,0.17544 -11.875,2.5 0,2.32456 0.83334,2.5 11.875,2.5 11.04166,0 11.875,-0.17544 11.875,-2.5 z m 26.25,0 c 0,-2.33333 -0.83334,-2.5 -12.5,-2.5 -11.66666,0 -12.5,0.16667 -12.5,2.5 0,2.33333 0.83334,2.5 12.5,2.5 11.66666,0 12.5,-0.16667 12.5,-2.5 z m 25,0 c 0,-2.32456 -0.83334,-2.5 -11.875,-2.5 -11.04166,0 -11.875,0.17544 -11.875,2.5 0,2.32456 0.83334,2.5 11.875,2.5 11.04166,0 11.875,-0.17544 11.875,-2.5 z m 25,0 c 0,-2.32456 -0.83334,-2.5 -11.875,-2.5 -11.04166,0 -11.875,0.17544 -11.875,2.5 0,2.32456 0.83334,2.5 11.875,2.5 11.04166,0 11.875,-0.17544 11.875,-2.5 z m 86.25,-3.75 0,-6.25 -16.875,0 -16.875,0 0,6.25 0,6.25 16.875,0 16.875,0 0,-6.25 z m 24.2518,4.50469 c -0.76906,-2.00414 3.9732,-5.75469 7.27634,-5.75469 1.38852,0 2.22186,-0.93765 2.22186,-2.5 0,-2.37179 -0.83334,-2.5 -16.25,-2.5 l -16.25,0 0,6.25 0,6.25 11.83577,0 c 9.61623,0 11.71018,-0.32729 11.16603,-1.74531 z m 34.4982,-4.50469 0,-6.25 -11.875,0 -11.875,0 0,4.75 c 0,2.6125 -0.675,5.425 -1.5,6.25 -1.16666,1.16667 1.47222,1.5 11.875,1.5 l 13.375,0 0,-6.25 z m 26.25,0.0738 c 0,-3.39693 -0.57547,-6.53189 -1.27882,-6.96659 -0.70335,-0.4347 -6.32835,-0.39534 -12.5,0.0875 l -11.22118,0.87781 0,6.08877 0,6.08877 12.5,0 12.5,0 0,-6.17623 z m 71.80141,4.26147 c 1.33453,-1.00939 3.72515,-1.83525 5.3125,-1.83525 2.62998,0 2.88609,-0.55463 2.88609,-6.25 l 0,-6.25 -12.5,0 -12.5,0 0,8.125 0,8.125 7.1875,-0.0397 c 4.32811,-0.0239 8.1528,-0.76987 9.61391,-1.875 z m 50.69859,0.0397 c 0.85586,-1.03125 2.89349,-1.875 4.52805,-1.875 2.733,0 2.97195,-0.5025 2.97195,-6.25 l 0,-6.25 -11.875,0 -11.875,0 0,3.75 c 0,2.0625 0.5625,3.75 1.25,3.75 2.97594,0 0.80694,2.05337 -4.45493,4.21744 -5.65408,2.32538 -5.71321,2.32349 -8.12031,-0.26023 -3.04206,-3.26528 -3.04181,-3.95721 10e-4,-3.95721 1.33442,0 2.77387,-0.5625 3.19877,-1.25 0.4249,-0.6875 2.1456,-1.25 3.82377,-1.25 2.21789,0 3.05123,-0.68278 3.05123,-2.5 0,-2.32297 -0.83334,-2.5 -11.76834,-2.5 l -11.76835,0 -0.41915,8.12762 -0.41916,8.12763 20.15945,-0.003 c 16.39226,-0.002 20.45022,-0.353 21.71555,-1.87762 z m 46.25,-6.875 0,-8.75 -18.75,0 -18.75,0 0,8.75 0,8.75 18.75,0 18.75,0 0,-8.75 z m 125,4.375 0,-4.375 -21.875,0 -21.875,0 0,4.375 0,4.375 21.875,0 21.875,0 0,-4.375 z m 17.5,2.5 c 0.85586,-1.03125 2.89349,-1.875 4.52805,-1.875 2.13861,0 2.97195,-0.701 2.97195,-2.5 0,-2.32456 -0.83334,-2.5 -11.875,-2.5 l -11.875,0 0,4.375 0,4.375 7.34695,0 c 5.00567,0 7.84283,-0.59751 8.90305,-1.875 z m 33.75,-2.5 0,-4.375 -12.5,0 -12.5,0 0,4.375 0,4.375 12.5,0 12.5,0 0,-4.375 z m 43.5167,-0.3125 0.3917,-4.0625 -21.3292,0 -21.3292,0 0,4.40522 0,4.40523 20.9375,-0.34273 20.9375,-0.34272 0.3917,-4.0625 z m -641.2873,-6.22959 c -3.24258,-0.25656 -8.86758,-0.25922 -12.5,-0.006 -3.63242,0.2533 -0.9794,0.46321 5.8956,0.46646 6.875,0.003 9.84697,-0.20399 6.6044,-0.46055 z m 25.5831,-0.004 c -3.60938,-0.2525 -9.51563,-0.2525 -13.125,0 -3.60938,0.25251 -0.65625,0.4591 6.5625,0.4591 7.21875,0 10.17187,-0.20659 6.5625,-0.4591 z m 25.6669,0.004 c -3.24258,-0.25656 -8.86758,-0.25922 -12.5,-0.006 -3.63242,0.2533 -0.9794,0.46321 5.8956,0.46646 6.875,0.003 9.84697,-0.20399 6.6044,-0.46055 z m 25,0 c -3.24258,-0.25656 -8.86758,-0.25922 -12.5,-0.006 -3.63242,0.2533 -0.9794,0.46321 5.8956,0.46646 6.875,0.003 9.84697,-0.20399 6.6044,-0.46055 z m 459.26987,-3.76508 c -6.39414,-0.22733 -16.51914,-0.22625 -22.5,0.002 -5.98084,0.22864 -0.74927,0.41463 11.62573,0.41332 12.375,-0.001 17.26842,-0.18838 10.87427,-0.4157 z m 30.73013,0.0151 c -3.24257,-0.25656 -8.86757,-0.25922 -12.5,-0.006 -3.63242,0.2533 -0.9794,0.46321 5.8956,0.46647 6.875,0.003 9.84698,-0.204 6.6044,-0.46055 z m 25.5831,-0.005 c -3.60937,-0.25251 -9.51562,-0.25251 -13.125,0 -3.60937,0.2525 -0.65625,0.45909 6.5625,0.45909 7.21875,0 10.17188,-0.20659 6.5625,-0.45909 z m 39.375,-0.009 c -6.01562,-0.22914 -15.85937,-0.22914 -21.875,0 -6.01562,0.22914 -1.09375,0.41662 10.9375,0.41662 12.03125,0 16.95313,-0.18748 10.9375,-0.41662 z m -471.92969,-3.7489 c -5.01445,-0.23787 -12.88945,-0.23627 -17.5,0.003 -4.61055,0.23982 -0.50781,0.43445 9.11719,0.4325 9.625,-0.002 13.39726,-0.19817 8.38281,-0.43604 z m 34.42969,0.002 c -4.64063,-0.24051 -12.23438,-0.24051 -16.875,0 -4.64063,0.24051 -0.84375,0.43729 8.4375,0.43729 9.28125,0 13.07812,-0.19678 8.4375,-0.43729 z m 27.5419,0.01 c -3.24258,-0.25656 -8.86758,-0.25922 -12.5,-0.006 -3.63242,0.2533 -0.9794,0.46322 5.8956,0.46647 6.875,0.003 9.84698,-0.20399 6.6044,-0.46055 z m 25.5831,-0.005 c -3.60938,-0.2525 -9.51563,-0.2525 -13.125,0 -3.60938,0.2525 -0.65625,0.45909 6.5625,0.45909 7.21875,0 10.17187,-0.20659 6.5625,-0.45909 z m 80,-3.75001 c -3.60938,-0.2525 -9.51563,-0.2525 -13.125,0 -3.60938,0.25251 -0.65625,0.4591 6.5625,0.4591 7.21875,0 10.17187,-0.20659 6.5625,-0.4591 z m 25.6669,0.004 c -3.24258,-0.25655 -8.86758,-0.25921 -12.5,-0.006 -3.63242,0.25331 -0.9794,0.46322 5.8956,0.46647 6.875,0.003 9.84698,-0.20399 6.6044,-0.46055 z m 25,0 c -3.24258,-0.25655 -8.86758,-0.25921 -12.5,-0.006 -3.63242,0.25331 -0.9794,0.46322 5.8956,0.46647 6.875,0.003 9.84698,-0.20399 6.6044,-0.46055 z m 34.9581,-0.012 c -5.32813,-0.23431 -14.04688,-0.23431 -19.375,0 -5.32813,0.23432 -0.96875,0.42603 9.6875,0.42603 10.65625,0 15.01562,-0.19171 9.6875,-0.42603 z M 124.21314,88.45746 c -3.24258,-0.25656 -8.86758,-0.25922 -12.5,-0.006 -3.63242,0.2533 -0.9794,0.46321 5.8956,0.46647 6.875,0.003 9.84697,-0.204 6.6044,-0.46055 z m 25,0 c -3.24258,-0.25656 -8.86758,-0.25922 -12.5,-0.006 -3.63242,0.2533 -0.9794,0.46321 5.8956,0.46647 6.875,0.003 9.84697,-0.204 6.6044,-0.46055 z m 26.25,0 c -3.24258,-0.25656 -8.86758,-0.25922 -12.5,-0.006 -3.63242,0.2533 -0.9794,0.46321 5.8956,0.46647 6.875,0.003 9.84697,-0.204 6.6044,-0.46055 z m 25,0 c -3.24258,-0.25656 -8.86758,-0.25922 -12.5,-0.006 -3.63242,0.2533 -0.9794,0.46321 5.8956,0.46647 6.875,0.003 9.84697,-0.204 6.6044,-0.46055 z m 459.26987,-3.76508 c -6.39414,-0.22733 -16.51914,-0.22626 -22.5,0.002 -5.98084,0.22863 -0.74927,0.41462 11.62573,0.41331 12.375,-0.001 17.26842,-0.18837 10.87427,-0.4157 z m 30.73013,0.0151 c -3.24257,-0.25656 -8.86757,-0.25922 -12.5,-0.006 -3.63242,0.2533 -0.9794,0.46321 5.8956,0.46646 6.875,0.003 9.84698,-0.20399 6.6044,-0.46055 z m 25.5831,-0.005 c -3.60937,-0.25251 -9.51562,-0.25251 -13.125,0 -3.60937,0.2525 -0.65625,0.45909 6.5625,0.45909 7.21875,0 10.17188,-0.20659 6.5625,-0.45909 z m 39.375,-0.009 c -6.01562,-0.22915 -15.85937,-0.22915 -21.875,0 -6.01562,0.22914 -1.09375,0.41662 10.9375,0.41662 12.03125,0 16.95313,-0.18748 10.9375,-0.41662 z M 283.49155,80.94492 c -5.01445,-0.23787 -12.88945,-0.23628 -17.5,0.004 -4.61055,0.23982 -0.50781,0.43444 9.11719,0.43249 9.625,-0.002 13.39726,-0.19816 8.38281,-0.43604 z m 34.42969,0.002 c -4.64063,-0.24051 -12.23438,-0.24051 -16.875,0 -4.64063,0.24051 -0.84375,0.43729 8.4375,0.43729 9.28125,0 13.07812,-0.19678 8.4375,-0.43729 z m 27.5419,0.01 c -3.24258,-0.25656 -8.86758,-0.25922 -12.5,-0.006 -3.63242,0.2533 -0.9794,0.46321 5.8956,0.46647 6.875,0.003 9.84698,-0.204 6.6044,-0.46055 z m 25.5831,-0.005 c -3.60938,-0.2525 -9.51563,-0.2525 -13.125,0 -3.60938,0.2525 -0.65625,0.4591 6.5625,0.4591 7.21875,0 10.17187,-0.2066 6.5625,-0.4591 z m 80,-3.75 c -3.60938,-0.2525 -9.51563,-0.2525 -13.125,0 -3.60938,0.2525 -0.65625,0.4591 6.5625,0.4591 7.21875,0 10.17187,-0.2066 6.5625,-0.4591 z m 25.6669,0.005 c -3.24258,-0.25656 -8.86758,-0.25922 -12.5,-0.006 -3.63242,0.2533 -0.9794,0.46321 5.8956,0.46647 6.875,0.003 9.84698,-0.204 6.6044,-0.46055 z m 25,0 c -3.24258,-0.25656 -8.86758,-0.25922 -12.5,-0.006 -3.63242,0.2533 -0.9794,0.46321 5.8956,0.46647 6.875,0.003 9.84698,-0.204 6.6044,-0.46055 z m 34.9581,-0.012 c -5.32813,-0.23431 -14.04688,-0.23431 -19.375,0 -5.32813,0.23431 -0.96875,0.42602 9.6875,0.42602 10.65625,0 15.01562,-0.19171 9.6875,-0.42602 z m -210.9375,-10.32096 0,-10 -11.29398,0 c -8.27675,0 -12.11451,0.53763 -14.36535,2.01244 -1.68926,1.10684 -3.91946,1.68699 -4.95602,1.28923 -1.56843,-0.60186 -1.88465,0.73838 -1.88465,7.98756 l 0,8.71077 16.25,0 16.25,0 0,-10 z m 25,0 0,-10 -11.875,0 -11.875,0 0,10 0,10 11.875,0 11.875,0 0,-10 z m 130.99715,-2.1875 0.37214,-7.8125 -7.15013,0 c -4.16592,0 -9.13355,0.91298 -11.9024,2.1875 -4.52767,2.08412 -4.75378,2.47032 -4.78451,8.17191 l -0.0322,5.9844 11.5625,-0.3594 11.5625,-0.35941 0.37215,-7.8125 z m 16.19035,7.20457 9.0625,-0.0171 0,-7.5 0,-7.5 -11.875,0 -11.875,0 0,8.27079 c 0,7.9671 0.10325,8.24311 2.8125,7.51706 1.54687,-0.41454 6.89062,-0.7614 11.875,-0.77078 z M 31.245109,52.50005 c -1.71875,-1.71875 -3.943183,-3.125 -4.943183,-3.125 -1.10606,0 -1.818181,1.22396 -1.818181,3.125 0,2.80651 0.503788,3.125 4.943181,3.125 l 4.943184,0 -3.125001,-3.125 z m 126.290041,1.21024 c 3.13001,-2.36742 6.83013,-2.34843 7.74655,0.0398 1.08714,2.83302 126.85085,2.83302 129.20204,0 0.85586,-1.03125 2.91114,-1.875 4.56729,-1.875 1.65615,0 3.33495,0.84375 3.73067,1.875 0.56493,1.47217 3.10777,1.875 11.83578,1.875 11.02401,1e-5 11.11626,-0.0259 11.11626,-3.12499 l 0,-3.125 -119.6875,0.0398 C 102.7875,49.4492 86.02568,49.70656 83.93233,51.2899 80.80231,53.65732 77.1022,53.63833 76.18578,51.2501 75.6102,49.75019 72.9299,49.38295 62.7875,49.41438 c -12.01949,0.0372 -12.79554,0.19973 -14.92462,3.125 l -2.24585,3.08572 54.74586,-0.0397 c 46.157,-0.0335 55.12652,-0.32768 57.17226,-1.875 z m 196.25,0 c 3.13001,-2.36742 6.83013,-2.34843 7.74655,0.0398 1.06735,2.78146 93.57346,2.74365 97.25345,-0.0398 3.13001,-2.36742 6.83013,-2.34843 7.74655,0.0398 0.52694,1.37316 2.6911,1.875 8.08578,1.875 7.02401,1e-5 7.36626,-0.14519 7.36626,-3.12499 l 0,-3.125 -72.54397,0 c -64.58033,0 -72.88115,0.22092 -75.61535,2.01244 -1.68927,1.10684 -3.91947,1.68699 -4.95603,1.28923 -1.1523,-0.44218 -1.88465,-0.01 -1.88465,1.11256 0,2.64217 23.29448,2.57352 26.80141,-0.079 z m 155.69859,0.0398 c 0.85586,-1.03125 2.91114,-1.875 4.56729,-1.875 1.65615,0 3.33495,0.84375 3.73067,1.875 0.62704,1.63401 9.22854,1.875 66.92272,1.875 l 66.20319,0 -0.39943,-2.8125 c -0.39625,-2.79004 -0.58915,-2.81523 -24.1491,-3.15373 -20.52737,-0.29493 -24.29239,-0.0489 -27.74979,1.81298 -3.76593,2.02809 -4.13764,2.02977 -6.34876,0.0287 -2.13345,-1.93074 -7.23563,-2.12548 -55.68772,-2.12548 l -53.33907,0 0,3.125 c 0,3.12241 0.01,3.125 12.34695,3.125 9.45011,0 12.71203,-0.43991 13.90305,-1.875 z m 149.02291,-4.173 c -2.47786,-0.60988 -3.12291,0.47605 -2.13385,3.59228 l 0.86732,2.73269 1.49256,-2.95098 c 1.20492,-2.38228 1.16136,-3.03251 -0.22603,-3.37399 z m 39.72709,4.173 c 0.85586,-1.03125 2.89349,-1.875 4.52805,-1.875 1.63458,0 2.97195,-0.5625 2.97195,-1.25 0,-0.77587 -6.875,-1.25 -18.125,-1.25 -10.32051,0 -18.125,0.49979 -18.125,1.16071 0,0.63839 -0.88392,2.04464 -1.96429,3.125 -1.78571,1.78572 -0.54962,1.96429 13.59695,1.96429 12.30726,0 15.88663,-0.39208 17.11734,-1.875 z m 45.81989,-1.25975 1.4449,-3.11525 -19.2574,0 -19.25739,0 0,3.125 0,3.125 17.8125,-0.01 c 17.76115,-0.01 17.81666,-0.0187 19.25739,-3.125 z m 45.43011,0.01 0,-3.125 -17.5,0 c -9.9359,0 -17.5,0.5017 -17.5,1.16071 0,0.63839 -0.88392,2.04464 -1.96429,3.125 -1.78571,1.78567 -0.1948,1.96424 17.5,1.96424 l 19.46429,0 0,-3.125 z m -746.25,1.35218 c 0,-0.28752 -0.34143,-1.41252 -0.75873,-2.5 -0.83115,-2.16593 -4.24127,-2.74214 -4.24127,-0.71664 0,0.75701 -0.976,0.65107 -2.44315,-0.26518 -3.27113,-2.04286 -5.085429,-0.0218 -2.00347,2.23179 2.17489,1.59031 9.44662,2.55255 9.44662,1.25003 z m 611.25,-2.051 c 0,-1.41558 -0.5625,-2.22613 -1.25,-1.80123 -0.6875,0.4249 -1.25,1.58309 -1.25,2.57377 0,0.99067 0.5625,1.80123 1.25,1.80123 0.6875,0 1.25,-1.1582 1.25,-2.57377 z m -607.5,-1.25 c 0,-0.64693 -0.8261,-1.17623 -1.83576,-1.17623 -1.11511,0 -1.5544,0.73324 -1.11902,1.86782 0.73785,1.92283 2.95478,1.40394 2.95478,-0.69159 z m 33.75,0.0738 c 1.5162,-0.97984 1.3368,-1.21538 -0.9375,-1.23086 -1.54688,-0.0105 -2.8125,0.54336 -2.8125,1.23086 0,1.56615 1.32655,1.56615 3.75,0 z m -52.499995,-5.625 c 0,-1.94445 -0.708334,-3.125 -1.875,-3.125 -1.166666,0 -1.875,1.18055 -1.875,3.125 0,1.94444 0.708334,3.125 1.875,3.125 1.166666,0 1.875,-1.18056 1.875,-3.125 z m 7.272555,0 c 1.24268,-2.72737 1.12617,-3.125 -0.91562,-3.125 -2.14577,0 -3.856935,2.26365 -3.856935,5.10223 0,2.41758 3.414725,1.00289 4.772555,-1.97723 z m 6.47744,1.94877 c 0,-2.16558 -2.20013,-2.56625 -3.76142,-0.68501 -1.28546,1.54889 -1.09946,1.86124 1.10837,1.86124 1.45918,0 2.65305,-0.52931 2.65305,-1.17623 z m 4.71354,-0.30815 c -0.77259,-2.31778 -3.46354,-2.7022 -3.46354,-0.49479 0,1.08854 0.89063,1.97917 1.97917,1.97917 1.08854,0 1.75651,-0.66797 1.48437,-1.48438 z m 31.09003,-0.39062 c 1.03125,-1.03125 3.24107,-1.875 4.91072,-1.875 1.66963,0 3.03571,-0.5625 3.03571,-1.25 0,-0.778 -7.10793,-1.25 -18.82377,-1.25 -10.35307,0 -18.59606,0.42187 -18.31774,0.9375 0.27832,0.51562 0.85636,1.92187 1.28454,3.125 0.67178,1.88761 2.50977,2.1875 13.40703,2.1875 9.55868,0 13.0843,-0.45579 14.50352,-1.875 z m 7.32143,0.625 c 0.98359,-1.59149 -1.91235,-1.59149 -4.375,0 -1.52435,0.9851 -1.36281,1.21529 0.86372,1.23086 1.5063,0.0105 3.08638,-0.54336 3.51128,-1.23086 z m 243.67641,-0.66476 c 3.13001,-2.36742 6.83013,-2.34843 7.74655,0.0398 0.61393,1.59987 5.46888,1.875 33.08578,1.875 18.82221,10e-6 32.36626,-0.48029 32.36626,-1.14776 0,-0.63127 0.34143,-2.03752 0.75874,-3.125 0.6894,-1.79656 -13.70229,-1.97723 -157.5,-1.97723 l -158.25874,0 0,3.125 0,3.125 119.6875,-0.0397 c 103.25874,-0.0343 120.02056,-0.29167 122.11391,-1.875 z m 153.19859,0.76699 c 0,-0.63127 0.34143,-2.03752 0.75874,-3.125 0.68071,-1.77391 -2.8335,-1.97723 -34.17437,-1.97723 l -34.93308,0 -1.42385,3.125 -1.42384,3.125 35.5982,0 c 20.78493,0 35.5982,-0.47762 35.5982,-1.14777 z m -65,-2.051 c 0,-1.07183 0.57167,-1.59546 1.27039,-1.16363 0.69871,0.43183 0.94677,1.30877 0.55122,1.94877 -1.07154,1.7338 -1.82161,1.41051 -1.82161,-0.78514 z m 150,2.051 c 0,-0.63127 0.34143,-2.03752 0.75874,-3.125 1.17812,-3.07016 -26.42573,-2.88861 -31.96948,0.21027 -3.72699,2.08333 -3.99135,2.08333 -5.5516,0 -1.42361,-1.90089 -3.9278,-2.1875 -19.11232,-2.1875 -17.42596,0 -17.47797,0.009 -18.8979,3.125 l -1.42384,3.125 38.0982,0 c 22.30314,0 38.0982,-0.47585 38.0982,-1.14777 z m 26.80141,-0.76699 c 1.33453,-1.00938 3.4439,-1.83524 4.6875,-1.83524 1.2436,0 2.26109,-0.5625 2.26109,-1.25 0,-0.73906 -4.51645,-1.25 -11.04935,-1.25 -10.57296,0 -11.11075,0.13473 -12.47321,3.125 l -1.42384,3.125 7.7857,-0.0397 c 4.85521,-0.0248 8.69899,-0.73053 10.21211,-1.875 z m 56.90964,-0.89774 c 0.86615,-2.15487 1.14901,-2.30101 1.20971,-0.625 0.11064,3.05427 2.57924,2.75518 2.57924,-0.3125 0,-2.42064 -0.83334,-2.5 -26.25,-2.5 l -26.25,0 0,3.125 0,3.125 23.79028,0 c 23.50311,0 23.80393,-0.034 24.92077,-2.8125 z m 17.53895,-0.3125 c 0,-2.91667 -0.41666,-3.125 -6.25,-3.125 -6.23523,0 -6.92494,0.53666 -5.49126,4.27276 0.53253,1.38778 2.3958,1.97724 6.25,1.97724 5.02401,0 5.49126,-0.26591 5.49126,-3.125 z m 37.5,0 0,-3.125 -18.125,0 -18.125,0 0,3.125 0,3.125 18.125,0 18.125,0 0,-3.125 z m 47.5,0 0,-3.125 -23.125,0 c -21.59091,0 -23.125,0.15202 -23.125,2.29166 0,1.26042 0.375,2.66667 0.83334,3.125 0.45832,0.45834 10.86457,0.83334 23.125,0.83334 l 22.29166,0 0,-3.125 z m 36.25,0 0,-3.125 -17.5,0 -17.5,0 0,3.125 0,3.125 17.5,0 17.5,0 0,-3.125 z m -758.977438,-7.5 c 1.345285,-2.95258 1.218418,-3.125 -2.299356,-3.125 -3.138081,0 -3.723201,0.49111 -3.723201,3.125 0,2.20077 0.680042,3.125 2.299356,3.125 1.264646,0 2.940086,-1.40625 3.723201,-3.125 z m 8.977438,0.625 c 0,-1.375 -0.42719,-2.5 -0.94931,-2.5 -0.52213,0 -1.65189,1.125 -2.51059,2.5 -1.36669,2.18841 -1.24837,2.5 0.94931,2.5 1.67726,0 2.51059,-0.82982 2.51059,-2.5 z m 46.25,-0.68416 0,-3.18416 -14.0625,0.20228 c -8.91089,0.12818 -14.39893,0.72225 -14.98086,1.62166 -0.65885,1.0183 -0.92377,0.97786 -0.9375,-0.14312 -0.0132,-1.07427 -2.36268,-1.5625 -7.51914,-1.5625 -6.43939,0 -7.5,0.32407 -7.5,2.29166 0,1.26042 0.375,2.66667 0.83334,3.125 0.45833,0.45834 10.58333,0.83334 22.49999,0.83334 l 21.66667,0 0,-3.18416 z m 326.25,0.0592 0,-3.125 -162.5,0 -162.5,0 0,3.125 0,3.125 162.5,0 162.5,0 0,-3.125 z m 119.30141,1.21024 c 1.33453,-1.00938 3.72515,-1.83524 5.3125,-1.83524 1.58735,0 2.88609,-0.5625 2.88609,-1.25 0,-0.81683 -21.875,-1.25 -63.125,-1.25 l -63.125,0 0,3.125 0,3.125 57.8125,-0.0397 c 48.85349,-0.0336 58.18851,-0.32416 60.23891,-1.875 z m 45.69859,-1.21024 0,-3.125 -17.97928,0 -17.97928,0 -0.59738,3.125 -0.59739,3.125 18.57667,0 18.57666,0 0,-3.125 z m 23.75,0 c 0,-3.10185 -0.0834,-3.125 -11.25,-3.125 -11.16666,0 -11.25,0.0231 -11.25,3.125 0,3.10185 0.0834,3.125 11.25,3.125 11.16666,0 11.25,-0.0231 11.25,-3.125 z m 67.5,0 0,-3.125 -33.125,0 c -31.28787,0 -33.125,0.12709 -33.125,2.29166 0,1.26042 0.375,2.66667 0.83334,3.125 0.45832,0.45834 15.36457,0.83334 33.125,0.83334 l 32.29166,0 0,-3.125 z m 37.5,0 0,-3.125 -18.125,0 -18.125,0 0,3.125 0,3.125 18.125,0 18.125,0 0,-3.125 z m 47.5,0 0,-3.125 -23.125,0 -23.125,0 0,3.125 0,3.125 23.125,0 23.125,0 0,-3.125 z m 36.25,0 0,-3.125 -17.5,0 -17.5,0 0,3.125 0,3.125 17.5,0 17.5,0 0,-3.125 z M 35.94782,31.05662 c 3.66862,-3.32005 2.72342,-4.18126 -4.589075,-4.18126 -6.5,0 -6.875,0.17045 -6.875,3.125 0,2.76586 0.527395,3.125 4.589074,3.125 2.523991,0 5.617741,-0.93093 6.875001,-2.06874 z m 18.53592,0.92097 c 0,-0.63127 0.34143,-2.03752 0.75874,-3.125 1.12477,-2.93111 -8.02628,-2.74373 -10.26868,0.21027 -2.64439,3.48355 -2.09075,4.0625 3.88494,4.0625 3.09375,0 5.625,-0.5165 5.625,-1.14777 z m 31.25,-1.97723 c 0,-3.11131 -0.0514,-3.125 -11.72921,-3.125 -10.56139,0 -11.79242,0.2417 -12.36405,2.42762 -0.34916,1.33519 -0.32101,2.74144 0.0626,3.125 0.3835,0.38356 5.94733,0.69738 12.364,0.69738 11.61111,0 11.66666,-0.0149 11.66666,-3.125 z m 326.25,0 0,-3.125 -162.5,0 -162.5,0 0,3.125 0,3.125 162.5,0 162.5,0 0,-3.125 z m 127.27444,-0.3125 0.39943,-2.8125 -63.21193,0 -63.21194,0 0,3.13656 0,3.13656 62.8125,-0.32406 62.8125,-0.32406 0.39944,-2.8125 z m 37.72556,0.3125 0,-3.125 -18.125,0 -18.125,0 0,3.125 0,3.125 18.125,0 18.125,0 0,-3.125 z m 23.75,0 c 0,-3.10185 -0.0834,-3.125 -11.25,-3.125 -11.16666,0 -11.25,0.0231 -11.25,3.125 0,3.10185 0.0834,3.125 11.25,3.125 11.16666,0 11.25,-0.0231 11.25,-3.125 z m 67.5,2.07286 c 0,-1.01548 -65.03086,-3.08367 -66.01504,-2.09949 -0.26691,0.26691 -0.1145,1.08522 0.33864,1.81846 0.99806,1.61491 65.6764,1.89166 65.6764,0.28103 z m 29.11964,0.12516 c -4.95296,-0.23663 -13.39046,-0.23807 -18.75,-0.003 -5.35955,0.23488 -1.30714,0.42848 9.00536,0.43023 10.3125,0.002 14.69759,-0.19042 9.74464,-0.42705 z m 92.13036,-2.19802 0,-3.125 -17.5,0 -17.5,0 0,3.125 0,3.125 17.5,0 17.5,0 0,-3.125 z m -85.3125,-2.73666 c -1.20313,-0.31441 -3.17188,-0.31441 -4.375,0 -1.20313,0.31441 -0.21875,0.57165 2.1875,0.57165 2.40625,0 3.39062,-0.25724 2.1875,-0.57165 z m 38.18992,-0.0688 c -6.32366,-0.22639 -17.01116,-0.22737 -23.75,-0.002 -6.73883,0.22519 -1.56492,0.41042 11.49758,0.41162 13.0625,10e-4 18.57609,-0.18305 12.25242,-0.40944 z M 42.98374,24.12505 c 1.78694,-1.78693 2.01911,-8.5 0.29398,-8.5 -1.62749,0 -3.79398,4.23582 -3.79398,7.41782 0,2.90919 1.27788,3.3043 3.5,1.08218 z m 496.25937,-4.4375 0.38438,-5.3125 -63.19688,0 -63.19687,0 0,5.63656 0,5.63656 62.8125,-0.32406 62.8125,-0.32406 0.38437,-5.3125 z m 89.24844,5.00826 c -5.01445,-0.23787 -12.88945,-0.23628 -17.5,0.004 -4.61055,0.23982 -0.50781,0.43444 9.11719,0.43249 9.625,-0.002 13.39726,-0.19816 8.38281,-0.43604 z m -53.4029,-3.96505 c 2.28341,-0.89182 -28.85589,-0.4695 -33.10491,0.44898 -1.03125,0.22292 5.4375,0.43102 14.375,0.46245 8.9375,0.0314 17.36596,-0.37871 18.72991,-0.91143 z m -6.48527,-6.03269 c -4.95297,-0.23663 -13.39047,-0.23807 -18.75,-0.003 -5.35955,0.23488 -1.30714,0.42848 9.00536,0.43024 10.3125,0.002 14.69759,-0.19043 9.74464,-0.42706 z"
     id="path4829"
     inkscape:connector-curvature="0" />
</svg>
