<?xml version="1.0" encoding="UTF-8" standalone="no"?>
<!-- Created with Inkscape (http://www.inkscape.org/) -->

<svg
   xmlns:dc="http://purl.org/dc/elements/1.1/"
   xmlns:cc="http://creativecommons.org/ns#"
   xmlns:rdf="http://www.w3.org/1999/02/22-rdf-syntax-ns#"
   xmlns:svg="http://www.w3.org/2000/svg"
   xmlns="http://www.w3.org/2000/svg"
   xmlns:sodipodi="http://sodipodi.sourceforge.net/DTD/sodipodi-0.dtd"
   xmlns:inkscape="http://www.inkscape.org/namespaces/inkscape"
   width="218.00385mm"
   height="177.42503mm"
   viewBox="0 0 772.45457 628.67138"
   id="svg2"
   version="1.1"
   inkscape:version="0.91 r13725"
   sodipodi:docname="riku_2.svg">
  <defs
     id="defs4" />
  <sodipodi:namedview
     id="base"
     pagecolor="#ffffff"
     bordercolor="#666666"
     borderopacity="1.0"
     inkscape:pageopacity="0.0"
     inkscape:pageshadow="2"
     inkscape:zoom="0.93"
     inkscape:cx="393.95119"
     inkscape:cy="395.03195"
     inkscape:document-units="px"
     inkscape:current-layer="layer2"
     showgrid="false"
     inkscape:window-width="1440"
     inkscape:window-height="851"
     inkscape:window-x="0"
     inkscape:window-y="0"
     inkscape:window-maximized="1"
     fit-margin-top="0"
     fit-margin-left="0"
     fit-margin-right="0"
     fit-margin-bottom="0" />
  <metadata
     id="metadata7">
    <rdf:RDF>
      <cc:Work
         rdf:about="">
        <dc:format>image/svg+xml</dc:format>
        <dc:type
           rdf:resource="http://purl.org/dc/dcmitype/StillImage" />
        <dc:title></dc:title>
      </cc:Work>
    </rdf:RDF>
  </metadata>
  <g
     inkscape:groupmode="layer"
     id="layer2"
     inkscape:label="vector"
     style="display:inline"
     transform="translate(45.72587,-208.82136)">
    <path
       style="fill:#dddddd;fill-opacity:1;fill-rule:evenodd;stroke:none;stroke-width:1px;stroke-linecap:butt;stroke-linejoin:miter;stroke-opacity:1"
       d="m 234.32727,757.67126 c 260.37802,-73.20717 403.68035,-290.08154 403.68035,-290.08154 0,0 68.886,-62.70011 65.89055,-109.6576 0,0 29.39563,-39.67924 21.47612,-52.87842 -7.91951,-13.19918 -9.71684,-17.03725 -22.03608,-11.75758 -12.31924,5.27967 -32.66953,92.82806 -55.43657,70.39564 0,0 21.98467,-22.62859 24.07919,-56.77296 0,0 6.7189,-73.45897 -13.51985,-96.33755 0,0 -10.55934,-7.03956 -18.47885,7.03956 0,0 -1.22484,90.7225 -16.72828,107.66098 0,0 1.08823,1.77831 -14.94976,3.21216 0,0 19.35881,-24.63848 4.39973,-43.99728 0,0 -3.51978,-12.31924 -22.87858,-9.6794 0,0 -7.03956,-12.31923 -27.27831,-14.07913 0,0 -19.394,-0.87995 -23.79372,7.03957 l -23.72334,-25.51842 -3.51978,29.91814 c 0,0 -44.98875,39.37447 -9.79093,128.24896 0,0 -62.3646,130.45502 -192.59653,146.29404 0,0 -46.99601,-20.4114 -99.43384,-21.1187 -52.20251,-0.70412 -64.12275,5.4365 -108.99997,-19.20197 0,0 -15.072339,-12.47607 -69.628959,-44.15411 -35.54529,-20.6392 -99.43384,-11.43929 -68.63576,33.43794 0,0 153.990469,157.51024 282.462519,89.75444 0,0 -66.87587,51.03683 -58.07641,116.1528 0,0 -43.11733,107.35335 -32.55798,131.99183 0,0 17.5989,30.79808 54.55662,-86.23466 0,0 -5.27968,51.91678 5.27967,83.59482 0,0 7.30889,12.57848 14.6291,2.87323 17.48892,-23.1871 8.68946,-30.50567 5.60965,-76.14479 z"
       id="path4218"
       inkscape:connector-curvature="0"
       sodipodi:nodetypes="cccssccccscccccccccscsccccccsc" />
  </g>
</svg>
