<svg xmlns="http://www.w3.org/2000/svg" width="802.006" height="202.5" viewBox="0 0 802.006 202.5"><path d="M402.23 182.188c-.174-7.276-.706-10.318-1.81-10.33-.858-.01.766-1.21 3.61-2.665 5.05-2.587 5.24-2.595 8.23-.34l3.06 2.308-4.163 2.233c-2.29 1.228-4.984 2.232-5.987 2.232-1.373 0-1.93 2.08-2.26 8.438l-.437 8.437-.244-10.312zm189.74-3.874c-.337-5.74-.19-10.694.326-11.01 1.83-1.124.898-2.763-1.875-3.297-1.546-.298 1.407-.553 6.564-.567 5.156-.014 8.444.222 7.305.524-1.14.302-2.42 1.94-2.846 3.643-.54 2.145-1.9 3.318-4.44 3.826-3.558.712-3.674.97-4.044 9.025l-.38 8.292-.61-10.436zm-515.99-3.626c-.174-7.282-.706-10.315-1.81-10.32-.858-.005.05-.85 2.02-1.876 4.478-2.336 8.215-2.32 11.345.048 1.943 1.47 2.035 1.835.466 1.835-1.078 0-2.66.844-3.516 1.875-.856 1.03-2.868 1.875-4.47 1.875-2.723 0-2.945.558-3.353 8.438L76.224 185l-.244-10.312zm155 .104c-.165-6.8-.768-10.42-1.81-10.84-.858-.346-.33-.674 1.177-.728 1.507-.055 3.087-.66 3.512-1.35.424-.686 2.426-1.25 4.448-1.25 2.02 0 3.676.564 3.676 1.25 0 .69.976 1.25 2.17 1.25 1.226 0 .142 1.087-2.497 2.5-2.565 1.376-5.766 2.5-7.112 2.5-2.145 0-2.5 1.044-2.884 8.44l-.437 8.436-.244-10.208zm171.913-11.32c2.22-.275 6.157-.28 8.75-.01 2.594.27.778.497-4.034.503-4.814.005-6.936-.216-4.717-.492zm-382.45-8.157c-1.114-.86-3.33-4.096-4.927-7.19-3.072-5.957-3.235-8.854-2.12-37.55.385-9.927.084-12.503-1.8-15.384-2.208-3.373-2.196-3.603.48-9.133 2.494-5.15 2.645-6.613 1.64-15.865-1.803-16.595-1.283-30.784 1.313-35.817 4.097-7.946 5.375-8.75 13.913-8.75h7.82l.845-4.996c.464-2.75 1.848-6.237 3.074-7.75l2.23-2.754 2.035 3.937c1.12 2.166 2.037 5.653 2.037 7.75 0 3.535.323 3.812 4.45 3.812 2.445 0 4.157-.47 3.802-1.045-.355-.574-.156-2.683.443-4.687.6-2.004 1.137-2.66 1.196-1.455.156 3.18 2.608 2.69 2.608-.52 0-4.117 1.485-1.75 1.852 2.95L61.658 25l11.938.357c10.583.316 12.003.103 12.518-1.875.54-2.078.59-2.08.725-.045.136 2.072 8.768 2.188 162.584 2.188h162.44l.373-7.813.372-7.812h165l.37 7.812.373 7.813h11.103c10.563 0 11.123-.137 11.503-2.813l.4-2.812 23.75.364c75.408 1.154 128.76 2.796 129.153 3.975.27.804 7.41 1.285 19.086 1.285h18.656l-.324 65.313-.323 65.312-384.447.315c-306.293.25-384.858-.004-386.47-1.25zm769.04-2.815v-3.125l-286.562.04c-249.985.034-286.87.274-288.988 1.875-3.13 2.367-6.83 2.348-7.746-.04-1.067-2.78-89.826-2.742-93.504.04-3.13 2.367-6.83 2.348-7.746-.04-.616-1.605-5.756-1.875-35.668-1.875-23.83 0-35.798.455-37.62 1.43-2.003 1.072-2.79 1.072-3.146 0-.924-2.77-4.018-1.465-4.018 1.695v3.125h765V152.5zm-767.5-61.403c0-54.356-.248-63.07-1.764-61.813-3.754 3.114-4.972 13.464-3.27 27.774 1.82 15.32 1.157 22.095-2.862 29.192l-2.83 5 2.825 5c4.002 7.082 4.712 14.07 2.91 28.666-1.206 9.783-1.236 14.284-.13 19.446 1.265 5.894 3.177 10.013 4.65 10.013.258 0 .47-28.475.47-63.278zm12.715 54.96c3.61-3.267 2.742-4.182-3.964-4.182-5.834 0-6.25.208-6.25 3.125 0 2.676.57 3.125 3.964 3.125 2.18 0 4.993-.93 6.25-2.07zm43.536.92c0-.63.353-2.068.784-3.192.695-1.81-.497-2.02-10.312-1.813-6.55.137-11.474.805-12.016 1.63-.647.986-.924.937-.937-.164-.013-1.055-2.21-1.563-6.75-1.563-5.8 0-7.015.432-8.78 3.125l-2.047 3.125h20.03c11.33 0 20.028-.498 20.028-1.148zm29.41-.864c1.688-1.107 3.92-1.687 4.955-1.29 1.162.446 1.884.006 1.884-1.148 0-1.586-2.514-1.82-16.42-1.524-15.738.336-16.466.467-17.46 3.163-1.035 2.798-.977 2.812 11.464 2.812 9.39 0 13.27-.5 15.575-2.012zm101.25 0c1.688-1.107 3.92-1.687 4.955-1.29 1.15.443 1.884.01 1.884-1.112 0-1.583-6.864-1.835-50-1.835h-50v6.25h45.044c39.3 0 45.435-.257 48.115-2.012zm25.723-1.425c1.016-2.76.855-2.813-8.3-2.813-9.167 0-9.333.057-9.333 3.182 0 3.127.143 3.176 8.3 2.813 7.293-.325 8.423-.71 9.333-3.182zm170.89.312l1.423-3.125h-84.84c-89.74 0-86.356-.2-86.356 5.102 0 .686 33.89 1.148 84.174 1.148h84.174l1.424-3.125zm189.11-.32l1.042-2.82-93.883.32-93.882.32-1.043 2.82-1.044 2.82 93.882-.32 93.883-.32 1.043-2.82zm194.867.32c0-2.942-.386-3.123-6.563-3.085-3.776.023-7.59.818-8.988 1.875-3.13 2.367-6.83 2.348-7.746-.04-.627-1.633-9.063-1.875-65.433-1.875-55.998 0-64.923.253-66.27 1.875-.855 1.03-2.91 1.875-4.567 1.875-1.656 0-3.334-.844-3.73-1.875-.58-1.513-3.44-1.875-14.827-1.875-14.286 0-15.626.438-15.626 5.102 0 .687 38.877 1.148 96.875 1.148h96.874V145zM39.79 137.5c.465-2.435.08-3.125-1.747-3.125-1.29 0-3.447.69-4.795 1.53-1.935 1.21-2.775 1.21-3.983 0-2.51-2.508-4.78-1.75-4.78 1.595 0 2.98.342 3.125 7.353 3.125 6.852 0 7.395-.213 7.952-3.125zm14.694 1.977c0-.63.34-2.037.758-3.125.623-1.622-.25-1.977-4.854-1.977-4.994 0-5.68.344-6.21 3.125-.564 2.947-.287 3.125 4.854 3.125 2.998 0 5.452-.516 5.452-1.148zm-7.5-1.977c0-1.146.604-1.882 1.343-1.635.74.246 1.344.982 1.344 1.635s-.603 1.39-1.343 1.635c-.74.247-1.343-.49-1.343-1.635zm31.432 1.788c-1.885-.755-2.686-1.85-2.227-3.046.587-1.533-.677-1.867-7.058-1.866-7.41 0-7.782.147-7.954 3.125-.178 3.098-.092 3.124 10 3.046 7.683-.06 9.46-.37 7.238-1.258zm36.068-1.788v-3.125h-14.8c-14.573 0-14.82.048-16.223 3.125l-1.423 3.125h32.448V137.5zm15.877 2.336c-.433-.434-.226-1.84.462-3.125 1.16-2.17.67-2.335-6.92-2.335-7.88 0-8.168.11-8.168 3.125 0 2.996.32 3.125 7.708 3.125 4.24 0 7.353-.355 6.92-.79zm50.68-2.336l.597-3.125-20.14.01-20.138.01-1.446 3.115-1.445 3.116h41.972l.598-3.125zm34.694 0c0-3.114-.042-3.125-11.875-3.125-6.533 0-11.876.522-11.876 1.16 0 .64-.884 2.045-1.965 3.126-1.786 1.786-.707 1.965 11.874 1.965h13.84V137.5zm18.943 2.227c-2.167-.412-2.768-1.182-2.304-2.954.57-2.18-.103-2.398-7.38-2.398-7.71 0-8.01.117-8.01 3.125 0 3.095.1 3.123 10.313 2.955 5.672-.094 8.994-.42 7.38-.728zm22.623-2.278l.607-3.178-8.76.364c-7.777.323-8.877.68-9.797 3.177-1.015 2.755-.85 2.812 8.153 2.812 8.85 0 9.212-.118 9.797-3.176zm119.99.05l.597-3.125H268.52l-2.046 3.125-2.048 3.125H376.69l.598-3.125zm27.376 1.788c-1.885-.755-2.686-1.85-2.227-3.046.584-1.525-.625-1.867-6.602-1.867-6.425 0-7.566.38-9.364 3.125l-2.048 3.125 11.59-.08c8.57-.058 10.826-.386 8.65-1.257zm26.66.032c-.445-.717-.128-2.124.703-3.125 1.303-1.57-.035-1.82-9.76-1.82-11.284 0-12.786.6-12.786 5.102 0 .632 5.095 1.148 11.324 1.148 7.547 0 11.054-.435 10.517-1.305zm115.228-1.83l1.445-3.115-52.696.01-52.695.01-1.446 3.115-1.445 3.116 52.694-.01 52.695-.01 1.444-3.116zm48.123 2.237c-2.167-.412-2.768-1.182-2.304-2.954.596-2.282-.245-2.398-17.38-2.398-10.25 0-18.01.5-18.01 1.16 0 .64-.883 2.045-1.964 3.126-1.786 1.786.06 1.95 20.312 1.795 12.252-.094 20.958-.42 19.345-.728zm34.108-1.017c1.335-1.01 3.444-1.835 4.688-1.835 1.243 0 2.26-.578 2.26-1.284 0-.834-6.183-1.162-17.67-.937-17.034.335-17.71.448-18.71 3.16l-1.04 2.812 14.024-.04c10.344-.03 14.658-.52 16.448-1.875zm140 0c1.335-1.01 3.444-1.835 4.688-1.835 1.243 0 2.26-.562 2.26-1.25 0-.784-7.902-1.25-21.207-1.25-17.525 0-21.995.376-25.743 2.163-4.3 2.05-4.62 2.05-6.118 0-1.387-1.897-4.027-2.158-21.444-2.123-15.48.03-20.396.444-22.288 1.875-3.13 2.367-6.83 2.348-7.746-.04-.59-1.537-3.733-1.875-17.46-1.875h-16.742v6.25l64.687-.04c54.9-.033 65.056-.317 67.115-1.875zm20.7-1.21c0-2.907-.428-3.125-6.106-3.125-5.52 0-6.162.3-6.702 3.125-.577 3.02-.37 3.125 6.104 3.125 6.315 0 6.702-.18 6.702-3.125zm-706.25-2.01c0-.613-1.11-1.115-2.462-1.115-1.626 0-2.227.61-1.772 1.796.715 1.86 4.234 1.295 4.234-.68zm155 .76c1.298-1.565 1.123-1.875-1.06-1.875-1.81 0-2.39.577-1.893 1.875.395 1.03.87 1.875 1.057 1.875.185 0 1.038-.844 1.894-1.875zm171.25-.7c0-.646-.827-1.175-1.837-1.175-1.115 0-1.554.733-1.12 1.868.74 1.923 2.956 1.404 2.956-.692zm188.75.7c1.298-1.565 1.123-1.875-1.06-1.875-1.81 0-2.39.577-1.893 1.875.395 1.03.87 1.875 1.057 1.875.185 0 1.038-.844 1.894-1.875zm-569.606-5.752l.686-2.627 2.82 2.628c1.55 1.445 4.188 2.627 5.86 2.627 2.875 0 2.94-.155 1.175-2.812-1.476-2.225-3.205-2.873-8.276-3.102-6.07-.273-6.41-.123-6.41 2.813 0 3.806 3.18 4.17 4.145.475zm26.66-.5c.17-2.966-.16-3.123-6.537-3.123-6.71 0-6.714.003-5.292 3.125 1.182 2.592 2.297 3.125 6.537 3.124 4.57 0 5.13-.332 5.292-3.125zm-7.72.564c-1.188-1.922.44-3.162 2.043-1.557.898.898.92 1.597.066 2.124-.7.432-1.65.177-2.11-.568zm11.914 1.313c0-.687-.248-1.25-.55-1.25-.305 0-.9.563-1.325 1.25-.426.688-.178 1.25.55 1.25s1.324-.562 1.324-1.25zm25-.074c0-.727-.587-.96-1.305-.516-1.615.997-5.175-1.778-4.234-3.3.377-.61-3.285-1.11-8.138-1.11-4.854 0-8.824.517-8.824 1.15 0 .63-.342 2.036-.76 3.124-.658 1.718.814 1.977 11.25 1.977 7.62 0 12.01-.484 12.01-1.324zm30-1.8v-3.125H98.16c-10.564 0-16.05.44-15.55 1.25.424.687 1.564 1.25 2.533 1.25 1.053 0 1.473.755 1.043 1.875-.614 1.6 1.406 1.875 13.79 1.875h14.508V130zm25 0c0-3.114-.042-3.125-11.875-3.125-11.835 0-11.876.01-11.876 3.125 0 3.114.04 3.125 11.875 3.125 11.832 0 11.874-.01 11.874-3.125zm15.877 2.336c-.433-.435-.226-1.84.462-3.125 1.16-2.17.67-2.335-6.92-2.335-7.88 0-8.168.11-8.168 3.125 0 2.995.32 3.125 7.708 3.125 4.24 0 7.353-.355 6.92-.79zM190.735 130c0-3.11-.052-3.125-11.73-3.125-11.135 0-11.837.16-13.78 3.125l-2.048 3.125h27.558V130zm25 0c0-3.114-.042-3.125-11.875-3.125-11.835 0-11.876.01-11.876 3.125 0 3.114.04 3.125 11.875 3.125 11.832 0 11.874-.01 11.874-3.125zm24.062.938c-.172-.86.25-1.563.938-1.563.687 0 1.25.844 1.25 1.875 0 1.542 2.222 1.875 12.5 1.875 12.5 0 12.5 0 12.5-3.125v-3.125h-14.52c-14.043 0-14.5.085-13.85 2.573.506 1.93.152 2.465-1.416 2.14-1.15-.24-2.01-1.397-1.916-2.573.15-1.842-1.11-2.14-9.062-2.14-9.055 0-9.236.062-9.236 3.172v3.172l11.562-.36c8.435-.263 11.478-.783 11.25-1.922zm53.008-.948l1.445-3.115h-26.016V130c0 3.11.06 3.125 11.562 3.115 11.1-.01 11.62-.134 13.008-3.125zm58.807 2.346c-.433-.434-.226-1.84.462-3.125 1.2-2.244.284-2.335-23.482-2.325l-24.73.01-1.446 3.115-1.445 3.115h25.715c14.143 0 25.36-.355 24.926-.79zM386.985 130c0-3.12-.02-3.125-12.188-3.115-11.765.01-12.237.117-13.632 3.125l-1.445 3.115H386.983V130zm53.75-.018v-3.107H424.6c-15.517 0-16.107.095-15.478 2.5.387 1.483.038 2.5-.86 2.5-.832 0-1.807-1.125-2.166-2.5-.574-2.195-1.705-2.5-9.258-2.5-8.317 0-8.604.103-8.604 3.088v3.088l26.25.02 26.25.018v-3.106zm-29.375.643c-.426-.687-.178-1.25.55-1.25s1.324.563 1.324 1.25c0 .688-.248 1.25-.55 1.25-.305 0-.9-.562-1.325-1.25zM555.733 130v-3.125h-18.65c-15.368 0-19.308.38-22.403 2.155-3.555 2.04-3.882 2.04-6.136 0-3.556-3.218-39.502-3.192-45.27.033-3.728 2.083-3.992 2.083-5.553 0-1.22-1.632-3.43-2.188-8.687-2.188-6.686 0-7.05.16-7.05 3.125v3.125h113.75V130zm44.062.938c-.172-.86.25-1.563.938-1.563.687 0 1.25.844 1.25 1.875 0 1.574 2.708 1.875 16.875 1.875h16.874v-6.25h-18.896c-18.46 0-18.88.06-18.223 2.573.505 1.93.15 2.465-1.417 2.14-1.15-.24-2.01-1.397-1.916-2.573.157-1.935-1.672-2.14-19.062-2.14h-19.236V133.184l21.562-.342c16.44-.26 21.488-.713 21.25-1.904zm73.52.212c.957-1.153 2.845-1.746 4.53-1.424 1.873.358 2.888-.045 2.888-1.15 0-1.37-4.255-1.7-21.875-1.7h-21.876V133.124h17.347c14.288 0 17.637-.348 18.987-1.975zm50.47.06c1.334-1.01 3.724-1.835 5.312-1.835 1.587 0 2.886-.563 2.886-1.25 0-.75-4.967-1.25-12.4-1.25-9.452 0-13.29.512-16.153 2.155-3.555 2.04-3.882 2.04-6.136 0-1.61-1.455-4.48-2.155-8.846-2.155-6.062 0-6.464.195-6.464 3.125v3.125l19.687-.04c15.33-.03 20.226-.446 22.115-1.875zm51.722-1.523l.4-2.812H733.526l-.604 3.154-.603 3.153 21.394-.342c21.118-.336 21.4-.376 21.794-3.153zm13.976.313c0-2.917-.417-3.125-6.25-3.125-5.834 0-6.25.208-6.25 3.125s.416 3.125 6.25 3.125c5.833 0 6.25-.208 6.25-3.125zm-729.902-6.056c.067-.967.307-.928.73.12.476 1.18 7.154 1.56 27.4 1.56h26.772v-15h102.5v15h50V103.53l59.43-.865c32.69-.476 59.97-.534 60.626-.128.657.406 1.194 5.767 1.194 11.914v11.175h52.5v-26.25l43.125-.288c23.717-.16 49.733-.3 57.81-.313l14.69-.024.354 13.438.354 13.437h78.667v-18.771l70.312.323 70.313.323.366 9.063.367 9.062h12.391v-68.75l-41.563.04c-34.564.033-41.97.35-43.988 1.875-1.334 1.01-3.444 1.835-4.687 1.835-1.994 0-2.26 1.187-2.26 10.045v10.046l12.186-.358L721.36 80l.37-7.812c.325-6.802.084-7.813-1.856-7.813-1.326 0-.34-1.012 2.436-2.5 5.565-2.982 8.247-3.164 9.222-.625.395 1.03 1.643 1.905 2.773 1.94 1.13.037-.9 1.303-4.508 2.814l-6.56 2.746-.002 5.938v5.937h42.5V76.25c0-3.286-.545-4.406-2.188-4.5-1.838-.104-1.788-.26.312-.98 1.374-.47 4.108-1.658 6.074-2.64 3.196-1.593 3.74-1.555 5.137.357.86 1.176 2.338 2.138 3.283 2.138.946 0-.38 1.125-2.945 2.5-2.566 1.375-5.483 2.5-6.482 2.5-1.335 0-1.917 1.906-2.192 7.188L766.36 90l-70.313.323-70.313.323V81.26c0-6.515-.463-9.385-1.514-9.385-.833 0 .692-1.125 3.39-2.5 6.1-3.11 7.045-3.11 9.71 0 1.63 1.905 1.733 2.5.43 2.5-.94 0-2.41.844-3.266 1.875-.856 1.03-2.893 1.875-4.528 1.875-2.14 0-2.972.7-2.972 2.5 0 2.405.833 2.5 21.875 2.5h21.874v-8.02c0-5.248-.54-8.24-1.562-8.652-.995-.4-.824-.666.472-.73 1.12-.053 2.734-.942 3.59-1.973 2.036-2.453 4.498-2.37 7.996.268l2.84 2.143-4.163 2.233c-2.29 1.228-5.01 2.232-6.043 2.232-1.422 0-1.88 1.52-1.88 6.25v6.25H695.733v-23.75h-20c-19.864 0-20 .02-20.145 2.813-.11 2.116-.287 2.27-.718.625-.818-3.132-2.87-2.703-2.987.625-.09 2.55-.215 2.493-1.354-.625l-1.254-3.438h-25.52c-21.61 0-25.522.28-25.522 1.836 0 1.12.733 1.555 1.875 1.117 1.03-.396 1.878-.237 1.884.352.018 2.097-6.902 17.937-7.84 17.94-.524.003-.13-1.964.875-4.37 1.724-4.13 1.69-4.375-.61-4.375-1.34 0-2.436-.81-2.436-1.8 0-2.752 2.204-3.507 3.496-1.2 1.017 1.82 1.385 1.718 3.202-.876 2.702-3.858 2.595-4.468-.76-4.35-1.944.07-2.76-.575-2.64-2.087.163-2.04-2.434-2.188-38.48-2.188-33.43 0-39.07.272-41.727 2.013-1.69 1.106-3.92 1.687-4.956 1.29-1.525-.586-1.886.465-1.886 5.486v6.21h37.5V68.23c0-2.006-.703-3.93-1.562-4.277-.995-.4-.824-.666.472-.73 1.12-.053 2.734-.942 3.59-1.973 2.065-2.488 4.606-2.366 8.107.388l2.878 2.263-4.875 2.113c-2.682 1.162-5.435 2.112-6.117 2.112-.685 0-1.242 3.372-1.242 7.513v7.512l-57.812-.325-57.813-.325-.368-9.062c-.242-5.974-.875-9.063-1.857-9.063-.82 0 .61-1.125 3.176-2.5 5.703-3.056 7.017-3.102 9.64-.338 1.92 2.02 1.772 2.31-2.224 4.453-2.353 1.26-5.057 1.994-6.01 1.628-1.192-.457-1.732.312-1.732 2.467v3.13l12.188-.357 12.187-.358.37-7.812.373-7.813h-24.317c-24.21 0-24.315.012-23.62 2.667.504 1.93.212 2.498-1.055 2.053-.962-.337-1.673-1.538-1.577-2.667.155-1.836-2.22-2.05-22.5-2.013-17.955.03-23.18.422-25.1 1.875-1.335 1.01-3.47 1.835-4.747 1.835-2.054 0-2.278.9-1.95 7.813l.373 7.812 6.874.398c3.78.22 9.21.052 12.066-.37 5.104-.757 5.2-.864 5.632-6.304.328-4.132-.037-5.663-1.44-6.046-1.036-.282 2.055-.513 6.867-.513 4.812 0 7.765.257 6.562.572-1.203.314-2.188 1.62-2.188 2.9 0 1.518-1.5 2.868-4.32 3.888-4.146 1.5-4.334 1.84-4.687 8.52l-.368 6.955-60.402.325-60.402.324.402-11.22c.37-10.386.216-11.256-2.1-11.717-1.374-.273 1.72-.51 6.876-.523 5.156-.014 8.39.232 7.188.547-1.203.314-2.188 1.62-2.188 2.9 0 1.524-1.508 2.872-4.375 3.908-2.793 1.01-4.376 2.396-4.376 3.83 0 2.055 1.462 2.25 16.875 2.25h16.874v-20H265.11c-22.8 0-26.876.278-26.876 1.836 0 1.12.733 1.555 1.875 1.117 1.03-.396 1.878-.237 1.884.352.018 2.097-6.902 17.937-7.84 17.94-.524.003-.13-1.964.875-4.37 1.724-4.13 1.69-4.375-.61-4.375-1.34 0-2.436-.81-2.436-1.8 0-2.752 2.204-3.507 3.496-1.2 1.017 1.82 1.385 1.718 3.202-.876 2.702-3.858 2.595-4.468-.76-4.35-1.944.07-2.76-.575-2.64-2.087.162-2.035-2.233-2.188-34.277-2.188-30.168 0-35.043.272-39.204 2.188l-4.75 2.187-.034 11.563-.032 11.562h23.56l.407-9.97c.33-8.045.047-10.07-1.466-10.48-1.03-.28 2.063-.536 6.875-.567 4.812-.03 7.723.347 6.47.84-1.255.495-2.24 1.3-2.188 1.788.283 2.72-.294 3.367-4.283 4.81-4.173 1.508-4.376 1.86-4.376 7.58v6H205.733v-4.927c0-2.71.697-5.358 1.55-5.885 1.055-.652.556-1.235-1.563-1.824-1.98-.55.066-.904 5.64-.97 4.812-.06 8.187.307 7.5.812-.688.505-1.86 2.043-2.607 3.418-.746 1.375-3.136 3.038-5.313 3.696-3.85 1.164-3.956 1.393-3.956 8.438v7.24h-102.5V84.45c0-6.55.527-10.253 1.55-10.885 1.055-.652.556-1.235-1.563-1.824-1.91-.532.262-.858 5.64-.845 4.812.01 7.758.28 6.546.595-1.21.316-1.894 1.074-1.517 1.684 1.024 1.658-4.035 6.2-6.906 6.2-1.667 0-2.5.834-2.5 2.5 0 2.326.833 2.5 11.875 2.5h11.874l.02-7.81c.01-4.298.555-8.658 1.212-9.69.903-1.418.52-2.07-1.582-2.687-1.526-.447 1.163-.824 5.975-.84 4.812-.013 8.046.26 7.187.606-.86.347-1.563 1.414-1.563 2.372 0 2.365-5.78 5.998-8.115 5.102-1.54-.59-1.886.534-1.886 6.112v6.835h25V71.21c0-9.45-.445-13.334-1.578-13.77-3.31-1.27-72.864.03-70.117 1.31L86.717 60l-3.315 8.344c-1.823 4.59-3.815 8.808-4.426 9.375-1.128 1.045-.56-2.07 1.124-6.157.63-1.53.32-2.188-1.033-2.188-2.423 0-3.764-2.04-2.59-3.94.63-1.02 1.307-.866 2.332.536 1.75 2.395 3.764 1.315 5.015-2.69.655-2.098.505-2.707-.512-2.08-1.71 1.06-5.35-1.623-4.366-3.217.385-.623-6.727-1.108-16.264-1.108h-16.95v4.402c0 3.446-.657 4.702-3.032 5.784-3.636 1.658-8.91.568-9.914-2.05-1.163-3.03.49-5.635 3.573-5.635 3.335 0 5.047 3.308 2.993 5.784-1.095 1.317-1.013 1.715.353 1.715 2.8 0 4.778-2.69 4.778-6.5v-3.5h-20v68.844l17.5-.167c12.24-.115 17.53-.6 17.6-1.61zm345.47-47.694c2.166-5.608 2.217-6.875.276-6.875-2.69 0-3.934-2.415-2.15-4.17 1.123-1.11 1.88-.907 3.174.847 1.602 2.17 1.81 2.09 3.616-1.404 1.054-2.038 1.563-4.06 1.133-4.49-.43-.43-.127-.783.675-.783 1.874 0 2.018-.63-2.088 9.104-3.168 7.508-7.047 14.01-4.636 7.77zM105.39 63.473c2.22-.276 6.158-.28 8.75-.01 2.595.27.78.496-4.033.502-4.814.006-6.936-.216-4.717-.492zm101.25 0c2.22-.276 6.158-.28 8.75-.01 2.595.27.78.496-4.033.502-4.814.006-6.936-.216-4.717-.492zm420 0c2.22-.276 6.158-.28 8.75-.01 2.595.27.78.496-4.033.502-4.814.006-6.936-.216-4.717-.492zm139.404-.008c2.578-.27 6.797-.27 9.375 0 2.58.27.47.49-4.686.49-5.157 0-7.266-.22-4.688-.49zm-626.562 59.66c0-2.324-.834-2.5-11.875-2.5-11.043 0-11.876.176-11.876 2.5 0 2.325.833 2.5 11.875 2.5 11.04 0 11.874-.175 11.874-2.5zm26.25 0c0-2.333-.834-2.5-12.5-2.5-11.667 0-12.5.167-12.5 2.5 0 2.334.833 2.5 12.5 2.5 11.666 0 12.5-.166 12.5-2.5zm25 0c0-2.324-.834-2.5-11.875-2.5-11.043 0-11.876.176-11.876 2.5 0 2.325.833 2.5 11.875 2.5 11.04 0 11.874-.175 11.874-2.5zm25 0c0-2.324-.834-2.5-11.875-2.5-11.043 0-11.876.176-11.876 2.5 0 2.325.833 2.5 11.875 2.5 11.04 0 11.874-.175 11.874-2.5zm86.25-3.75v-6.25H268.233v12.5H301.983v-6.25zm24.252 4.505c-.77-2.004 3.973-5.755 7.276-5.755 1.388 0 2.222-.937 2.222-2.5 0-2.37-.834-2.5-16.25-2.5h-16.25v12.5h11.836c9.616 0 11.71-.327 11.166-1.745zm34.498-4.505v-6.25H336.983v4.75c0 2.613-.675 5.425-1.5 6.25-1.167 1.167 1.472 1.5 11.875 1.5h13.374v-6.25zm26.25.074c0-3.398-.576-6.533-1.28-6.967-.702-.435-6.327-.396-12.5.087l-11.22.878v12.178h25v-6.177zm71.8 4.26c1.336-1.01 3.726-1.835 5.314-1.835 2.63 0 2.886-.554 2.886-6.25v-6.25h-25v16.25l7.187-.04c4.33-.023 8.154-.77 9.615-1.874zm50.7.04c.856-1.03 2.893-1.875 4.528-1.875 2.733 0 2.972-.502 2.972-6.25v-6.25H493.233v3.75c0 2.063.562 3.75 1.25 3.75 2.976 0 .807 2.054-4.455 4.218-5.655 2.325-5.714 2.323-8.12-.26-3.044-3.266-3.043-3.958 0-3.958 1.334 0 2.773-.562 3.198-1.25.425-.687 2.146-1.25 3.824-1.25 2.218 0 3.05-.682 3.05-2.5 0-2.323-.832-2.5-11.767-2.5h-11.768l-.42 8.128-.42 8.128 20.16-.002c16.393-.002 20.45-.353 21.716-1.878zm46.25-6.875v-8.75h-37.5v17.5h37.5v-8.75zm125 4.375v-4.375H636.983v8.75H680.733v-4.375zm17.5 2.5c.856-1.03 2.893-1.875 4.528-1.875 2.138 0 2.972-.7 2.972-2.5 0-2.324-.834-2.5-11.875-2.5h-11.876v8.75h7.347c5.006 0 7.844-.597 8.904-1.875zm33.75-2.5v-4.375h-25v8.75h25v-4.375zm43.516-.312l.392-4.063h-42.658v8.812l20.937-.343 20.94-.343.39-4.062zm-641.287-6.23c-3.242-.256-8.867-.26-12.5-.006-3.632.254-.98.464 5.896.467 6.874.002 9.846-.205 6.603-.462zm25.583-.004c-3.61-.252-9.515-.252-13.125 0-3.608.253-.655.46 6.564.46 7.218 0 10.172-.207 6.562-.46zm25.667.004c-3.242-.256-8.867-.26-12.5-.006-3.632.254-.98.464 5.896.467 6.874.002 9.846-.205 6.603-.462zm25 0c-3.242-.256-8.867-.26-12.5-.006-3.632.254-.98.464 5.896.467 6.874.002 9.846-.205 6.603-.462zm459.27-3.765c-6.394-.227-16.52-.226-22.5.002-5.98.23-.75.415 11.626.414 12.374-.002 17.267-.19 10.873-.417zm30.73.015c-3.242-.256-8.867-.26-12.5-.006-3.632.254-.98.464 5.896.467 6.874.002 9.846-.205 6.603-.462zm25.583-.005c-3.61-.252-9.515-.252-13.125 0-3.608.253-.655.46 6.564.46 7.218 0 10.172-.207 6.562-.46zm39.375-.01c-6.014-.228-15.858-.228-21.874 0-6.015.23-1.094.418 10.938.418 12.03 0 16.953-.187 10.937-.416zm-471.928-3.748c-5.015-.237-12.89-.236-17.5.003-4.61.24-.508.435 9.117.433 9.624 0 13.396-.197 8.382-.435zm34.43.002c-4.64-.24-12.235-.24-16.876 0-4.64.24-.844.438 8.438.438 9.28 0 13.078-.197 8.437-.438zm27.54.01c-3.24-.256-8.866-.26-12.5-.006-3.63.255-.978.465 5.897.468 6.874.003 9.846-.204 6.603-.46zm25.584-.005c-3.61-.252-9.515-.252-13.125 0-3.608.253-.655.46 6.564.46 7.218 0 10.172-.207 6.562-.46zm80-3.75c-3.61-.252-9.515-.252-13.125 0-3.608.253-.655.46 6.564.46 7.218 0 10.172-.207 6.562-.46zm25.667.004c-3.242-.256-8.867-.26-12.5-.006-3.632.254-.98.464 5.896.467 6.874.003 9.846-.204 6.603-.46zm25 0c-3.242-.256-8.867-.26-12.5-.006-3.632.254-.98.464 5.896.467 6.874.003 9.846-.204 6.603-.46zm34.958-.012c-5.327-.234-14.046-.234-19.374 0-5.328.235-.97.426 9.688.426 10.656 0 15.015-.19 9.687-.426zM124.214 88.457c-3.242-.256-8.867-.26-12.5-.006-3.632.255-.98.465 5.896.468 6.874.003 9.846-.204 6.603-.46zm25 0c-3.242-.256-8.867-.26-12.5-.006-3.632.255-.98.465 5.896.468 6.874.003 9.846-.204 6.603-.46zm26.25 0c-3.242-.256-8.867-.26-12.5-.006-3.632.255-.98.465 5.896.468 6.874.003 9.846-.204 6.603-.46zm25 0c-3.242-.256-8.867-.26-12.5-.006-3.632.255-.98.465 5.896.468 6.874.003 9.846-.204 6.603-.46zm459.27-3.765c-6.394-.227-16.52-.226-22.5.002-5.98.23-.75.415 11.626.414 12.374 0 17.267-.19 10.873-.416zm30.73.015c-3.242-.256-8.867-.26-12.5-.006-3.632.255-.98.465 5.896.468 6.874.003 9.846-.204 6.603-.46zm25.583-.005c-3.61-.252-9.515-.252-13.125 0-3.608.253-.655.46 6.564.46 7.218 0 10.172-.207 6.562-.46zm39.375-.01c-6.014-.228-15.858-.228-21.874 0-6.015.23-1.094.418 10.938.418 12.03 0 16.953-.187 10.937-.417zm-471.928-3.747c-5.015-.238-12.89-.236-17.5.004-4.61.24-.508.433 9.117.43 9.624 0 13.396-.197 8.382-.435zm34.43.002c-4.64-.24-12.235-.24-16.876 0-4.64.24-.844.437 8.438.437 9.28 0 13.078-.197 8.437-.437zm27.54.01c-3.24-.257-8.866-.26-12.5-.006-3.63.254-.978.464 5.897.467 6.874.003 9.846-.204 6.603-.46zm25.584-.005c-3.61-.253-9.515-.253-13.125 0-3.608.252-.655.46 6.564.46 7.218 0 10.172-.208 6.562-.46zm80-3.75c-3.61-.253-9.515-.253-13.125 0-3.608.252-.655.46 6.564.46 7.218 0 10.172-.208 6.562-.46zm25.667.005c-3.242-.257-8.867-.26-12.5-.006-3.632.254-.98.464 5.896.467 6.874.003 9.846-.204 6.603-.46zm25 0c-3.242-.257-8.867-.26-12.5-.006-3.632.254-.98.464 5.896.467 6.874.003 9.846-.204 6.603-.46zm34.958-.012c-5.327-.234-14.046-.234-19.374 0-5.328.234-.97.426 9.688.426 10.656 0 15.015-.19 9.687-.425zm-210.936-10.32v-10H314.44c-8.277 0-12.115.537-14.366 2.01-1.69 1.108-3.92 1.688-4.956 1.29-1.568-.6-1.884.74-1.884 7.988v8.71h32.5v-10zm25 0v-10H326.983v20H350.733v-10zm130.997-2.19l.373-7.81h-7.15c-4.166 0-9.134.912-11.902 2.186-4.527 2.086-4.753 2.472-4.784 8.173l-.032 5.985 11.562-.36 11.563-.36.37-7.812zm16.19 7.206l9.064-.016v-15H483.233v8.27c0 7.968.103 8.244 2.812 7.518 1.547-.415 6.89-.762 11.875-.77zM31.246 52.5c-1.72-1.72-3.943-3.125-4.943-3.125-1.106 0-1.818 1.224-1.818 3.125 0 2.807.504 3.125 4.943 3.125h4.943L31.245 52.5zm126.29 1.21c3.13-2.367 6.83-2.348 7.747.04 1.087 2.833 126.85 2.833 129.202 0 .856-1.03 2.91-1.875 4.567-1.875s3.336.844 3.732 1.875c.565 1.472 3.107 1.875 11.835 1.875 11.024 0 11.117-.026 11.117-3.125v-3.125l-119.688.04c-103.258.034-120.02.292-122.114 1.875-3.13 2.367-6.83 2.348-7.746-.04-.576-1.5-3.256-1.867-13.4-1.836-12.018.038-12.794.2-14.923 3.125l-2.246 3.085 54.746-.04c46.157-.033 55.126-.327 57.172-1.875zm196.25 0c3.13-2.367 6.83-2.348 7.747.04 1.067 2.782 93.573 2.744 97.253-.04 3.13-2.367 6.83-2.348 7.747.04.527 1.373 2.69 1.875 8.085 1.875 7.024 0 7.367-.145 7.367-3.125v-3.125H409.44c-64.58 0-72.88.22-75.616 2.013-1.69 1.106-3.92 1.687-4.956 1.29-1.152-.443-1.884-.01-1.884 1.11 0 2.644 23.294 2.575 26.8-.078zm155.7.04c.855-1.03 2.91-1.875 4.566-1.875 1.657 0 3.336.844 3.732 1.875.627 1.634 9.228 1.875 66.922 1.875h66.204l-.4-2.812c-.396-2.79-.59-2.816-24.15-3.154-20.526-.296-24.29-.05-27.75 1.812-3.765 2.028-4.136 2.03-6.347.03-2.133-1.932-7.235-2.127-55.687-2.127h-53.34V52.5c0 3.122.01 3.125 12.348 3.125 9.45 0 12.713-.44 13.904-1.875zm149.022-4.173c-2.478-.61-3.123.476-2.134 3.592l.867 2.732 1.493-2.95c1.205-2.383 1.16-3.033-.226-3.375zm39.727 4.173c.856-1.03 2.893-1.875 4.528-1.875 1.634 0 2.972-.562 2.972-1.25 0-.776-6.875-1.25-18.125-1.25-10.322 0-18.126.5-18.126 1.16 0 .64-.884 2.045-1.965 3.126-1.786 1.787-.55 1.965 13.596 1.965 12.308 0 15.887-.392 17.118-1.875zm45.82-1.26l1.445-3.115H706.983v6.25l17.812-.01c17.76-.01 17.817-.02 19.258-3.125zm45.43.01v-3.125h-17.5c-9.936 0-17.5.502-17.5 1.16 0 .64-.884 2.046-1.965 3.126-1.786 1.787-.195 1.965 17.5 1.965h19.464V52.5zm-746.25 1.353c0-.288-.342-1.413-.76-2.5-.83-2.166-4.24-2.743-4.24-.717 0 .757-.976.65-2.443-.265-3.27-2.042-5.085-.02-2.003 2.232 2.175 1.59 9.447 2.553 9.447 1.25zm611.25-2.05c0-1.417-.563-2.228-1.25-1.803-.688.425-1.25 1.583-1.25 2.574 0 .99.562 1.8 1.25 1.8.687 0 1.25-1.157 1.25-2.572zm-607.5-1.25c0-.648-.826-1.178-1.836-1.178-1.115 0-1.554.734-1.12 1.868.74 1.923 2.956 1.404 2.956-.69zm33.75.072c1.516-.98 1.337-1.215-.938-1.23-1.547-.01-2.812.543-2.812 1.23 0 1.566 1.326 1.566 3.75 0zM28.234 45c0-1.944-.71-3.125-1.875-3.125-1.168 0-1.876 1.18-1.876 3.125s.708 3.125 1.875 3.125c1.165 0 1.874-1.18 1.874-3.125zm7.272 0c1.243-2.727 1.126-3.125-.915-3.125-2.145 0-3.856 2.264-3.856 5.103 0 2.417 3.414 1.002 4.772-1.978zm6.478 1.95c0-2.166-2.2-2.567-3.762-.686-1.285 1.55-1.1 1.86 1.11 1.86 1.458 0 2.652-.528 2.652-1.175zm4.713-.31c-.772-2.317-3.463-2.7-3.463-.494 0 1.09.89 1.98 1.98 1.98 1.087 0 1.755-.67 1.483-1.485zm31.09-.39c1.032-1.03 3.24-1.875 4.91-1.875s3.037-.562 3.037-1.25c0-.778-7.108-1.25-18.824-1.25-10.353 0-18.596.422-18.318.938.28.515.857 1.922 1.285 3.125.672 1.887 2.51 2.187 13.407 2.187 9.558 0 13.084-.455 14.503-1.875zm7.322.625c.982-1.59-1.914-1.59-4.376 0-1.525.985-1.363 1.216.863 1.23 1.507.012 3.087-.542 3.512-1.23zm243.675-.664c3.13-2.367 6.83-2.348 7.747.04.614 1.6 5.47 1.875 33.085 1.875 18.823 0 32.367-.48 32.367-1.147 0-.632.34-2.038.758-3.125.69-1.797-13.702-1.978-157.5-1.978H86.984v6.25l119.687-.04c103.26-.034 120.022-.29 122.115-1.874zm153.2.768c0-.632.34-2.038.757-3.125.68-1.774-2.833-1.978-34.174-1.978h-34.933L412.21 45l-1.423 3.125h35.6c20.783 0 35.597-.477 35.597-1.147zm-65-2.05c0-1.073.57-1.597 1.27-1.165.698.432.946 1.31.55 1.95-1.07 1.732-1.82 1.41-1.82-.786zm150 2.05c0-.632.34-2.038.757-3.125 1.18-3.07-26.425-2.89-31.97.21-3.726 2.083-3.99 2.083-5.55 0-1.424-1.9-3.928-2.188-19.113-2.188-17.427 0-17.48.01-18.9 3.125l-1.423 3.125h38.1c22.302 0 38.097-.476 38.097-1.147zm26.8-.767c1.335-1.01 3.444-1.835 4.688-1.835 1.243 0 2.26-.562 2.26-1.25 0-.74-4.516-1.25-11.05-1.25-10.572 0-11.11.135-12.472 3.125l-1.423 3.125 7.786-.04c4.855-.024 8.7-.73 10.212-1.874zm56.91-.897c.866-2.155 1.15-2.3 1.21-.625.11 3.054 2.58 2.755 2.58-.313 0-2.42-.835-2.5-26.25-2.5h-26.25v6.25h23.79c23.502 0 23.803-.034 24.92-2.812zm17.54-.313c0-2.916-.418-3.125-6.25-3.125-6.236 0-6.926.537-5.493 4.273.533 1.388 2.396 1.977 6.25 1.977 5.024 0 5.492-.266 5.492-3.125zm37.5 0v-3.125h-36.252v6.25H705.733V45zm47.5 0v-3.125h-23.126c-21.592 0-23.126.152-23.126 2.292 0 1.26.375 2.667.833 3.125.458.458 10.865.833 23.125.833h22.292V45zm36.25 0v-3.125h-35v6.25h35V45zm-758.98-7.5c1.347-2.952 1.22-3.125-2.298-3.125-3.138 0-3.723.49-3.723 3.125 0 2.2.68 3.125 2.3 3.125 1.264 0 2.94-1.406 3.722-3.125zm8.98.625c0-1.375-.428-2.5-.95-2.5-.523 0-1.652 1.125-2.51 2.5-1.368 2.19-1.25 2.5.948 2.5 1.677 0 2.51-.83 2.51-2.5zm46.25-.684v-3.183l-14.064.202c-8.91.127-14.398.722-14.98 1.62-.658 1.02-.923.98-.937-.142-.013-1.074-2.363-1.563-7.52-1.563-6.44 0-7.5.324-7.5 2.292 0 1.26.376 2.667.834 3.125.458.458 10.583.833 22.5.833h21.667V37.44zm326.25.06v-3.125h-325v6.25h325V37.5zm119.3 1.21c1.335-1.01 3.725-1.835 5.313-1.835 1.587 0 2.886-.562 2.886-1.25 0-.816-21.875-1.25-63.125-1.25h-63.126v6.25l57.812-.04c48.854-.033 58.19-.324 60.24-1.874zm45.7-1.21v-3.125h-35.96l-.597 3.125-.598 3.125h37.154V37.5zm23.75 0c0-3.1-.085-3.125-11.25-3.125-11.168 0-11.25.023-11.25 3.125s.082 3.125 11.25 3.125c11.165 0 11.25-.023 11.25-3.125zm67.5 0v-3.125h-33.126c-31.29 0-33.126.127-33.126 2.292 0 1.26.375 2.667.833 3.125.458.458 15.365.833 33.125.833h32.292V37.5zm37.5 0v-3.125h-36.252v6.25H705.733V37.5zm47.5 0v-3.125h-46.252v6.25H753.233V37.5zm36.25 0v-3.125h-35v6.25h35V37.5zM35.947 31.057c3.668-3.32 2.723-4.182-4.59-4.182-6.5 0-6.874.17-6.874 3.125 0 2.766.527 3.125 4.59 3.125 2.523 0 5.617-.93 6.874-2.068zm18.536.92c0-.63.34-2.037.758-3.124 1.125-2.932-8.026-2.744-10.268.21-2.645 3.483-2.09 4.062 3.885 4.062 3.092 0 5.624-.516 5.624-1.147zM85.734 30c0-3.11-.052-3.125-11.73-3.125-10.56 0-11.792.242-12.364 2.428-.35 1.335-.32 2.74.063 3.125.384.384 5.947.697 12.364.697 11.61 0 11.667-.015 11.667-3.125zm326.25 0v-3.125h-325v6.25h325V30zm127.274-.312l.4-2.813H413.234v6.273l62.812-.324 62.813-.324.398-2.812zm37.726.312v-3.125H540.733v6.25H576.983V30zm23.75 0c0-3.1-.084-3.125-11.25-3.125-11.167 0-11.25.023-11.25 3.125s.083 3.125 11.25 3.125c11.166 0 11.25-.023 11.25-3.125zm67.5 2.073c0-1.015-65.03-3.083-66.015-2.1-.268.268-.116 1.086.337 1.82.998 1.614 65.677 1.89 65.677.28zm29.12.125c-4.954-.236-13.39-.238-18.75-.003-5.36.235-1.308.43 9.005.43 10.31.003 14.696-.19 9.743-.426zM789.483 30v-3.125h-35v6.25h35V30zm-85.313-2.736c-1.202-.315-3.17-.315-4.374 0-1.203.314-.22.57 2.188.57 2.406 0 3.39-.256 2.187-.57zm38.19-.07c-6.322-.225-17.01-.226-23.75 0-6.738.224-1.564.41 11.5.41 13.06.002 18.575-.183 12.25-.41zm-699.376-3.07c1.787-1.786 2.02-8.5.294-8.5-1.628 0-3.794 4.237-3.794 7.42 0 2.908 1.278 3.303 3.5 1.08zm496.26-4.436l.383-5.313H413.235v11.273l62.812-.324L538.86 25l.383-5.312zm89.248 5.008c-5.015-.238-12.89-.236-17.5.004-4.61.24-.508.434 9.117.432 9.624-.002 13.396-.198 8.382-.436zM575.09 20.73c2.282-.89-28.857-.47-33.106.45-1.032.223 5.437.43 14.375.462 8.936.032 17.365-.38 18.73-.91zm-6.487-6.032c-4.953-.237-13.39-.238-18.75-.003-5.36.235-1.307.43 9.006.43 10.31.002 14.696-.19 9.743-.427z" fill="#020b1d" fill-opacity=".078"/></svg>