<svg xmlns="http://www.w3.org/2000/svg" width="764.089" height="228.64" viewBox="0 0 764.089 228.64"><path d="M576.802 206.87c0-8.248-.468-11.96-1.562-12.402-1.25-.504-1.25-.65 0-.73.86-.053 1.562-1.457 1.562-3.118 0-1.662-.703-3.305-1.562-3.652-1.25-.504-1.25-.65 0-.73.86-.053 1.562-1.457 1.562-3.118 0-1.662-.703-3.305-1.562-3.652-1.25-.504-1.25-.65 0-.73.86-.053 1.562-1.504 1.562-3.223v-3.125h-150v3.02c0 1.663.703 3.306 1.563 3.652 1.25.505 1.25.65 0 .73-.86.054-1.563 1.458-1.563 3.12 0 1.66.703 3.304 1.563 3.65 1.25.505 1.25.65 0 .73-1.873.118-2.13 6.348-.264 6.348.878 0 .864.51-.04 1.563-.74.86-2.027 2.49-2.863 3.624-1.985 2.692-6.034 3.813-8.395 2.323-1.526-.963-1.592-1.64-.353-3.64 1.323-2.136 1.16-2.526-1.25-2.993-1.525-.295.18-.613 3.79-.706 6.083-.157 6.562-.393 6.562-3.23 0-2.8-.558-3.098-6.562-3.518l-6.563-.46 6.563-.23c6.066-.214 6.562-.463 6.562-3.29 0-2.8-.558-3.1-6.562-3.52l-6.563-.46 6.563-.23c6.12-.216 6.562-.444 6.562-3.385 0-3.027-.12-3.076-2.95-1.222-2.89 1.894-7.05 1.447-7.05-.758 0-.643-31.823-1.117-75-1.117h-75v3.02c0 1.663.703 3.306 1.563 3.652 1.25.505 1.25.65 0 .73-.86.054-1.563 1.458-1.563 3.12 0 1.66.703 3.304 1.563 3.65 1.25.505 1.25.65 0 .73-1.873.118-2.13 6.348-.264 6.348.768 0 .64.806-.31 1.965-5.86 7.143-7.326 7.883-10.988 5.554-1.526-.97-1.592-1.65-.353-3.65 1.323-2.136 1.16-2.526-1.25-2.993-1.525-.295.18-.613 3.79-.706 6.12-.158 6.562-.38 6.562-3.295 0-2.91-.448-3.138-6.562-3.32l-6.563-.197 6.25-.742c5.206-.617 6.315-1.2 6.64-3.485.354-2.483-.238-2.787-6.25-3.205l-6.64-.462 6.563-.23c5.767-.205 6.562-.552 6.562-2.866 0-2.635-.093-2.64-5.776-.3-.77.317-2.278-.3-3.348-1.37-1.72-1.72-10.666-1.947-76.412-1.947h-74.464v3.02c0 1.663.703 3.306 1.563 3.652 1.25.505 1.25.65 0 .73-2.035.128-2.035 5.95 0 6.77 1.25.505 1.25.65 0 .73-1.9.12-2.118 6.348-.224 6.348.738 0 .457.884-.624 1.965-1.08 1.08-1.964 2.468-1.964 3.085 0 .616-1.51 1.91-3.355 2.878-3.155 1.654-3.204 1.806-.814 2.564 2.704.858 5.42 5.6 5.42 9.463 0 1.285.702 2.583 1.562 2.884.86.3-4.767.525-12.503.5l-14.064-.05 2.285-2.582c2.736-3.093 2.308-7.96-.495-5.633-1.373 1.14-1.925 1.017-2.53-.56-1.155-3.01.295-5.656 3.837-7.003 4.304-1.636 9.407.396 9.407 3.747 0 3.03-3.31 4.68-5.334 2.656-1.054-1.054-.847-1.416.813-1.416 2.742 0 1.99-2.97-.894-3.53-2.36-.457-2.983 4.077-.75 5.458.736.454 1.007 1.683.605 2.732-.754 1.967 1.276 5.34 3.215 5.34.604 0 1.097-1.424 1.097-3.164 0-3.57 3.16-5.432 5.397-3.178 1.14 1.15.978 1.3-.71.658-1.31-.5-2.188-.248-2.188.624 0 .802.623 1.073 1.384.603.93-.576 1.108.013.54 1.8-1.348 4.252.11 3.075 2.714-2.192l2.4-4.85-3.81-3.292c-3.273-2.83-3.597-3.63-2.308-5.694 1.294-2.07 1.12-2.474-1.273-2.937-1.525-.295.18-.613 3.79-.706 6.083-.157 6.562-.393 6.562-3.23 0-2.8-.558-3.098-6.562-3.518l-6.563-.46 6.563-.23c6.066-.214 6.562-.463 6.562-3.29 0-2.8-.558-3.1-6.562-3.52l-6.563-.46 6.563-.23c6.12-.216 6.562-.444 6.562-3.385 0-3.027-.12-3.076-2.95-1.222-2.89 1.894-7.05 1.447-7.05-.758 0-.63-15.295-1.117-35-1.117h-35V39.89h7.5c6.706 0 7.5-.268 7.5-2.54 0-3.528 3.353-11.21 4.892-11.21 1.95 0 4.1 4.842 4.234 9.533.116 4.08.285 4.217 5.184 4.198 3.083-.01 4.44-.415 3.465-1.033-1.287-.817-1.25-1.693.197-4.48 1.53-2.95 1.88-3.122 2.347-1.153.48 2.01.714 1.912 1.796-.742l1.244-3.053.82 3.265c.45 1.797.48 4.155.062 5.24-.68 1.77 2.763 1.975 33.126 1.975h33.884v-8.75h108.75v8.75h52.5v-8.75h110v8.75h52.5v-15h108.75v15h30.062c24.757 0 30.726-.343 33.823-1.944 7.862-4.066 22.912-6.964 39.865-7.678 19.935-.84 35.09.886 48.608 5.53 7.328 2.52 12.967 3.438 24.517 3.995l15 .722.324 64.92c.256 51.106-.01 65.13-1.25 65.918-.865.55-19.432 1.008-41.26 1.018l-39.688.02v37.14l-10.312.85c-5.672.468-26.02 2.518-45.22 4.555-19.2 2.038-35.934 3.705-37.188 3.705-2.045 0-2.28-1.212-2.28-11.77zm-475.34 3.333c-.498-2.083-.568-2.083-1.475 0-.524 1.203-.524 3.172 0 4.375.907 2.083.977 2.083 1.475 0 .288-1.203.288-3.172 0-4.375zm503.465 1.532c25.535-2.505 53.487-5.43 60.313-6.312l5.312-.686V172.39h-41.058c-34.77 0-41.66.3-44.984 1.96-2.16 1.076-4.496 1.606-5.192 1.175-.696-.43-1.266.095-1.266 1.167 0 1.488 1.55 2.003 6.563 2.18l6.562.23-6.562.46c-6.005.42-6.563.72-6.563 3.52 0 2.827.496 3.076 6.563 3.29l6.562.23-6.562.46c-6.005.42-6.563.72-6.563 3.52 0 2.844.46 3.065 6.563 3.157 3.61.053 5.86.38 5 .728-.86.347-1.563 1.415-1.563 2.373 0 2.365-5.78 5.998-8.115 5.102-1.537-.59-1.885.53-1.885 6.08 0 6.728.04 6.8 3.438 6.24 1.89-.31 12.437-1.448 23.437-2.527zm-522.964-7.157c1.36-2.55 1.305-2.653-.58-1.097-1.145.944-2.08 2.21-2.08 2.813 0 1.91 1.11 1.194 2.66-1.715zM95 169.305c1.335-1.01 3.693-1.853 5.24-1.875 1.674-.023 2.812-.814 2.812-1.953 0-1.68-4.14-1.865-34.062-1.515-18.735.22-35.416.888-37.07 1.486-2.177.786-2.76.686-2.114-.36.588-.953-.2-1.448-2.305-1.448-2.72 0-3.198.56-3.198 3.75v3.75h34.136c28.08 0 34.567-.325 36.563-1.835zm161.25 0c1.335-1.01 3.693-1.853 5.24-1.875 1.65-.023 2.812-.815 2.812-1.915 0-1.647-9.722-1.875-80-1.875h-80v7.5h74.76c63.8 0 75.118-.27 77.19-1.835zm161.25 0c1.335-1.01 3.693-1.853 5.24-1.875 1.65-.023 2.812-.815 2.812-1.915 0-1.647-9.722-1.875-80-1.875h-80v7.5h74.76c63.8 0 75.118-.27 77.19-1.835zm162.354-.08c3.13-2.367 6.83-2.348 7.746.04.62 1.614 6.44 1.875 41.836 1.875h41.116v-7.5h-243.75v7.5l75.313-.04c64.24-.033 75.67-.31 77.74-1.874zm171.948-1.835v-3.75h-80v7.5h80v-3.75zm-716.036-7.068c3.67-3.32 2.724-4.182-4.59-4.182-6.5 0-6.874.17-6.874 3.125 0 2.766.528 3.125 4.59 3.125 2.523 0 5.617-.93 6.874-2.068zm34.786 1.36c0-.388-.588-1.806-1.308-3.15-1.016-1.9-2.41-2.368-6.248-2.105-2.717.186-4.94.873-4.942 1.526 0 .653-.677.512-1.502-.313s-4.135-1.5-7.356-1.5c-4.867 0-6.202.528-7.904 3.125l-2.047 3.125h15.653c8.61 0 15.654-.318 15.654-.707zm32.5-2.367v-3.175h-15c-13.712 0-15 .197-15 2.292 0 1.26.315 2.607.7 2.99.385.386 7.135.784 15 .884l14.3.183v-3.175zm161.25-.05v-3.125l-39.687.04c-32.916.033-40.102.353-42.114 1.875-3.14 2.375-7.73 2.354-8.65-.04-.615-1.604-5.696-1.875-35.134-1.875h-34.414v6.25h160v-3.125zm161.25 0v-3.125l-39.687.04c-32.916.033-40.102.353-42.114 1.875-3.14 2.375-7.73 2.354-8.65-.04-.615-1.604-5.696-1.875-35.134-1.875h-34.414v6.25h160v-3.125zm245 0v-3.125l-81.562.04c-69.737.034-81.915.306-83.99 1.875-3.14 2.375-7.73 2.354-8.65-.04-.615-1.604-5.696-1.875-35.134-1.875h-34.414v6.25h243.75v-3.125zm81.25 0v-3.125h-80v6.25h80v-3.125zm-711.475-7.812c.3-2.117-.223-2.813-2.114-2.813-1.382 0-2.86.563-3.286 1.25-.425.688-1.864 1.25-3.2 1.25-1.333 0-2.425-.562-2.425-1.25 0-.687-1.125-1.25-2.5-1.25-1.846 0-2.5.834-2.5 3.185 0 3.113.176 3.176 7.813 2.813 7.017-.335 7.853-.66 8.212-3.185zm14.85 1.072c.813-1.3 1.136-2.707.718-3.125-1.217-1.217-10.343-.875-10.343.388 0 .63-.34 2.038-.76 3.125-1.19 3.104 8.43 2.745 10.386-.388zm-7.125-.135c0-.687.563-1.25 1.25-1.25.688 0 1.25.563 1.25 1.25 0 .688-.562 1.25-1.25 1.25-.687 0-1.25-.562-1.25-1.25zm21.76-.625l2.048-3.125h-4.716c-4.198 0-4.717.344-4.717 3.125 0 2.358.656 3.125 2.67 3.125 1.467 0 3.59-1.406 4.715-3.125zm33.24 0v-3.125H90.4c-10.75 0-12.434.266-11.19 1.764 1.12 1.35 1.112 1.98-.037 2.69-.844.523-2.147.044-2.98-1.094-1.125-1.54-1.826-1.675-2.934-.566-.802.8-1.458 1.906-1.458 2.456s7.03 1 15.625 1h15.625v-3.125zm73.125 1.875c.425-.687 2.146-1.25 3.824-1.25 1.88 0 3.052-.72 3.052-1.875 0-1.627-5.208-1.875-39.375-1.875h-39.375v6.25h35.55c22.354 0 35.84-.464 36.325-1.25zm88.125-1.875v-3.125h-80v6.25h80v-3.125zm73.125 1.875c.425-.687 2.427-1.25 4.45-1.25 2.433 0 3.675-.633 3.675-1.875 0-1.627-5.278-1.875-40-1.875h-40v6.25h35.55c22.354 0 35.84-.464 36.325-1.25zm88.125-1.875v-3.125h-78.75v6.25h78.75v-3.125zm73.125 1.875c.425-.687 2.427-1.25 4.45-1.25 2.433 0 3.675-.633 3.675-1.875 0-1.627-5.278-1.875-40-1.875h-40v6.25h35.55c22.354 0 35.84-.464 36.325-1.25zm171.875-1.875v-3.125H508.344l-.598 3.125-.597 3.125H670.55v-3.125zm81.25 0v-3.125h-80v6.25h80v-3.125zm-721.99-7.5c2.03-3.095 2.012-3.125-1.73-3.125-3.198 0-3.78.48-3.78 3.125 0 1.83.718 3.125 1.73 3.125.954 0 2.654-1.406 3.78-3.125zm10.74 2.125c0-1.72-2.906-4-5.097-4-1.153 0-2.87.952-3.812 2.115-.978 1.205-1.08 1.734-.24 1.23.812-.487 1.83-.314 2.262.385.924 1.495 6.887 1.73 6.887.27zm14.51-1.187c2.768-3.646 2.073-4.064-6.697-4.025-6.342.03-7.895.355-6.25 1.312 1.203.7 2.187 2.09 2.187 3.087 0 2.705 8.652 2.403 10.76-.374zm-7.01-.313c0-.687.563-1.25 1.25-1.25.688 0 1.25.563 1.25 1.25 0 .688-.562 1.25-1.25 1.25-.687 0-1.25-.562-1.25-1.25zm55-.625v-3.125H82.74l-20.313.002-.18 3.124-.18 3.124h40.984v-3.125zm72.07-.01l1.445-3.115h-72.265v6.25l34.688-.01 34.687-.01 1.445-3.115zm89.18.01v-3.125h-80v6.25h80v-3.125zm72.07-.01l1.445-3.115h-72.265v6.25l34.688-.01 34.687-.01 1.445-3.115zm89.18.01v-3.125h-78.75v6.25h78.75v-3.125zm72.07-.01l1.445-3.115h-72.265v6.25l34.688-.01 34.687-.01 1.445-3.115zm172.93.01v-3.125h-162.5v6.25h162.5v-3.125zm81.25 0v-3.125l-34.687.01-34.688.01-1.445 3.116-1.445 3.115h72.265v-3.124zM59.927 142.39c.425-.687.177-1.25-.55-1.25-.73 0-1.325.563-1.325 1.25 0 .688.248 1.25.55 1.25.305 0 .9-.562 1.325-1.25zm43.125-9.783v-7.252l16.563-2.088c9.11-1.15 26.125-3.234 37.812-4.635 11.688-1.4 22.516-2.826 24.063-3.168 2.77-.612 2.812-.436 2.812 11.903v12.523h80v-14.546l29.063-3.485c15.984-1.917 34.26-4.182 40.61-5.033 6.353-.85 11.838-1.26 12.19-.908.35.35.637 5.887.637 12.304v11.666h78.75v-14.546l29.063-3.485c15.984-1.917 34.24-4.18 40.568-5.027 13.586-1.82 12.87-2.518 12.87 12.535v10.522h162.5v-2.99c0-1.646-.845-3.316-1.876-3.712-1.03-.395-1.875-2.09-1.875-3.766 0-2.432-.505-2.916-2.5-2.394-2.333.61-2.487.08-2.313-7.93.102-4.72.415-7.097.694-5.28.393 2.555 1.058 3.158 2.938 2.666 2.076-.543 2.43.024 2.43 3.886 0 4.884 1.84 6.073 3.126 2.02 1.02-3.216 5.032-5.356 8.17-4.36 2.76.876 3.255 3.718.904 5.17-1.055.653-.556 1.235 1.563 1.825 2.253.627 1.3.9-3.45.99-6.134.117-6.563.33-6.563 3.25 0 2.934.4 3.127 6.563 3.144 3.61.01 5.95.432 5.203.937-.748.505-1.68 2.184-2.07 3.73l-.712 2.813h71.016V71.14h-25v22.5h-116.25l-.124-10.937c-.085-7.397-.45-9.926-1.126-7.813l-1 3.125-.125-2.946c-.088-2.08-.676-2.736-2-2.228-1.03.396-1.875.175-1.875-.49 0-.734-8.304-1.212-21.05-1.212h-21.05l-1.407 3.09c-1.6 3.515-7.18 5.473-9.366 3.288-1.087-1.087-1.062-2.046.102-3.91 1.525-2.442 1.02-2.468-47.875-2.468H454.24l-1.123 2.955c-1.19 3.128-3.63 4.545-7.823 4.545-2.17 0-2.442-.562-1.804-3.75l.75-3.75h-44.015l.697 4.292c.866 5.337-3.44 10.708-8.58 10.708-2.88 0-3.25-.424-2.734-3.125.4-2.095.037-3.125-1.104-3.125-1.874 0-2.34-2.046-.617-2.708.597-.23 1.478-1.682 1.96-3.23.847-2.727.617-2.81-7.648-2.804-8.155.007-8.615.17-10.652 3.75-1.5 2.638-3.08 3.742-5.352 3.742-3.732 0-5.367-2.945-3.13-5.64 1.355-1.634-1.166-1.86-20.798-1.852l-22.34.008-2.13 3.742c-1.5 2.638-3.08 3.742-5.352 3.742-3.765 0-5.362-2.952-3.082-5.7 1.41-1.7.538-1.875-7.66-1.546-7.896.317-9.316.716-9.7 2.722-.246 1.292.31 2.882 1.238 3.532 1.313.922 1.34 1.323.123 1.817-.86.348-1.563 1.41-1.563 2.36 0 2.11-3.867 4.315-7.563 4.315-2.214 0-2.62-.572-2.15-3.03.433-2.265-.082-3.243-2.042-3.88-2.292-.747-2.346-.928-.433-1.44 1.203-.32 2.187-1.058 2.187-1.64 0-.58.347-1.958.77-3.062.692-1.803-1.487-1.972-21.546-1.664-20.7.317-22.35.512-22.768 2.692-.25 1.292.307 2.882 1.234 3.532 1.313.922 1.34 1.323.123 1.817-.86.348-1.563 1.41-1.563 2.36 0 2.11-3.867 4.315-7.563 4.315-2.214 0-2.62-.572-2.15-3.03.433-2.265-.082-3.243-2.042-3.88-2.292-.747-2.346-.928-.433-1.44 1.203-.32 2.187-1.058 2.187-1.64 0-.58.342-1.945.76-3.032.646-1.685-.51-1.976-7.814-1.97-8.208.008-8.66.167-10.7 3.75-1.5 2.638-3.08 3.742-5.352 3.742-3.732 0-5.367-2.945-3.13-5.64 1.355-1.634-1.166-1.86-20.798-1.852l-22.34.008-2.13 3.742c-1.5 2.638-3.08 3.743-5.352 3.743-3.765 0-5.362-2.952-3.082-5.7 1.41-1.7.538-1.875-7.66-1.546-7.896.317-9.316.716-9.7 2.722-.246 1.292.31 2.882 1.238 3.532 1.313.922 1.34 1.323.123 1.817-.86.35-1.563 1.41-1.563 2.36 0 2.11-3.867 4.316-7.563 4.316-2.214 0-2.62-.572-2.15-3.03.433-2.265-.082-3.243-2.042-3.88-1.938-.632-2.132-.992-.746-1.383 1.03-.29 2.525-1.92 3.32-3.618l1.445-3.09H46.802l-.02 3.438c-.024 4.442-1.16 6.122-5.166 7.646-2.464.936-3.926.773-5.983-.668-3.778-2.646-3.033-7.29 1.17-7.29 2.587 0 3.116.59 3.075 3.437-.027 1.89.607 3.438 1.41 3.438 2.6 0 4.573-3.6 3.755-6.858-.76-3.027-1.152-3.14-10.765-3.14h-9.976V139.845l39.375.007 39.375.007v-7.253zm-2.897-18.53c-.448-.448-.05-1.433.882-2.188.932-.757 2.29-3.17 3.015-5.363 1.09-3.302 1.01-3.87-.466-3.304-1.68.645-2.32 2.194-1.893 4.597.103.58-.533.81-1.414.51-.882-.3-1.492-1.9-1.357-3.556.233-2.84.167-2.816-1.178.43-1.434 3.457-3.443 4.644-3.443 2.033 0-1.024-.466-1.016-1.724.028-1.38 1.146-1.856.74-2.39-2.034-.936-4.88.94-6.577 6.397-5.783 4.512.656 9.653.696 14.592.113 1.77-.21 2.618.547 2.908 2.587.5 3.512-1.767 6.493-4.936 6.493-2.24 0-2.888 1.245-2.44 4.688.208 1.607-5.09 2.212-6.555.748zm11.647-11.926c0-1.788-2.207-1.075-2.99.968-1.368 3.56-.72 4.948 1.155 2.47 1.01-1.334 1.835-2.88 1.835-3.437zm44.06.174c-7.74-1.372-20.23-5.602-22.112-7.488-.727-.73.675-.492 3.117.527 19.874 8.297 66.487 7.795 85.526-.92 7.935-3.634 8.925-3.49 2.413.353-9.5 5.606-21.053 7.866-42.38 8.293-11 .22-22.953-.125-26.565-.766zm161.25-.07c-7.605-1.267-20.185-5.488-22.112-7.418-.727-.73.675-.492 3.117.527 19.97 8.337 66.246 7.797 85.84-1 5.88-2.642 6.64-2.783 4.095-.76-3.742 2.972-11.326 5.64-23.15 8.146-9.602 2.033-36.886 2.32-47.79.504zm160.94-7.9c-10.587-1.96-17.04-4.165-22.812-7.796-6.826-4.294-5.735-4.494 1.914-.35 8.953 4.848 24.8 7.443 45.124 7.39 19.814-.054 33.78-2.36 43.51-7.18 3.996-1.98 7.264-3.423 7.264-3.205 0 .88-9.66 6.36-13.75 7.798-13.88 4.885-44.044 6.532-61.25 3.345zm-303.11 42.724c.764-1.738 2.548-2.964 4.673-3.208 3.28-.378 3.437-.708 3.437-7.188 0-3.735-.422-6.786-.937-6.78-.516.007-16.688 1.973-35.938 4.37-19.25 2.395-36.547 4.358-38.437 4.362-3.24.006-3.438.33-3.438 5.63v5.626H173.71l1.233-2.812zm161.25 0c.848-1.93 2.51-2.936 5.298-3.204 4.05-.39 4.062-.414 4.062-7.348v-6.955l-4.687.71c-2.578.388-19.875 2.488-38.438 4.664-18.562 2.177-34.453 4.162-35.312 4.413-.917.267-1.563 2.54-1.563 5.494v5.04H334.96l1.233-2.812zm161.25 0c.848-1.93 2.51-2.936 5.298-3.204 4.05-.39 4.062-.414 4.062-7.348v-6.955l-4.687.71c-2.578.388-19.875 2.488-38.438 4.664-18.562 2.177-34.453 4.162-35.312 4.413-.917.267-1.563 2.54-1.563 5.494v5.04H496.21l1.233-2.812zm173.11-7.813c0-1.718-.562-3.125-1.25-3.125-.687 0-1.25 1.407-1.25 3.125 0 1.72.563 3.125 1.25 3.125.688 0 1.25-1.406 1.25-3.125zm-3.75-8.22c0-1.554-.622-2.087-1.875-1.607-1.03.396-1.875 1.767-1.875 3.047 0 1.555.622 2.088 1.875 1.607 1.03-.395 1.875-1.766 1.875-3.046zM632.16 88.97c-3.584-.25-9.77-.254-13.75-.005-3.978.25-1.045.455 6.517.458 7.563.003 10.818-.2 7.233-.452zm31.257-.004c-4.27-.243-11.58-.245-16.25-.004-4.67.242-1.177.44 7.76.443 8.938.002 12.758-.195 8.49-.44zm29.323 0c-3.953-.247-10.422-.247-14.375 0-3.953.25-.72.452 7.187.452 7.906 0 11.14-.203 7.188-.45zm26.875.003c-3.61-.254-9.516-.254-13.125 0-3.61.25-.657.458 6.562.458 7.22 0 10.172-.207 6.563-.46zm-81.563-11.58v-6.25h-26.25v12.5h26.25v-6.25zm32.5 0v-6.25h-31.25v12.5h31.25v-6.25zm28.75 0v-6.25h-27.5v12.5h27.5v-6.25zm26.25 0v-6.25h-25v12.5h25v-6.25zM31.622 66.787c-3.91-4.12-7.32-4.13-7.32-.022 0 2.826.49 3.125 5.13 3.125h5.133l-2.944-3.103zm11.71 2.406c1.498-1.497-.693-5.553-3-5.553-1.335 0-2.08.563-1.655 1.25.425.688.21 1.25-.477 1.25-.688 0-1.598-.562-2.023-1.25-1.178-1.907-4.39-1.495-3.638.467 1.136 2.96 8.906 5.723 10.793 3.836zm53.243-2.428L98 63.64H74.73c-23.212 0-23.273.007-26.162 3.125l-2.896 3.125h49.48l1.423-3.125zm32.727 0V63.64h-14.8c-14.572 0-14.82.048-16.222 3.125l-1.424 3.125H129.3v-3.125zm27.5.734c0-2.153-.385-2.247-3.85-.94-3.29 1.242-4.086 1.135-5.45-.732-1.224-1.672-3.41-2.188-9.275-2.188-7.353 0-7.675.13-7.675 3.125v3.125h13.125c12.093 0 13.125-.188 13.125-2.39zm53.75 0c0-2.153-.385-2.247-3.85-.94-3.29 1.242-4.086 1.135-5.45-.732-2.066-2.824-15.128-3.013-18.75-.273-3.194 2.415-8.2 2.39-8.2-.04 0-1.474-1.736-1.875-8.125-1.875-7.833 0-8.125.113-8.125 3.125v3.125h26.25c25.02 0 26.25-.112 26.25-2.39zm26.25-.735c0-3.125 0-3.125-12.5-3.125s-12.5 0-12.5 3.125 0 3.125 12.5 3.125 12.5 0 12.5-3.125zm21.023 0l1.424-3.125h-10.6c-10.47 0-10.598.038-10.598 3.125 0 3.05.222 3.125 9.175 3.125 8.573 0 9.267-.204 10.598-3.125zm32.727 0V63.64h-14.8c-14.572 0-14.82.048-16.222 3.125l-1.424 3.125h32.445v-3.125zm27.5.734c0-2.153-.385-2.247-3.85-.94-3.29 1.242-4.086 1.135-5.45-.732-1.224-1.672-3.41-2.188-9.275-2.188-7.353 0-7.675.13-7.675 3.125v3.125h13.125c12.093 0 13.125-.188 13.125-2.39zm53.75 0c0-2.153-.385-2.247-3.85-.94-3.29 1.242-4.086 1.135-5.45-.732-2.077-2.84-15.286-3.085-18.898-.352-3.212 2.43-8.052 2.453-8.052.04 0-1.475-1.736-1.876-8.125-1.876-7.833 0-8.125.112-8.125 3.125v3.125h26.25c25.02 0 26.25-.112 26.25-2.39zm27.5-.735V63.64h-26.25v6.25h26.25v-3.125zm19.773 0l1.424-3.125h-9.975c-9.804 0-9.973.053-9.973 3.125 0 3.03.264 3.125 8.55 3.125 7.906 0 8.656-.235 9.973-3.125zm33.977.625c0-2.636-1.818-3.363-3.125-1.25-1.243 2.01-6.875 1.5-6.875-.625 0-1.516-1.99-1.875-10.424-1.875-9.906 0-10.495.156-11.848 3.125l-1.424 3.125h16.848c16.015 0 16.848-.123 16.848-2.5zm107.5.11c0-2.153-.385-2.247-3.85-.94-3.29 1.242-4.086 1.135-5.45-.732-2.082-2.846-16.342-3.04-20-.273-3.13 2.368-6.83 2.35-7.748-.04-1.048-2.73-42.388-2.695-46.003.04-3.13 2.368-6.83 2.35-7.746-.04-.527-1.373-2.69-1.875-8.086-1.875-7.024 0-7.366.146-7.366 3.125v3.125h53.125c51.488 0 53.125-.073 53.125-2.39zm20.134-1.047c1.02-2.768.878-2.813-8.924-2.813-9.836 0-9.96.04-9.96 3.18 0 3.144.1 3.176 8.924 2.813 7.945-.327 9.037-.676 9.96-3.18zm23.616.312c0-3.085-.134-3.125-10.49-3.125-10.465 0-12.01.657-12.01 5.103 0 .63 5.063 1.147 11.25 1.147 11.167 0 11.25-.023 11.25-3.125zm3.75.625c0-1.375-.562-2.5-1.25-2.5-.687 0-1.25 1.125-1.25 2.5s.563 2.5 1.25 2.5c.688 0 1.25-1.125 1.25-2.5zm2.116-2.163c-.316-1.217-.597-.524-.622 1.538-.026 2.063.234 3.058.576 2.212.343-.847.363-2.534.047-3.75zm27.884 1.538c0-3.024-.27-3.125-8.437-3.125s-8.438.1-8.438 3.125.27 3.125 8.438 3.125c8.166 0 8.437-.1 8.437-3.125zm32.5 0V63.64h-31.25v6.25h31.25v-3.125zm28.75 0V63.64h-27.5v6.25h27.5v-3.125zm26.25 0c0-3.125 0-3.125-12.5-3.125s-12.5 0-12.5 3.125 0 3.125 12.5 3.125 12.5 0 12.5-3.125zm26.25 0c0-3.015-.287-3.125-8.2-3.125-5.376 0-7.92.45-7.39 1.305.443.718.126 2.124-.705 3.125-1.3 1.565-.26 1.82 7.392 1.82 8.662 0 8.902-.084 8.902-3.125zm-704.548-1.25c.44-1.142.002-1.875-1.116-1.875-1.01 0-1.836.844-1.836 1.875 0 1.032.503 1.875 1.116 1.875.614 0 1.44-.843 1.836-1.875zm-18.896-6.25c.464-2.428.08-3.125-1.73-3.125-1.648 0-2.326.91-2.326 3.125 0 1.828.718 3.125 1.73 3.125.95 0 1.998-1.406 2.326-3.125zm8.014-.01c1.253-2.7 1.146-3.115-.804-3.115-2.068 0-3.766 2.3-3.766 5.102 0 2.386 3.184 1 4.57-1.987zm5.43 1.3c0-1.12-.733-1.555-1.875-1.117-1.03.396-1.875 1.222-1.875 1.836 0 .614.844 1.116 1.875 1.116 1.03 0 1.875-.826 1.875-1.836zm4.714.35c-.773-2.317-3.464-2.702-3.464-.494 0 1.09.89 1.98 1.98 1.98 1.088 0 1.756-.668 1.484-1.484zm24.036.778c0-.39-.582-1.795-1.294-3.125-1.11-2.076-2.685-2.418-11.132-2.418h-9.84l1.446 3.115c1.358 2.927 2.032 3.116 11.133 3.125 5.328.005 9.687-.308 9.687-.697zm26.343-.355c-3.423-.995-5.048-3.938-2.176-3.938 1.03 0 2.095.662 2.364 1.47.27.81 1.16 1.06 1.98.553 3.88-2.398.447-3.273-12.848-3.273-13.127 0-14.267.184-13.528 2.188 1.276 3.46 2.414 3.745 15.185 3.816 6.63.037 10.69-.33 9.022-.816zm32.407-2.063V56.14h-13.75c-7.562 0-13.75.517-13.75 1.148 0 .63-.34 2.037-.76 3.125-.664 1.733 1.035 1.977 13.75 1.977h14.51v-3.125zm21.042 1.166c2.16-1.076 4.496-1.605 5.192-1.175.697.43 1.266-.094 1.266-1.166 0-1.642-2.07-1.95-13.125-1.95h-13.125v3.125c0 3.005.305 3.125 7.933 3.125 4.698 0 9.534-.8 11.86-1.96zm25.208.71c1.25-.808 1.354-1.218.313-1.23-.86-.01-1.563-.864-1.563-1.895 0-1.474-1.736-1.875-8.125-1.875-7.833 0-8.125.112-8.125 3.125 0 3.002.308 3.124 7.813 3.106 4.297-.01 8.656-.563 9.687-1.23zm28.542-.71c2.16-1.076 4.496-1.605 5.192-1.175.697.43 1.266-.094 1.266-1.166 0-1.642-2.07-1.95-13.125-1.95h-13.125v3.125c0 3.005.305 3.125 7.933 3.125 4.698 0 9.534-.8 11.86-1.96zm32.708-1.165c0-3.125 0-3.125-12.5-3.125s-12.5 0-12.5 3.125 0 3.125 12.5 3.125 12.5 0 12.5-3.125zm21.343 2.028c-3.415-.954-5.06-3.903-2.176-3.903 1.03 0 2.095.662 2.364 1.47.27.81 1.16 1.06 1.98.553 3.717-2.298.624-3.273-10.387-3.273-11.833 0-11.875.01-11.875 3.125 0 3.117.03 3.125 11.563 3 6.42-.07 10.213-.5 8.53-.972zm32.407-2.028V56.14h-13.75c-7.562 0-13.75.517-13.75 1.148 0 .63-.34 2.037-.76 3.125-.664 1.733 1.035 1.977 13.75 1.977h14.51v-3.125zm21.042 1.166c2.16-1.076 4.496-1.605 5.192-1.175.697.43 1.266-.094 1.266-1.166 0-1.642-2.07-1.95-13.125-1.95h-13.125v3.125c0 3.005.305 3.125 7.933 3.125 4.698 0 9.534-.8 11.86-1.96zm25.208.71c1.25-.808 1.354-1.218.313-1.23-.86-.01-1.563-.864-1.563-1.895 0-1.474-1.736-1.875-8.125-1.875-7.833 0-8.125.112-8.125 3.125 0 3.002.308 3.124 7.813 3.106 4.297-.01 8.656-.563 9.687-1.23zm28.542-.71c2.16-1.076 4.496-1.605 5.192-1.175.697.43 1.266-.094 1.266-1.166 0-1.635-1.998-1.95-12.354-1.95-12.185 0-12.363.043-12.952 3.125-.585 3.062-.44 3.125 7.162 3.125 4.54 0 9.39-.812 11.686-1.96zm33.958-1.165V56.14h-26.25v6.25h26.25v-3.125zm19.063 2.243c-1.547-.298-2.813-1.346-2.813-2.33 0-2.146 3.335-2.408 4.032-.317.27.81 1.16 1.06 1.98.553 3.67-2.268.67-3.273-9.762-3.273-11.166 0-11.25.023-11.25 3.125 0 3.095.1 3.123 10.313 2.955 5.672-.094 9.047-.414 7.5-.712zm27.17-.984c1.985-1.026 4.488-1.53 5.563-1.116 1.273.488 1.954.05 1.954-1.26 0-1.728-2.005-2.008-14.375-2.008-7.906 0-14.375.517-14.375 1.148 0 .63-.34 2.037-.76 3.125-.65 1.697.6 1.977 8.814 1.977 6.042 0 10.9-.688 13.18-1.866zm25.36 1.106c.418-.418.095-1.824-.717-3.125-1.17-1.875-2.968-2.365-8.676-2.365-6.846 0-7.2.153-7.2 3.125 0 3.004.306 3.125 7.917 3.125 4.353 0 8.257-.342 8.675-.76zm53.75 0c.418-.418.095-1.824-.717-3.125-1.188-1.902-2.946-2.357-8.99-2.325-4.613.024-8.447.748-9.937 1.875-3.192 2.415-8.198 2.39-8.198-.04 0-1.474-1.736-1.875-8.125-1.875-7.833 0-8.125.112-8.125 3.125v3.125h21.667c11.916 0 22.007-.342 22.425-.76zm29.067-1.252c1.69-1.107 3.92-1.687 4.956-1.29 1.152.443 1.884.01 1.884-1.112 0-1.498-2.416-1.836-13.125-1.836h-13.125v3.125c0 3.015.29 3.125 8.17 3.125 5.403 0 9.208-.68 11.24-2.012zm27.08.95c-3.286-.925-3.833-3.113-.93-3.717 1.067-.22 1.94.2 1.94.938 0 2.004 2.126 1.62 2.952-.533.61-1.585-1.11-1.875-11.116-1.875-11.792 0-11.836.012-11.836 3.125 0 3.105.07 3.124 10.938 3 6.015-.068 9.638-.49 8.05-.937zm23.68-1.75c.17-2.81.17-2.81.7-.084.744 3.818 5.38 3.39 5.38-.495 0-2.778-.338-2.86-11.83-2.86-10.418 0-11.986.29-13.126 2.418-.712 1.33-1.294 2.736-1.294 3.125 0 .39 4.5.707 10 .707 9.487 0 10.01-.144 10.17-2.812zm33.58-.313c0-3.016-.286-3.125-8.214-3.125-5.635 0-8.803.59-10.09 1.875-1.03 1.03-3.24 1.875-4.91 1.875s-3.036.563-3.036 1.25c0 .754 5.21 1.25 13.125 1.25h13.125v-3.125zm32.5 0c0-3.1-.093-3.125-11.097-3.125-8.34 0-11.483.466-12.653 1.875-.856 1.03-2.893 1.875-4.528 1.875-1.634 0-2.972.563-2.972 1.25 0 .767 6.042 1.25 15.625 1.25h15.625v-3.125zm28.75 0V56.14h-27.5v6.25h27.5v-3.125zm26.25 0c0-3.004-.302-3.123-7.812-3.085-4.88.025-8.724.73-10.24 1.875-1.334 1.01-3.443 1.835-4.687 1.835-1.243 0-2.26.563-2.26 1.25 0 .75 5 1.25 12.5 1.25 12.5 0 12.5 0 12.5-3.125zm26.25 0c0-3.007-.302-3.125-7.972-3.125-5.56 0-8.442.567-9.528 1.875-.856 1.03-2.893 1.875-4.528 1.875-1.634 0-2.972.563-2.972 1.25 0 .75 5 1.25 12.5 1.25 12.5 0 12.5 0 12.5-3.125zm-406.25-.625c0-.687-.248-1.25-.55-1.25-.304 0-.9.563-1.325 1.25-.425.688-.177 1.25.55 1.25.73 0 1.325-.562 1.325-1.25zM31.5 51.453c1.81-2.74 1.742-2.813-2.67-2.813-4.03 0-4.528.354-4.528 3.212 0 2.57.533 3.132 2.67 2.812 1.468-.22 3.505-1.665 4.527-3.21zm9.052 1.562c0-1.03-.775-1.875-1.722-1.875s-2.422.844-3.278 1.875c-1.316 1.586-1.05 1.875 1.722 1.875 2.08 0 3.278-.685 3.278-1.875zM69.855 51.7l2.09-3.19-6.634.277c-3.648.152-7.046.885-7.55 1.628-.623.915-.926.846-.94-.212-.012-1.09-2.513-1.563-8.277-1.563-7.017 0-8.144.297-7.5 1.977.418 1.088.76 2.494.76 3.125 0 .632 5.84 1.148 12.98 1.148 12.538 0 13.053-.11 15.072-3.19zm29.76 2.308c-3.112-.6-3.913-4.118-.938-4.118 1.03 0 1.875.545 1.875 1.21 0 .667.85.885 1.89.487 1.35-.52 1.67-.152 1.116 1.29-.68 1.773.806 2.013 12.485 2.013h13.26v-6.25h-25.78c-22.048 0-25.565.255-24.313 1.764 1.12 1.35 1.112 1.98-.037 2.69-.844.522-2.147.043-2.98-1.094-1.125-1.54-1.826-1.675-2.934-.566-.802.8-1.458 1.906-1.458 2.456s6.89.923 15.313.83c8.422-.094 14.047-.414 12.5-.712zm57.187-2.243V48.64h-26.25v6.25h26.25v-3.125zm20.614 1.142c1.665-1.09 3.613-1.62 4.33-1.176.72.445 1.306-.07 1.306-1.14 0-1.636-2.012-1.95-12.5-1.95-12.5 0-12.5 0-12.5 3.125 0 3.015.29 3.125 8.17 3.125 5.353 0 9.21-.683 11.194-1.983zm33.136-1.142V48.64h-26.25v6.25h26.25v-3.125zm26.25 0c0-3.125 0-3.125-12.5-3.125s-12.5 0-12.5 3.125 0 3.125 12.5 3.125 12.5 0 12.5-3.125zm24.063 2.243c-3.112-.6-3.913-4.118-.938-4.118 1.03 0 1.875.545 1.875 1.21 0 .667.85.885 1.89.487 1.35-.52 1.67-.152 1.116 1.29-.68 1.773.806 2.013 12.485 2.013h13.26v-6.25h-52.5v6.25l12.812-.17c7.047-.094 11.547-.414 10-.712zm57.187-2.243V48.64h-26.25v6.25h26.25v-3.125zm20.56 1.204c1.34-1.013 3.448-1.52 4.687-1.127 1.516.482 2.252.075 2.252-1.244 0-1.655-2.04-1.96-13.125-1.96h-13.125v3.125c0 3.03.26 3.124 8.438 3.085 5.44-.025 9.302-.693 10.872-1.88zm33.19-1.205c0-3.125 0-3.125-12.5-3.125s-12.5 0-12.5 3.125 0 3.125 12.5 3.125 12.5 0 12.5-3.125zm27.5 0V48.64h-26.25v6.25h26.25v-3.125zm22.813 2.243c-3.112-.6-3.913-4.118-.938-4.118 1.03 0 1.875.545 1.875 1.21 0 .667.85.885 1.89.487 1.35-.52 1.67-.152 1.116 1.29-.683 1.777.857 2.013 13.11 2.013h13.884v-6.25h-52.5v6.25l12.188-.17c6.703-.094 10.922-.414 9.375-.712zm50.347-1.13c1.69-1.107 3.92-1.687 4.956-1.29 1.152.443 1.884.01 1.884-1.112 0-1.492-2.34-1.836-12.5-1.836-12.5 0-12.5 0-12.5 3.125 0 2.988.33 3.125 7.544 3.125 4.83 0 8.65-.724 10.616-2.012zm25.933 1.252c.418-.418.095-1.824-.717-3.125-1.194-1.91-2.98-2.365-9.3-2.365-7.514 0-7.826.125-7.826 3.125 0 3.03.264 3.125 8.542 3.125 4.698 0 8.883-.342 9.3-.76zm28.2-1.2c2.16-1.076 4.495-1.605 5.19-1.175.698.43 1.267-.094 1.267-1.166 0-1.635-1.998-1.95-12.354-1.95-12.185 0-12.363.043-12.952 3.125-.585 3.062-.44 3.125 7.162 3.125 4.54 0 9.39-.812 11.686-1.96zm33.957-1.165V48.64h-26.25v6.25h26.25v-3.125zm22.813 1.836c-3.175-1.275-3.79-3.71-.938-3.71 1.03 0 1.875.623 1.875 1.384 0 .76.907 1.036 2.014.61 1.442-.552 1.808-.235 1.29 1.117-.616 1.605 1.07 1.89 11.172 1.89 8.106 0 13.048-.595 15.507-1.866 3.55-1.836 7.517-1.44 7.517.75 0 .614 3.656 1.116 8.125 1.116 7.834 0 8.125-.112 8.125-3.125V48.64h-76.25v6.25l12.188-.08c8.57-.055 11.353-.414 9.375-1.21zm87.187-1.67c0-2.877-.32-2.968-11.138-3.187-11.203-.226-13.263.496-11.857 4.16.618 1.61 2.87 1.987 11.88 1.987 10.858 0 11.115-.068 11.115-2.96zm28.75-.165c0-3.05-.218-3.124-9.062-3.085-5.98.026-9.888.664-11.49 1.875-1.334 1.01-3.443 1.835-4.687 1.835-1.243 0-2.26.563-2.26 1.25 0 .758 5.416 1.25 13.75 1.25h13.75v-3.125zm29.88 1.122c3.684-1.837 4.2-1.837 6.23 0 1.48 1.342 4.553 2.003 9.3 2.003 6.73 0 7.09-.16 7.09-3.125V48.64h-21.176c-11.647 0-21.493.512-21.88 1.137-.386.626-.36 2.032.06 3.125 1.053 2.742 14.87 2.732 20.377-.015zm-222.38-1.747c0-.687-.562-1.25-1.25-1.25-.687 0-1.25.563-1.25 1.25 0 .688.563 1.25 1.25 1.25.688 0 1.25-.562 1.25-1.25zm-470.25-5.25c3.29-3.29 1.636-4.75-5.375-4.75-6.5 0-6.875.17-6.875 3.125 0 2.85.475 3.125 5.375 3.125 2.956 0 6.05-.675 6.875-1.5zm18.202-.375c-.396-1.03-.097-1.875.664-1.875.762 0 1.384-.562 1.384-1.25 0-.687-2.185-1.25-4.856-1.25-3.8 0-5.3.68-6.904 3.125l-2.047 3.125h6.24c5.032 0 6.1-.363 5.52-1.875zm74.548-1.25V41.14H95.865l-33.438.002-.18 3.124-.18 3.124h67.235v-3.125zm27.5 0V41.14h-26.25v6.25h26.25v-3.125zm26.25 0c0-3.125 0-3.125-12.5-3.125s-12.5 0-12.5 3.125 0 3.125 12.5 3.125 12.5 0 12.5-3.125zm27.5 0V41.14h-26.25v6.25h26.25v-3.125zm26.25 0c0-3.125 0-3.125-12.5-3.125s-12.5 0-12.5 3.125 0 3.125 12.5 3.125 12.5 0 12.5-3.125zm53.75 0V41.14h-52.5v6.25h52.5v-3.125zm27.5 0V41.14h-26.25v6.25h26.25v-3.125zm27.5 0V41.14h-26.25v6.25h26.25v-3.125zm26.25 0c0-3.125 0-3.125-12.5-3.125s-12.5 0-12.5 3.125 0 3.125 12.5 3.125 12.5 0 12.5-3.125zm27.5 0V41.14h-26.25v6.25h26.25v-3.125zm53.75 0V41.14h-52.5v6.25h52.5v-3.125zm26.25 0c0-3.125 0-3.125-12.5-3.125s-12.5 0-12.5 3.125 0 3.125 12.5 3.125 12.5 0 12.5-3.125zm19.545 1.266c1.97-1.02 4.565-1.546 5.768-1.165 1.447.46 2.187.03 2.187-1.266 0-1.655-2.04-1.96-13.125-1.96h-13.125v3.125c0 2.98.343 3.125 7.357 3.125 4.072 0 8.955-.83 10.937-1.86zm34.205-1.265c0-3.125 0-3.125-12.5-3.125s-12.5 0-12.5 3.125 0 3.125 12.5 3.125 12.5 0 12.5-3.125zm27.5 0V41.14h-26.25v6.25h26.25v-3.125zm81.21.938c3.728-2.084 3.992-2.084 5.553 0 1.31 1.75 3.55 2.187 11.187 2.187 5.327 0 9.55-.535 9.55-1.21 0-.667-.844-.888-1.875-.492-1.298.498-1.875-.084-1.875-1.894 0-2.608-.096-2.613-51.25-2.625l-51.25-.012v6.232h38.024c33.89 0 38.45-.238 41.937-2.187zm28.406-2.477c-.316-1.216-.597-.523-.622 1.54-.026 2.062.234 3.057.576 2.21.343-.846.363-2.533.047-3.75zm32.845 2.477c3.727-2.084 3.99-2.084 5.552 0 1.445 1.93 4.086 2.187 22.437 2.187h20.8v-3.125c0-3.115-.037-3.125-11.95-3.125-8.37 0-11.693.412-11.098 1.375.618 1 .15 1-1.72 0-3.287-1.76-46.017-1.888-47.097-.14-3.015 4.878 15.376 7.132 23.076 2.828zm-658.52-8.358c.763-1.675 1.012-4.025.553-5.222-.72-1.877-1.066-1.93-2.51-.392-.92.982-2.035 3.332-2.477 5.223-1.05 4.48 2.43 4.79 4.433.392zm16.06 1.795c0-.687-.25-1.25-.552-1.25-.302 0-.898.563-1.323 1.25-.425.688-.177 1.25.55 1.25.73 0 1.325-.562 1.325-1.25zm418.75-1.25c0-2.333-.834-2.5-12.5-2.5-11.667 0-12.5.167-12.5 2.5 0 2.334.833 2.5 12.5 2.5 11.666 0 12.5-.166 12.5-2.5zm27.5 0c0-2.34-.834-2.5-13.126-2.5-12.29 0-13.125.16-13.125 2.5 0 2.342.834 2.5 13.125 2.5 12.292 0 13.125-.158 13.125-2.5zm26.25 0c0-2.333-.834-2.5-12.5-2.5-11.667 0-12.5.167-12.5 2.5 0 2.334.833 2.5 12.5 2.5 11.666 0 12.5-.166 12.5-2.5zm27.5 0c0-2.34-.834-2.5-13.126-2.5-12.29 0-13.125.16-13.125 2.5 0 2.342.834 2.5 13.125 2.5 12.292 0 13.125-.158 13.125-2.5zm103.75-1.25c0-3.402-.377-3.747-4.063-3.725-7.026.043-20.022 2.287-27.813 4.804l-7.5 2.42 19.688.126 19.687.124v-3.75zm3.75 2.5c0-.687-.25-1.25-.552-1.25-.302 0-.898.563-1.323 1.25-.425.688-.177 1.25.55 1.25.73 0 1.325-.562 1.325-1.25zm5.55-.664c3.13-2.368 6.83-2.35 7.747.04.597 1.555 4.034 1.874 20.17 1.874 10.697 0 19.125-.324 18.728-.72-.396-.397-4.85-1.826-9.896-3.177-11.065-2.962-44.8-4.872-44.8-2.536 0 .788.844 1.433 1.875 1.433 1.042 0 1.875 1.11 1.875 2.5 0 2.947 1 3.083 4.302.586zM150.91 35.22c-3.584-.25-9.77-.254-13.75-.005-3.978.25-1.045.455 6.517.458 7.563.003 10.818-.2 7.233-.452zm26.205-.002c-3.61-.252-9.516-.252-13.125 0-3.61.253-.657.46 6.562.46 7.22 0 10.172-.207 6.563-.46zm27.545.002c-3.584-.25-9.77-.254-13.75-.005-3.978.25-1.045.455 6.517.458 7.563.003 10.818-.2 7.233-.452zm26.205-.002c-3.61-.252-9.516-.252-13.125 0-3.61.253-.657.46 6.562.46 7.22 0 10.172-.207 6.563-.46zm81.295.002c-3.584-.25-9.77-.254-13.75-.005-3.978.25-1.045.455 6.517.458 7.563.003 10.818-.2 7.233-.452zm27.5 0c-3.584-.25-9.77-.254-13.75-.005-3.978.25-1.045.455 6.517.458 7.563.003 10.818-.2 7.233-.452zm26.205-.002c-3.61-.252-9.516-.252-13.125 0-3.61.253-.657.46 6.562.46 7.22 0 10.172-.207 6.563-.46zm27.545.002c-3.584-.25-9.77-.254-13.75-.005-3.978.25-1.045.455 6.517.458 7.563.003 10.818-.2 7.233-.452zm85.892-5.33c0-1.41-7-1.428-18.125-.048-6.98.866-6.612.944 5.313 1.115 7.83.112 12.812-.303 12.812-1.067zm26.25 0c0-.75-5-1.25-12.5-1.25s-12.5.5-12.5 1.25 5 1.25 12.5 1.25 12.5-.5 12.5-1.25zm27.5 0c0-.75-5-1.25-12.5-1.25s-12.5.5-12.5 1.25 5 1.25 12.5 1.25 12.5-.5 12.5-1.25zm27.5 0c0-.754-5.208-1.25-13.125-1.25-7.916 0-13.125.496-13.125 1.25s5.21 1.25 13.125 1.25c7.917 0 13.125-.496 13.125-1.25zM172.74 216.453l65.312-.335v-5.614c0-3.087.563-5.614 1.25-5.614.688 0 1.25 2.813 1.25 6.25v6.25l-66.562-.3-66.563-.302 65.313-.335zm76.562-1.41c0-1.29.936-3.12 2.08-4.062 1.88-1.55 1.94-1.452.625 1.016-1.9 3.567-1.854 3.857.733 4.533 1.646.43 1.49.606-.625.715-1.97.102-2.813-.558-2.813-2.202zm8.137.59c-.79-1.786-.325-2.973 1.864-4.745 2.53-2.05 3.156-2.126 4.705-.576 1.396 1.397 1.477 2.364.37 4.433-.78 1.455-2.07 2.645-2.872 2.645-1.083 0-1.072-.383.044-1.5.825-.825 1.5-2.58 1.5-3.903 0-1.95-.34-2.12-1.8-.91-.99.823-2.016 2.72-2.28 4.217-.453 2.57-.54 2.588-1.533.34zm9.412.297c-.095-3.97 1.482-6.04 4.605-6.04 2.643 0 3.018.443 2.383 2.813-.414 1.547-.76 3.234-.77 3.75-.01.515-.59.937-1.292.937-.734 0-.94-1.323-.49-3.125 1.037-4.126-.195-3.974-2.52.313-1.237 2.278-1.883 2.734-1.916 1.352zm9.358-2.602c1.194-5.67 3.668-7.873 2.633-2.344-.435 2.32-.79 4.71-.79 5.313 0 .6-.608 1.093-1.35 1.093-.865 0-1.042-1.46-.493-4.062zm5.12.625c.905-3.775 1.455-4.75 2.237-3.958.92.93-.772 7.395-1.934 7.395-.62 0-.757-1.547-.304-3.437zm4.713 1.46c.418-1.087.76-2.69.76-3.56 0-.878 1.566-1.627 3.52-1.682 3.197-.09 3.47.236 2.983 3.56-.296 2.013-1.097 3.66-1.78 3.66-.725 0-.894-1.397-.406-3.343.736-2.93.598-3.143-1.114-1.722-1.075.892-1.954 2.396-1.954 3.343 0 .947-.622 1.722-1.384 1.722-.76 0-1.042-.89-.625-1.977zm9.755-1.773c.157-2.062.738-3.75 1.29-3.75s.875 1.688.718 3.75c-.157 2.063-.737 3.75-1.29 3.75-.552 0-.875-1.687-.718-3.75zm3.504 2.114c0-1.907 3.66-7.098 3.693-5.24.013.69-.316 2.517-.73 4.064-.81 3.022-2.963 3.876-2.963 1.176zm5-.71c0-1.29.767-2.984 1.704-3.762 1.375-1.14 1.592-.832 1.126 1.607-.418 2.188.06 3.183 1.734 3.615 1.572.405 1.212.642-1.126.74-2.58.11-3.438-.44-3.438-2.202zm4.836-3.08c.766-.924 1.12-2.053.79-2.512-.333-.458.016-.314.776.32 1.534 1.278.444 3.868-1.63 3.868-.906 0-.886-.532.064-1.677zm-54.836-.824c0-.687.563-1.25 1.25-1.25.688 0 1.25.563 1.25 1.25 0 .688-.562 1.25-1.25 1.25-.687 0-1.25-.562-1.25-1.25zm-236.21-43.92c-4.294-6.963-6.673-16.91-5.755-24.074.45-3.51 1.144-11.282 1.542-17.272.638-9.598.412-11.42-1.897-15.332-2.618-4.437-2.618-4.445-.155-8.484 2.923-4.794 3.265-15.007.956-28.477-1.313-7.654-1.23-9.962.62-17.01 2.056-7.84 6.676-16.318 8.11-14.884.38.38-.18 1.677-1.245 2.884-3.53 4.003-4.94 14.74-3.358 25.555 2.24 15.31.82 26.836-4.163 33.828-1.246 1.747-1.246 2.627 0 4.375 4.693 6.586 5.312 12.99 3.953 40.937-.41 8.426-.052 10.875 2.27 15.557 3.32 6.693 2.743 8.268-.88 2.397zm305.85-143.106c-1.547-1.547-.974-3.85 1.715-6.898 1.885-2.135 2.414-2.346 1.914-.763-.38 1.203-.144 2.187.52 2.187.667 0 1.212-.843 1.212-1.875 0-1.03.53-1.875 1.176-1.875 1.625 0 2.693 1.965 1.64 3.018-.476.476-.883 2.1-.903 3.61-.028 1.998-.903 2.848-3.21 3.117-1.744.204-3.572-.03-4.062-.52zm5.36-3.047c0-.647-.562-1.177-1.25-1.177-.687 0-1.25.877-1.25 1.95 0 1.07.563 1.6 1.25 1.175.688-.425 1.25-1.3 1.25-1.948zm-165.8.69c-1.014-2.64 2.87-8.117 5.755-8.117 2.64 0 4.217 1.662 2.86 3.018-.475.476-.882 2.052-.902 3.502-.02 1.45-.83 2.903-1.8 3.23-1.2.403-1.516-.046-.992-1.414.424-1.103.232-2.338-.425-2.744-1.08-.667-1.73 1.02-1.344 3.47.278 1.758-2.428.945-3.153-.946zm5.8-5.617c0-.687-.562-1.25-1.25-1.25-.687 0-1.25.563-1.25 1.25 0 .688.563 1.25 1.25 1.25.688 0 1.25-.562 1.25-1.25zm317.173 2.188c-.867-2.28 1.213-7.126 3.422-7.974 2.8-1.075 6 .47 4.843 2.34-.533.862-.99 2.645-1.016 3.96-.026 1.316-.706 2.614-1.51 2.886-.933.314-1.22-.44-.793-2.078.384-1.462.07-2.572-.722-2.572-.768 0-1.396 1.125-1.396 2.5 0 2.764-1.893 3.392-2.827.938zm5.327-5.938c0-.687-.248-1.25-.55-1.25-.304 0-.9.563-1.325 1.25-.425.688-.177 1.25.55 1.25.73 0 1.325-.562 1.325-1.25z" fill="#85a2d1" fill-opacity=".633"/></svg>